<?xml version="1.0" encoding="UTF-8"?>
<svg version="1.1" xmlns="http://www.w3.org/2000/svg" width="288" height="64">
<path d="M0 0 C3.18500291 1.62145603 5.22111096 2.97328264 7.375 5.8125 C8.25805234 8.90318318 8.12279902 11.8072254 8 15 C5.03 15 2.06 15 -1 15 C-1.33 13.35 -1.66 11.7 -2 10 C-3.65 10.33 -5.3 10.66 -7 11 C-6.67 12.32 -6.34 13.64 -6 15 C9.84 15.495 9.84 15.495 26 16 C29 23 29 23 27.90234375 25.7734375 C26.92974609 27.06121094 26.92974609 27.06121094 25.9375 28.375 C20.04198185 36.76126032 17.54055344 43.85802321 16 54 C12.7 54 9.4 54 6 54 C6.4279443 43.30139246 9.26385854 34.09061015 15 25 C14.40050537 25.01571045 13.80101074 25.0314209 13.18334961 25.04760742 C10.43483123 25.1104413 7.68646458 25.14914235 4.9375 25.1875 C3.99455078 25.21263672 3.05160156 25.23777344 2.08007812 25.26367188 C-4.95534701 25.3372129 -9.96396058 24.6468036 -15.4375 19.875 C-17.6320754 15.83698127 -18.0422062 12.49068261 -17 8 C-12.67145123 0.90012427 -8.13184214 -0.9976882 0 0 Z " fill="#33ED87" transform="translate(18,10)"/>
<path d="M0 0 C0.66 -0.33 1.32 -0.66 2 -1 C6.63213493 -1.55512815 9.98172127 -1.6364242 14 0.875 C16.86450892 3.91854072 17.12341543 5.50036136 17.09765625 9.5703125 C17.09443359 10.46621094 17.09121094 11.36210938 17.08789062 12.28515625 C17.07532227 13.69087891 17.07532227 13.69087891 17.0625 15.125 C17.05798828 16.06988281 17.05347656 17.01476562 17.04882812 17.98828125 C17.03702357 20.32558387 17.02055759 22.66276061 17 25 C14.36 25 11.72 25 9 25 C8.93941406 23.86820313 8.87882812 22.73640625 8.81640625 21.5703125 C8.73200083 20.08852855 8.64735283 18.6067584 8.5625 17.125 C8.52318359 16.37863281 8.48386719 15.63226563 8.44335938 14.86328125 C8.28426376 10.80013136 8.28426376 10.80013136 7 7 C5.68 7 4.36 7 3 7 C3 12.94 3 18.88 3 25 C0.03 25 -2.94 25 -6 25 C-6 19.06 -6 13.12 -6 7 C-7.65 7 -9.3 7 -11 7 C-11 12.94 -11 18.88 -11 25 C-13.97 25 -16.94 25 -20 25 C-20.08115993 21.93696422 -20.14057409 18.87609185 -20.1875 15.8125 C-20.21263672 14.94818359 -20.23777344 14.08386719 -20.26367188 13.19335938 C-20.32005433 8.2880862 -20.22017093 4.9778582 -17 1 C-12.23962945 -2.70251043 -5.47473146 -1.12715059 0 0 Z " fill="#FFFFFF" transform="translate(117,28)"/>
<path d="M0 0 C0.82242188 -0.01933594 1.64484375 -0.03867187 2.4921875 -0.05859375 C6.34095962 0.66661999 8.27763153 1.71768706 11.125 4.4375 C11.86308458 7.71488379 11.6922958 10.84944215 11.5 14.1875 C11.47292969 15.07566406 11.44585937 15.96382812 11.41796875 16.87890625 C11.34736624 19.06758395 11.24885527 21.25129568 11.125 23.4375 C3.19579173 28.21014622 3.19579173 28.21014622 -2.875 27.4375 C-8.01459507 25.62352527 -10.50792134 23.35374028 -12.875 18.4375 C-13.71289963 13.66660212 -13.36403673 10.38064226 -11.125 6.0625 C-7.7007747 2.06757049 -5.38343682 0.00838542 0 0 Z M-3.875 10.4375 C-4.2153296 13.63659824 -4.39648335 15.6292008 -2.625 18.375 C-0.91976921 19.64752659 -0.91976921 19.64752659 1.1875 19.25 C3.31212526 18.50279664 3.31212526 18.50279664 5.125 16.4375 C5.02804884 12.09555064 5.02804884 12.09555064 3.125 8.4375 C-0.836168 8.04659667 -0.836168 8.04659667 -3.875 10.4375 Z " fill="#FFFFFF" transform="translate(83.875,26.5625)"/>
<path d="M0 0 C2.66666667 1.33333333 5.33333333 2.66666667 8 4 C7.79375 4.928125 7.5875 5.85625 7.375 6.8125 C6.63307034 10.15173402 6.63307034 10.15173402 9 13 C12.58357241 13.25015873 12.58357241 13.25015873 16 13 C15.67 10.36 15.34 7.72 15 5 C16.64574566 4.97311849 18.29161413 4.95365877 19.9375 4.9375 C20.85402344 4.92589844 21.77054688 4.91429687 22.71484375 4.90234375 C25 5 25 5 26 6 C26.253235 11.13076121 25.44868215 15.02477718 22.125 19 C19.63153975 21.70646942 17.69177891 22.8034314 13.94921875 23.23828125 C8.43719317 23.41915946 5.29943235 22.78759517 1 19 C-2.44227438 15.0987557 -2.32377163 11.37592961 -2.30078125 6.40234375 C-1.98365957 3.86948878 -1.27224682 2.19475249 0 0 Z " fill="#32ED8D" transform="translate(2,31)"/>
<path d="M0 0 C0.85722656 -0.00515625 1.71445313 -0.0103125 2.59765625 -0.015625 C4.9375 0.25 4.9375 0.25 7.9375 2.25 C7.41481534 5.01276177 6.82880413 7.5760876 5.9375 10.25 C3.2975 9.92 0.6575 9.59 -2.0625 9.25 C-3.93793354 13.11763446 -3.93793354 13.11763446 -3.0625 17.25 C0.31567425 18.09454356 2.61215243 18.35844919 5.9375 17.25 C6.9275 19.56 7.9175 21.87 8.9375 24.25 C4.39889393 26.90674502 1.1957423 27.90728029 -4.0625 27.25 C-8.40083918 24.99740081 -11.26537362 22.8426563 -13.0625 18.25 C-13.75424748 13.15156489 -13.63365809 9.39231617 -11.3125 4.75 C-7.84148886 0.89332096 -5.14559548 -0.03104432 0 0 Z " fill="#FFFFFF" transform="translate(64.0625,26.75)"/>
<path d="M0 0 C0.66 0 1.32 0 2 0 C2.66 0.66 3.32 1.32 4 2 C4.66 2 5.32 2 6 2 C6 4.31 6 6.62 6 9 C2.37 9 -1.26 9 -5 9 C-5 6.69 -5 4.38 -5 2 C-3.68 2.33 -2.36 2.66 -1 3 C-0.67 2.01 -0.34 1.02 0 0 Z " fill="#32ED8D" transform="translate(13,0)"/>
<path d="M0 0 C0.125 2.875 0.125 2.875 0 6 C-0.66 6.66 -1.32 7.32 -2 8 C-6.55555556 7.44444444 -6.55555556 7.44444444 -8 6 C-8.04080783 4.00041636 -8.04254356 1.99954746 -8 0 C-5.13822943 -1.43088528 -3.06624227 -0.59991697 0 0 Z " fill="#FFFFFF" transform="translate(49,46)"/>
</svg>
