<?xml version="1.0" encoding="UTF-8"?>
<svg xmlns="http://www.w3.org/2000/svg" class="icon size-6 flex-none text-secondary" viewBox="0 0 32 32">
  <style type="text/css">
    .icon {
      fill: #b3bec1;
    }
  </style>
  <path d="M26.553 21.195c.578 3.303-1.723 5.7-4.93 6.239-3.098.52-8.147.52-11.244 0-3.208-.539-5.51-2.936-4.93-6.238v-.001c.49-2.803 2.865-4.548 5.765-4.398 2.12.11 3.421.385 4.929.385 1.524 0 2.54-.276 4.644-.385 2.9-.152 5.277 1.595 5.766 4.398ZM15.606 4.175a5.518 5.518 0 1 1 0 11.036 5.518 5.518 0 0 1 0-11.036Z"></path>
</svg>
