<?xml version="1.0" encoding="UTF-8"?>
<svg xmlns="http://www.w3.org/2000/svg" class="icon size-6 flex-none text-secondary" viewBox="0 0 32 32">
  <style type="text/css">
    .icon {
      fill: #b3bec1;
    }
  </style>
  <path d="M11.1788 23.4668C12.5674 24.366 14.2226 24.8872 15.9995 24.8872C17.4173 24.8872 18.7571 24.5554 19.946 23.9649L20.198 23.8346L21.9706 26.2758L22.0417 26.3641C22.0426 26.3649 22.0435 26.3658 22.0443 26.3675C20.2691 27.4055 18.2033 28.0004 15.9987 28.0004C13.65 28.0004 11.4591 27.325 9.60933 26.1584L9.34704 25.9886L11.1771 23.466L11.1788 23.4668ZM27.5739 12.8079C27.8516 13.822 27.9999 14.8891 27.9999 15.9915C27.9999 19.6241 26.3884 22.8805 23.8418 25.0826L23.8075 25.0252L23.7689 24.9695L22.01 22.5462C23.7792 20.9202 24.8884 18.5861 24.8884 15.9923C24.8884 15.3357 24.8173 14.6954 24.6827 14.0791L24.6098 13.7731L27.5739 12.8088V12.8079ZM4.35573 13.0745L7.11411 13.9711L7.22382 14.0002C7.25897 14.008 7.29411 14.014 7.32926 14.0174C7.18525 14.6517 7.10982 15.3126 7.10982 15.9906C7.10982 18.2252 7.93271 20.267 9.29218 21.8296L9.47218 22.0311L7.61727 24.5863C5.38434 22.4057 3.99829 19.3601 3.99829 15.9915C3.99829 14.9851 4.12172 14.008 4.35487 13.0745H4.35573ZM15.9995 8.50064C20.1414 8.50064 23.4998 11.859 23.4998 16.0009C23.4998 20.1427 20.1414 23.5011 15.9995 23.5011C11.8577 23.5011 8.49929 20.1427 8.49929 16.0009C8.49929 11.859 11.8577 8.50064 15.9995 8.50064ZM15.4295 11.2736H14.9332L14.8938 11.2787L14.8586 11.2942C14.8364 11.307 14.8184 11.3259 14.8055 11.3473L14.7901 11.3824L14.7849 11.4219V12.8602H13.1477L13.1083 12.8653L13.0732 12.8799C13.0509 12.8928 13.0329 12.9116 13.02 12.9331L13.0054 12.9682L13.0003 13.0076V13.5082L13.0072 13.5528L13.0252 13.5922C13.0492 13.6282 13.0877 13.6539 13.134 13.6582C13.6132 13.7019 13.9012 13.984 13.974 14.3534L13.9878 14.4477L13.992 14.5454V17.6209L13.9886 17.7084L13.9775 17.7992C13.9226 18.1267 13.7083 18.371 13.3106 18.4087C13.2712 18.413 13.2352 18.431 13.2103 18.4592L13.1889 18.491L13.1769 18.5278L13.0817 19.0336L13.0792 19.0713L13.0886 19.1141C13.0989 19.1407 13.1177 19.1647 13.1417 19.181L13.1812 19.2007L13.2257 19.2076H14.7841V20.6459L14.7892 20.6853L14.8046 20.7205C14.8175 20.7428 14.8364 20.7608 14.8578 20.7736L14.8929 20.789L14.9324 20.7942H15.4287L15.4681 20.789L15.5032 20.7736C15.5255 20.7608 15.5435 20.7419 15.5564 20.7205L15.5718 20.6853L15.577 20.6459V19.2076H16.3707V20.6459L16.3758 20.6853L16.3913 20.7205C16.4041 20.7428 16.423 20.7608 16.4444 20.7736L16.4796 20.789L16.519 20.7942H17.0153L17.0547 20.789L17.0899 20.7736C17.1121 20.7608 17.1301 20.7419 17.143 20.7205L17.1584 20.6853L17.1636 20.6459V19.2076H17.833L17.9453 19.2033L18.0662 19.1904C18.9011 19.0687 19.5439 18.3007 19.5439 17.3724C19.5448 16.7398 19.2465 16.1826 18.7931 15.8526C19.0151 15.5389 19.1479 15.1454 19.1479 14.7186C19.1479 13.7808 18.5093 13.0051 17.6787 12.8773L17.5587 12.8636L17.4362 12.8593H17.1636V11.421L17.1584 11.3816L17.143 11.3464C17.1301 11.3242 17.1113 11.3062 17.0899 11.2933L17.0547 11.2779L17.0153 11.2727H16.519L16.4796 11.2779L16.4444 11.2933C16.4221 11.3062 16.4041 11.325 16.3913 11.3464L16.3758 11.3816L16.3707 11.421V12.8593H15.577V11.421L15.5718 11.3816L15.5564 11.3464C15.5307 11.3027 15.4827 11.2727 15.4278 11.2727L15.4295 11.2736ZM17.1902 16.4312C17.6419 16.4312 18.0087 16.7972 18.0087 17.2498C18.0087 17.6389 17.737 17.9647 17.3727 18.0478L17.2802 18.0632L17.191 18.0684H15.5787V16.4312H17.191H17.1902ZM16.7933 14.0508C17.245 14.0508 17.6119 14.4168 17.6119 14.8694C17.6119 15.2586 17.3402 15.5843 16.9759 15.6674L16.8833 15.6829L16.7941 15.688H15.5787V14.0508H16.7941H16.7933ZM14.4438 4.08192V7.0263L14.4498 7.14031C14.4532 7.17031 14.4566 7.20031 14.4626 7.22859C11.6588 7.71804 9.30589 9.52153 8.06385 11.9816C8.01071 11.9473 7.95413 11.9165 7.89328 11.8907L7.8007 11.8565L5.0929 10.9753C6.78495 7.29717 10.2796 4.62108 14.4438 4.08192ZM16.6664 4.00049C21.0268 4.23964 24.7675 6.80858 26.6662 10.4841L26.787 10.725L23.7878 11.7005C22.4163 9.21294 19.8894 7.45232 16.9313 7.14373L16.6613 7.11973L16.6664 7.0263V4.00049Z"></path>
</svg>
