<svg width="25" height="24" viewBox="0 0 25 24" fill="none" xmlns="http://www.w3.org/2000/svg">
<path d="M20.5127 14.7549C19.3899 17.8158 16.4502 20 13 20C11.1386 20 9.42752 19.362 8.06836 18.2959C9.90846 18.2171 11.9712 17.8952 14.084 17.3291C16.5244 16.6752 18.7434 15.7724 20.5127 14.7549ZM13 4C17.0175 4 20.3427 6.96142 20.9131 10.8203C20.6731 11.0367 20.3861 11.2678 20.0459 11.5059C18.4878 12.5962 16.1179 13.6776 13.3076 14.4307C10.4973 15.1837 7.90436 15.4327 6.00977 15.2676C5.89718 15.2578 5.78795 15.2449 5.68262 15.2324C5.26195 14.2815 5.02075 13.2343 5.00293 12.1318C5.01051 12.0454 5.01032 11.9587 5.00293 11.8721C5.07129 7.5128 8.62445 4 13 4Z" fill="#22E9A7"/>
<path d="M3.5108 11.9999C2.36828 12.9953 1.80381 14.0007 2.03504 14.8636C2.6068 16.9975 7.82737 17.4527 13.6955 15.8803C19.5636 14.3079 23.8572 11.3034 23.2854 9.16958C23.1061 8.5005 22.4698 7.99646 21.4998 7.66821" stroke="#22E9A7" stroke-linecap="round"/>
</svg>
