<?xml version="1.0" encoding="UTF-8"?>
<svg xmlns="http://www.w3.org/2000/svg" class="icon size-6 flex-none text-secondary" viewBox="0 0 32 32">
  <style type="text/css">
    .icon {
      fill: #b3bec1;
    }
  </style>
  <path d="M9.275 5.073c-2.327 0-4.202 1.876-4.202 4.202v3.057c0 0.718-0.582 1.3-1.3 1.3s-1.3-0.582-1.3-1.3v-3.057c0-3.763 3.040-6.802 6.802-6.802h3.057c0.718 0 1.3 0.582 1.3 1.3s-0.582 1.3-1.3 1.3h-3.057z"></path>
  <path d="M18.368 3.773c0-0.718 0.582-1.3 1.3-1.3h3.057c3.763 0 6.802 3.040 6.802 6.802v3.057c0 0.718-0.582 1.3-1.3 1.3s-1.3-0.582-1.3-1.3v-3.057c0-2.327-1.876-4.202-4.202-4.202h-3.057c-0.718 0-1.3-0.582-1.3-1.3z"></path>
  <path d="M28.227 19.591c0.718 0 1.3 0.582 1.3 1.3v1.834c0 3.763-3.040 6.802-6.802 6.802h-1.834c-0.718 0-1.3-0.582-1.3-1.3s0.582-1.3 1.3-1.3h1.834c2.327 0 4.202-1.876 4.202-4.202v-1.834c0-0.718 0.582-1.3 1.3-1.3z"></path>
  <path d="M3.773 18.368c0.718 0 1.3 0.582 1.3 1.3v3.057c0 2.327 1.876 4.202 4.202 4.202h3.057c0.718 0 1.3 0.582 1.3 1.3s-0.582 1.3-1.3 1.3h-3.057c-3.763 0-6.802-3.040-6.802-6.802v-3.057c0-0.718 0.582-1.3 1.3-1.3z"></path>
  <path d="M16 9.352c-1.331 0-2.41 1.079-2.41 2.41s1.079 2.41 2.41 2.41c1.331 0 2.41-1.079 2.41-2.41s-1.079-2.41-2.41-2.41zM10.991 11.761c0-2.767 2.243-5.010 5.010-5.010s5.010 2.243 5.010 5.010c0 2.767-2.243 5.010-5.010 5.010s-5.010-2.243-5.010-5.010z"></path>
  <path d="M11.025 19.212c1.319-0.997 3.083-1.574 4.975-1.574s3.656 0.578 4.975 1.574c1.32 0.997 2.254 2.472 2.254 4.207 0 0.718-0.582 1.3-1.3 1.3s-1.3-0.582-1.3-1.3c0-0.742-0.395-1.508-1.221-2.133s-2.029-1.049-3.408-1.049c-1.38 0-2.581 0.424-3.408 1.049s-1.221 1.391-1.221 2.133c0 0.718-0.582 1.3-1.3 1.3s-1.3-0.582-1.3-1.3c0-1.736 0.934-3.21 2.254-4.207z"></path>
</svg>
