<svg xmlns="http://www.w3.org/2000/svg" width="100%" height="100%" viewBox="0 0 28 28" fill="#B3BEC1"><path d="M5.47056 15.9385C6.07513 15.9385 6.57201 16.3995 6.62873 16.9897L6.63448 17.1024V19.4288C6.63448 20.4563 7.43364 21.2978 8.44533 21.3632L8.57242 21.3675H10.8988C11.5407 21.3675 12.062 21.8881 12.062 22.5307C12.062 23.1345 11.6003 23.6314 11.0101 23.6881L10.8981 23.6939H8.57171C6.27403 23.6939 4.39998 21.8758 4.31023 19.6004L4.30664 19.4295V17.1031C4.30664 16.4605 4.82721 15.9399 5.46984 15.9399L5.47056 15.9385ZM22.5301 15.9385C23.134 15.9385 23.6316 16.3995 23.6883 16.9897L23.694 17.1024V19.4288C23.694 21.7265 21.876 23.6005 19.6006 23.6903L19.429 23.6939H17.1026C16.4599 23.6939 15.9401 23.1726 15.9401 22.5307C15.9401 21.9261 16.401 21.4285 16.9913 21.3725L17.1033 21.3675H19.4297C20.4579 21.3675 21.2987 20.5669 21.3647 19.5566L21.3683 19.4288V17.1024C21.3683 16.4598 21.8889 15.9392 22.5315 15.9392L22.5301 15.9385ZM15.4037 10.791C16.4247 10.791 17.2526 11.6189 17.2526 12.6399V15.6326C17.2526 16.6537 16.4247 17.4808 15.4037 17.4808H12.411C11.39 17.4808 10.5628 16.6529 10.5628 15.6326V12.6399C10.5628 11.6189 11.39 10.791 12.411 10.791H15.4037ZM19.4282 4.3065C21.7259 4.3065 23.6 6.12454 23.6897 8.39996L23.6933 8.57157V10.898C23.6933 11.5406 23.172 12.0619 22.5301 12.0619C21.9255 12.0619 21.4287 11.6002 21.3726 11.01L21.3669 10.8973V8.57085C21.3669 7.54336 20.5663 6.70183 19.556 6.63721L19.4282 6.6329H17.1018C16.4592 6.6329 15.9386 6.11162 15.9386 5.47042C15.9386 4.86513 16.3996 4.36825 16.9898 4.31225L17.1026 4.3065H19.4282ZM10.8988 4.3065C11.5407 4.3065 12.0613 4.82779 12.0613 5.47042C12.0613 6.07428 11.5996 6.57187 11.0094 6.62788L10.8981 6.63362H8.57171C7.54421 6.63362 6.70269 7.4335 6.63735 8.44448L6.63376 8.57157V10.898C6.63376 11.5406 6.11247 12.0619 5.47056 12.0619C4.86598 12.0619 4.36839 11.6002 4.31238 11.01L4.30664 10.8973V8.57085C4.30664 6.27317 6.12468 4.39985 8.4001 4.30938L8.57171 4.30579L10.8988 4.3065Z" fill="#B3BEC1"></path></svg>