<?xml version="1.0" encoding="UTF-8"?>
<svg xmlns="http://www.w3.org/2000/svg" class="icon flex-none flex-none h-4.5 w-4.5 text-secondary" viewBox="0 0 32 32">
    <style>
        path { fill: #666666; }
    </style>
    <path d="M16.758 27.333c4.056 0 7.718-2.136 9.752-5.608a.484.484 0 0 0-.176-.659l-7.728-4.638a.5.5 0 0 1 0-.857l7.728-4.638a.485.485 0 0 0 .176-.659c-2.034-3.472-5.696-5.608-9.752-5.608-6.249 0-11.333 5.084-11.333 11.333s5.084 11.333 11.333 11.333zM16.192 9.2a1.696 1.696 0 0 1 1.203.499 1.704 1.704 0 0 1 .368 1.854 1.696 1.696 0 0 1-1.572 1.049 1.697 1.697 0 0 1-1.7-1.701 1.7 1.7 0 0 1 1.701-1.7z"></path>
</svg> 