<?xml version="1.0" encoding="UTF-8"?>
<svg xmlns="http://www.w3.org/2000/svg" class="icon size-6 flex-none text-secondary" viewBox="0 0 32 32">
  <style type="text/css">
    .icon {
      fill: #b3bec1;
    }
  </style>
  <path d="M4.919 6.253c-0.587 0.587-0.953 1.738-0.953 4.414v10.667c0 2.676 0.366 3.828 0.953 4.414s1.738 0.953 4.414 0.953h13.333c2.676 0 3.828-0.366 4.414-0.953s0.953-1.738 0.953-4.414v-10.667c0-2.676-0.366-3.828-0.953-4.414s-1.738-0.953-4.414-0.953h-13.333c-2.676 0-3.828 0.366-4.414 0.953zM3.081 4.414c1.413-1.413 3.595-1.714 6.253-1.714h13.333c2.657 0 4.839 0.301 6.253 1.714s1.714 3.595 1.714 6.253v10.667c0 2.657-0.301 4.839-1.714 6.253s-3.595 1.714-6.253 1.714h-13.333c-2.657 0-4.839-0.301-6.253-1.714s-1.714-3.595-1.714-6.253v-10.667c0-2.657 0.301-4.839 1.714-6.253z"></path>
  <path d="M17.367 10.667c0-0.718 0.582-1.3 1.3-1.3h6.667c0.718 0 1.3 0.582 1.3 1.3s-0.582 1.3-1.3 1.3h-6.667c-0.718 0-1.3-0.582-1.3-1.3z"></path>
  <path d="M18.7 16c0-0.718 0.582-1.3 1.3-1.3h5.333c0.718 0 1.3 0.582 1.3 1.3s-0.582 1.3-1.3 1.3h-5.333c-0.718 0-1.3-0.582-1.3-1.3z"></path>
  <path d="M21.367 21.333c0-0.718 0.582-1.3 1.3-1.3h2.667c0.718 0 1.3 0.582 1.3 1.3s-0.582 1.3-1.3 1.3h-2.667c-0.718 0-1.3-0.582-1.3-1.3z"></path>
  <path d="M11.333 11.527c-0.615 0-1.113 0.498-1.113 1.113s0.498 1.113 1.113 1.113c0.615 0 1.113-0.498 1.113-1.113s-0.498-1.113-1.113-1.113zM7.62 12.64c0-2.051 1.662-3.713 3.713-3.713s3.713 1.663 3.713 3.713c0 2.051-1.662 3.713-3.713 3.713s-3.713-1.662-3.713-3.713z"></path>
  <path d="M12.47 16.853c2.552 0.232 4.578 2.241 4.824 4.796 0.069 0.715-0.454 1.35-1.169 1.419s-1.35-0.454-1.419-1.169c-0.127-1.31-1.164-2.339-2.475-2.457l-0.013-0.001c-0.58-0.058-1.174-0.058-1.771 0l-0.002 0c-1.326 0.128-2.358 1.155-2.484 2.458-0.069 0.715-0.704 1.238-1.419 1.169s-1.238-0.704-1.169-1.419c0.248-2.564 2.281-4.55 4.821-4.796 0.761-0.075 1.524-0.075 2.276-0z"></path>
</svg>
