<?xml version="1.0" encoding="UTF-8"?>
<svg xmlns="http://www.w3.org/2000/svg" class="icon size-6 flex-none text-secondary" viewBox="0 0 32 32">
  <style type="text/css">
    .icon {
      fill: #b3bec1;
    }
  </style>
  <path d="M16 4C22.6274 4 28 9.37257 28 16C28 22.6274 22.6274 28 16 28C9.37257 28 4 22.6274 4 16C4 9.37257 9.37257 4 16 4ZM16 6.57143C10.7929 6.57143 6.57143 10.7929 6.57143 16C6.57143 21.2071 10.7929 25.4286 16 25.4286C21.2071 25.4286 25.4286 21.2071 25.4286 16C25.4286 10.7929 21.2071 6.57143 16 6.57143ZM15.1429 9.256C15.9297 9.256 16.5751 9.862 16.6377 10.6326L16.6429 10.756V16.4637L20.7503 16.4646C21.5783 16.4646 22.2503 17.1366 22.2503 17.9646C22.2503 18.7514 21.6443 19.3969 20.8737 19.4594L20.7503 19.4646H15.1429C15.0246 19.4646 14.9089 19.4509 14.7983 19.4251C14.7923 19.4234 14.7863 19.4226 14.7803 19.4209C14.7589 19.4157 14.7374 19.4097 14.7169 19.4037C14.6963 19.3977 14.6731 19.39 14.6517 19.3831C14.6423 19.3797 14.6329 19.3763 14.6234 19.3729C14.596 19.3626 14.5686 19.3514 14.542 19.3403C14.5249 19.3326 14.5094 19.3257 14.4931 19.318C14.476 19.3094 14.458 19.3009 14.4409 19.2914C14.4194 19.2803 14.398 19.2683 14.3766 19.2554C14.3629 19.2477 14.35 19.2391 14.3363 19.2306C14.3209 19.2211 14.3063 19.2109 14.2917 19.2006C14.2711 19.186 14.2506 19.1714 14.2309 19.156C14.218 19.1466 14.2051 19.1363 14.1923 19.126C14.176 19.1131 14.1614 19.1003 14.146 19.0866C14.1306 19.0729 14.1169 19.06 14.1031 19.0463C14.0886 19.0326 14.0749 19.0189 14.062 19.0051C14.0457 18.9889 14.0303 18.9717 14.0149 18.9537C14.0054 18.9426 13.996 18.9314 13.9866 18.9203C13.9729 18.904 13.96 18.8877 13.9471 18.8706C13.9334 18.8526 13.9206 18.8346 13.9069 18.8157C13.8966 18.8011 13.8871 18.7857 13.8769 18.7711C13.8666 18.7549 13.8563 18.7377 13.846 18.7214C13.8357 18.7051 13.8263 18.6863 13.8169 18.6683C13.8066 18.6494 13.7971 18.6297 13.7877 18.61C13.78 18.5929 13.7723 18.5766 13.7646 18.5594C13.7577 18.5431 13.7509 18.5277 13.7449 18.5114C13.7226 18.454 13.7037 18.3949 13.6883 18.3349C13.6583 18.2166 13.6429 18.0931 13.6429 17.9654V10.7569C13.6429 9.92886 14.3149 9.25686 15.1429 9.25686V9.256Z"/>
</svg>