<svg xmlns="http://www.w3.org/2000/svg" class="relative z-10 w-4 animate-spin fill-current" viewBox="0 0 17 16" style="animation-duration: 5s;"><path d="M8.49999 10.88C9.05949 10.88 9.51849 11.311 9.56299 11.8595L9.56649 11.947V13.9335C9.56649 14.5225 9.08899 15.0005 8.49949 15.0005C7.93999 15.0005 7.48099 14.5695 7.43649 14.021L7.43299 13.9335V11.947C7.43299 11.358 7.91049 10.88 8.49949 10.88H8.49999ZM6.46349 10.0365C6.85899 10.432 6.87899 11.0615 6.52299 11.4805L6.46349 11.545L5.05899 12.9495C4.64249 13.366 3.96699 13.366 3.55049 12.9495C3.15499 12.554 3.13499 11.9245 3.49099 11.5055L3.55049 11.441L4.95499 10.0365C5.37149 9.62001 6.04699 9.62001 6.46349 10.0365ZM11.981 9.97701L12.0455 10.0365L13.45 11.441C13.8665 11.8575 13.8665 12.533 13.45 12.9495C13.0545 13.345 12.425 13.365 12.006 13.009L11.9415 12.9495L10.537 11.545C10.1205 11.1285 10.1205 10.453 10.537 10.0365C10.9325 9.64101 11.562 9.62101 11.981 9.97701ZM14.433 6.93301C15.022 6.93301 15.5 7.41051 15.5 7.99951C15.5 8.55901 15.069 9.01801 14.5205 9.06251L14.433 9.06601H12.4465C11.8575 9.06601 11.3795 8.58851 11.3795 7.99951C11.3795 7.44001 11.8105 6.98101 12.359 6.93651L12.4465 6.93301H14.433ZM4.55299 6.93301C5.14199 6.93301 5.61949 7.41051 5.61949 7.99951C5.61949 8.55901 5.18849 9.01801 4.63999 9.06251L4.55249 9.06601H2.56599C1.97699 9.06601 1.49899 8.58851 1.49899 7.99951C1.49899 7.44001 1.92999 6.98101 2.47849 6.93651L2.56599 6.93301H4.55249H4.55299ZM13.4495 3.05051C13.845 3.44601 13.865 4.07551 13.509 4.49451L13.4495 4.55901L12.045 5.96351C11.6285 6.38001 10.953 6.38001 10.5365 5.96351C10.141 5.56801 10.121 4.93851 10.477 4.51951L10.5365 4.45501L11.941 3.05051C12.3575 2.63401 13.033 2.63401 13.4495 3.05051ZM4.99449 2.99101L5.05899 3.05051L6.46349 4.45501C6.87999 4.87151 6.87999 5.54701 6.46349 5.96351C6.06799 6.35901 5.43849 6.37901 5.01949 6.02301L4.95499 5.96351L3.55049 4.55901C3.13399 4.14251 3.13399 3.46701 3.55049 3.05051C3.94599 2.65501 4.57549 2.63501 4.99449 2.99101ZM8.49999 1.00001C9.05949 1.00001 9.51849 1.43101 9.56299 1.97951L9.56649 2.06701V4.05351C9.56649 4.64251 9.08899 5.12001 8.49949 5.12001C7.93999 5.12001 7.48099 4.68901 7.43649 4.14051L7.43299 4.05301V2.06651C7.43299 1.47751 7.91049 0.999512 8.49949 0.999512L8.49999 1.00001Z"></path></svg>