<?xml version="1.0" encoding="UTF-8"?>
<svg xmlns="http://www.w3.org/2000/svg" class="icon size-6 flex-none text-secondary" viewBox="0 0 32 32">
  <style type="text/css">
    .icon {
      fill: #b3bec1;
    }
  </style>
  <path d="M8.728 4.033c2.552 0.016 5.012 0.387 7.34 1.066l-0.189-0.047 2.198 0.586c1.749 0.526 3.763 0.842 5.845 0.872h0.016c0.062 0.001 0.136 0.002 0.21 0.002 1.473 0 2.874-0.305 4.144-0.856l-0.067 0.026c0.169-0.077 0.366-0.123 0.574-0.123 0.578 0 1.074 0.348 1.291 0.846l0.003 0.009c0.077 0.17 0.123 0.369 0.125 0.578v18.193c-0.009 0.471-0.239 0.886-0.59 1.148l-0.004 0.003c-1.467 1.020-3.286 1.63-5.248 1.63-0.159 0-0.317-0.004-0.475-0.012l0.022 0.001c-2.361-0.030-4.626-0.394-6.765-1.049l0.171 0.045-1.194-0.322c-2.208-0.7-4.751-1.123-7.386-1.165h-0.022c-0.097-0.003-0.212-0.004-0.327-0.004-1.683 0-3.293 0.311-4.777 0.877l0.092-0.031c-0.155 0.064-0.335 0.102-0.524 0.102-0.594 0-1.101-0.369-1.304-0.891l-0.003-0.009c-0.064-0.156-0.101-0.337-0.103-0.527v-17.944c0.003-0.451 0.21-0.853 0.532-1.119l0.002-0.002q2.33-1.883 6.411-1.883zM24.635 22.189c-0.852 0.821-1.434 1.917-1.601 3.145l-0.003 0.028q0.425 0 0.879 0c0.080 0.003 0.173 0.005 0.268 0.005 1.152 0 2.247-0.247 3.233-0.691l-0.050 0.020 0.286-0.147v-4.037c-1.199 0.239-2.231 0.837-3.008 1.674l-0.003 0.004zM16.011 7.975c-3.51 0-6.36 3.436-6.36 7.774s2.85 7.869 6.36 7.869 6.367-3.524 6.367-7.862-2.85-7.781-6.367-7.781zM4.325 18.797v4.609l0.432-0.103c1.003-0.232 2.162-0.377 3.352-0.403h1.25l-0.088-0.308c-0.341-1.16-1.047-2.123-1.984-2.781l-0.016-0.011c-0.831-0.564-1.839-0.928-2.927-1.003l-0.019-0.001zM16.714 10.562v0.681c0.575 0.062 1.081 0.314 1.466 0.689v0c0.285 0.338 0.465 0.773 0.483 1.249v0.7h-2.198v-0.659c0-0.432-0.132-0.652-0.403-0.652s-0.41 0.205-0.41 0.601c-0.002 0.029-0.004 0.062-0.004 0.096 0 0.197 0.044 0.383 0.124 0.549l-0.003-0.008c0.092 0.116 0.196 0.218 0.311 0.305l0.004 0.003 1.927 1.238c0.548 0.469 0.893 1.162 0.893 1.934 0 0.062-0.002 0.123-0.007 0.184v-0.008q0 2.279-1.993 2.645h-0.256v0.835h-0.945v-0.791c-0.681-0.037-1.282-0.352-1.697-0.832l-0.003-0.003c-0.318-0.447-0.51-1.003-0.513-1.604v-0.733h2.198v0.894c-0.001 0.027-0.002 0.058-0.002 0.090 0 0.258 0.041 0.507 0.116 0.741l-0.005-0.017c0.045 0.101 0.145 0.17 0.261 0.17 0.011 0 0.022-0.001 0.033-0.002h-0.001c0.293 0 0.44-0.19 0.44-0.586 0.010-0.075 0.016-0.161 0.016-0.249 0-0.489-0.181-0.936-0.48-1.278l0.002 0.002c-0.073-0.066-0.476-0.33-1.194-0.784-0.826-0.488-1.372-1.374-1.372-2.387 0-0.034 0.001-0.068 0.002-0.102v0.005c-0.003-0.040-0.004-0.087-0.004-0.134 0-1.109 0.874-2.014 1.971-2.064h0.005l0.227-0.037v-0.681zM27.646 8.605l-0.396 0.103c-0.813 0.202-1.757 0.334-2.725 0.366l-0.022 0.001h-1.084c0.28 1.002 0.808 1.857 1.514 2.525l0.003 0.002c0.71 0.754 1.634 1.3 2.675 1.539l0.036 0.007zM8.691 6.605h0.037c-0.11-0.005-0.24-0.008-0.37-0.008-1.366 0-2.658 0.319-3.805 0.888l0.050-0.022-0.278 0.161v4.279c1.296-0.249 2.406-0.916 3.21-1.854l0.006-0.007c0.718-0.876 1.154-2.008 1.154-3.241 0-0.069-0.001-0.137-0.004-0.205v0.010z"></path>
</svg>
