<?xml version="1.0" encoding="UTF-8"?>
<svg xmlns="http://www.w3.org/2000/svg" class="icon size-6 flex-none text-secondary" viewBox="0 0 32 32">
  <style type="text/css">
    .icon {
      fill: #b3bec1;
    }
  </style>
  <path d="M17.548 1.415c-0.958-0.553-2.138-0.553-3.096 0l-10.309 5.952c-0.958 0.553-1.548 1.575-1.548 2.681v11.904c0 1.106 0.59 2.128 1.548 2.681l10.309 5.952c0.958 0.553 2.138 0.553 3.096 0l10.309-5.952c0.958-0.553 1.548-1.575 1.548-2.681v-11.904c0-1.106-0.59-2.128-1.548-2.681l-10.309-5.952zM9.9 24.828c0.278-0.037 0.498-0.24 0.566-0.5-0.069 0.26-0.288 0.462-0.566 0.499-0.031 0.004-0.062 0.006-0.092 0.006-0.301 0-0.572-0.201-0.654-0.498l-1.973-7.132v0.002l1.972 7.131c0.082 0.298 0.353 0.499 0.654 0.499 0.031 0 0.061-0.002 0.092-0.006zM6.502 23.052c0.315 0 0.58-0.215 0.657-0.505-0.077 0.291-0.342 0.506-0.657 0.506-0.375 0-0.68-0.304-0.68-0.68v-10.176c0-0.060 0.008-0.118 0.023-0.174-0.015 0.055-0.022 0.113-0.022 0.173v10.176c0 0.375 0.304 0.68 0.68 0.68zM9.13 19.147v-9.036c0-0.059 0.008-0.117 0.022-0.172-0.014 0.055-0.022 0.112-0.022 0.171v9.037zM10.489 24.154l0.309-0.001c0 0 0 0.001-0.309 0.001zM8.82 16.868v-6.756c0-0.546 0.443-0.989 0.989-0.989s0.989 0.443 0.989 0.989v14.042c0 0.495-0.365 0.916-0.857 0.981-0.045 0.006-0.090 0.009-0.133 0.009-0.439 0-0.833-0.292-0.953-0.725l-1.365-4.934v2.889c0 0.546-0.443 0.989-0.989 0.989s-0.989-0.443-0.989-0.989v-10.176c0-0.495 0.365-0.914 0.856-0.98s0.955 0.239 1.087 0.717l1.365 4.934zM20.279 8.549c-0.283 0.467-0.891 0.617-1.358 0.335l-3.183-1.923-2.059 1.23v7.666h4.992c0.546 0 0.989 0.443 0.989 0.989s-0.443 0.989-0.989 0.989h-4.992v8.359c0 0.546-0.443 0.989-0.989 0.989s-0.989-0.443-0.989-0.989v-18.565c0-0.348 0.183-0.671 0.482-0.849l3.052-1.823c0.314-0.188 0.706-0.186 1.019 0.002l3.692 2.231c0.467 0.283 0.618 0.891 0.335 1.359zM12.69 26.874c0.315 0 0.581-0.215 0.657-0.506-0.077 0.291-0.342 0.505-0.657 0.505-0.375 0-0.68-0.304-0.68-0.68v-18.565c0-0.058 0.007-0.115 0.021-0.17-0.014 0.055-0.022 0.112-0.022 0.171v18.565c0 0.375 0.304 0.68 0.68 0.68zM13.37 17.525v0.001h5.301c0.315 0 0.581-0.215 0.657-0.506-0.077 0.291-0.342 0.505-0.657 0.505h-5.301zM13.37 8.014v0.001l2.37-1.416 3.342 2.020c0.321 0.194 0.739 0.091 0.933-0.23 0.036-0.059 0.061-0.122 0.078-0.185-0.016 0.063-0.042 0.125-0.077 0.184-0.194 0.321-0.612 0.424-0.933 0.23l-3.342-2.019-2.37 1.416zM26.344 12.213c-0.186 0.308-0.513 0.478-0.847 0.478-0.175 0-0.352-0.046-0.511-0.143l-0.748-0.452v11.889c0 0.546-0.443 0.989-0.989 0.989s-0.989-0.443-0.989-0.989v-13.084l-1.588-0.96c-0.467-0.282-0.618-0.89-0.335-1.358s0.892-0.617 1.358-0.335l4.315 2.607c0.468 0.282 0.618 0.891 0.335 1.358zM20.831 9.676l1.738 1.050v13.258c0 0.375 0.304 0.68 0.68 0.68 0.315 0 0.581-0.215 0.657-0.506-0.077 0.291-0.342 0.505-0.657 0.505-0.375 0-0.68-0.304-0.68-0.68v-13.258l-1.738-1.050c-0.263-0.159-0.38-0.468-0.307-0.752-0.074 0.284 0.043 0.594 0.306 0.753zM23.928 11.546v0.001l1.218 0.736c0.11 0.067 0.231 0.098 0.351 0.098 0.23 0 0.455-0.117 0.582-0.328v0c0.036-0.059 0.061-0.122 0.077-0.185-0.016 0.063-0.042 0.125-0.077 0.184l-0.001 0.001c-0.128 0.211-0.352 0.327-0.582 0.327-0.12 0-0.241-0.032-0.351-0.098l-1.218-0.736z"></path>
</svg>
