<?xml version="1.0" encoding="UTF-8"?>
<svg xmlns="http://www.w3.org/2000/svg" class="icon size-6 flex-none text-secondary" viewBox="0 0 32 32">
  <style type="text/css">
    .icon {
      fill: #b3bec1;
    }
  </style>
  <path d="M6.175 18.614c0.772 0 1.397 0.657 1.397 1.465v0 7.955c0 0.81-0.625 1.465-1.397 1.465v0h-2.278c-0.772 0-1.397-0.655-1.397-1.465v0-7.955c0-0.808 0.625-1.465 1.397-1.465v0zM17.333 15.646c0.772 0 1.397 0.648 1.397 1.446v0 10.962c0 0.799-0.625 1.446-1.397 1.446v0h-2.278c-0.772 0-1.397-0.648-1.397-1.446v0-10.962c0-0.799 0.625-1.446 1.397-1.446v0zM27.475 12.664c0.836 0 1.514 0.661 1.514 1.476v0 13.884c0 0.816-0.678 1.477-1.514 1.477v0h-2.468c-0.836 0-1.514-0.661-1.514-1.477v0-13.884c0-0.815 0.678-1.476 1.514-1.476v0zM20.96 3.769c0-0.975 1.082-1.586 1.949-1.097v0l5.942 3.347c0.866 0.488 0.866 1.708 0 2.195v0l-5.942 3.347c-0.866 0.488-1.949-0.121-1.949-1.098v0-2.109c-1.202 0.070-2.363 0.462-3.355 1.136l-4.287 2.912c-1.667 1.132-3.649 1.739-5.68 1.739h-3.946c-0.658 0-1.192-0.521-1.192-1.163v-0.981c0-0.641 0.534-1.162 1.192-1.162h3.945c1.339 0 2.647-0.4 3.745-1.148l4.285-2.909c1.561-1.060 3.398-1.66 5.292-1.733z"></path>
</svg>