<?xml version="1.0" encoding="UTF-8"?>
<svg xmlns="http://www.w3.org/2000/svg" class="icon size-6 flex-none text-secondary" viewBox="0 0 32 32">
  <style type="text/css">
    .icon {
      fill: #b3bec1;
    }
  </style>
  <path d="M8.23738 18.0648C8.84729 18.0648 9.34106 18.5839 9.34106 19.2222V25.507C9.34106 26.1469 8.84729 26.6644 8.23738 26.6644H6.43767C5.82776 26.6644 5.33398 26.1469 5.33398 25.507V19.2222C5.33398 18.5839 5.82776 18.0648 6.43767 18.0648H8.23738ZM17.0526 15.72C17.6625 15.72 18.1563 16.2319 18.1563 16.8624V25.5228C18.1563 26.154 17.6625 26.6652 17.0526 26.6652H15.2529C14.643 26.6652 14.1492 26.1532 14.1492 25.5228V16.8624C14.1492 16.2311 14.643 15.72 15.2529 15.72H17.0526ZM25.0652 13.3641C25.7257 13.3641 26.2613 13.8863 26.2613 14.5302V25.4991C26.2613 26.1438 25.7257 26.666 25.0652 26.666H23.1154C22.4549 26.666 21.9193 26.1438 21.9193 25.4991V14.5302C21.9193 13.8863 22.4549 13.3641 23.1154 13.3641H25.0652ZM19.9181 6.33669C19.9181 5.5664 20.7729 5.08369 21.4579 5.47002L26.1523 8.11428C26.8365 8.49982 26.8365 9.46366 26.1523 9.84841L21.4579 12.4927C20.7737 12.8782 19.9181 12.3971 19.9181 11.6252V9.95902C18.9685 10.0143 18.0512 10.324 17.2675 10.8565L13.8806 13.1571C12.5636 14.0514 10.9978 14.531 9.39321 14.531H6.27571C5.75587 14.531 5.33398 14.1194 5.33398 13.6122V12.8371C5.33398 12.3307 5.75587 11.9191 6.27571 11.9191H9.39242C10.4503 11.9191 11.4836 11.6031 12.3511 11.0121L15.7364 8.71392C16.9697 7.87648 18.421 7.40245 19.9173 7.34478L19.9181 6.33669Z"/>
</svg>