<?xml version="1.0" encoding="UTF-8"?>
<svg xmlns="http://www.w3.org/2000/svg" class="icon size-6 flex-none text-secondary" viewBox="0 0 32 32">
  <style type="text/css">
    .icon {
      fill: #b3bec1;
    }
  </style>
  <path d="M4.866 5.169c1.715-1.715 4.246-2.333 7.378-2.333h2.403c0.718 0 1.3 0.582 1.3 1.3s-0.582 1.3-1.3 1.3h-2.403c-2.876 0-4.551 0.583-5.539 1.572s-1.572 2.663-1.572 5.539v7.209c0 2.876 0.583 4.55 1.572 5.539s2.663 1.572 5.539 1.572h7.21c2.876 0 4.55-0.583 5.539-1.572s1.572-2.663 1.572-5.539v-2.403c0-0.718 0.582-1.3 1.3-1.3s1.3 0.582 1.3 1.3v2.403c0 3.132-0.619 5.663-2.333 7.378s-4.245 2.333-7.378 2.333h-7.21c-3.132 0-5.663-0.619-7.378-2.333s-2.333-4.245-2.333-7.378v-7.21c0-3.132 0.618-5.663 2.333-7.378z"></path>
  <path d="M23.256 2.553c1.496-0.147 2.934 0.52 4.302 1.889s2.035 2.806 1.889 4.303c-0.14 1.428-0.997 2.58-1.889 3.472l-9.484 9.483c-0.308 0.298-0.698 0.548-1.064 0.732-0.363 0.182-0.805 0.351-1.243 0.414l-3.623 0.518c-0.996 0.137-1.98-0.133-2.679-0.829-0.701-0.698-0.974-1.683-0.827-2.687l0-0.003 0.516-3.61c0.062-0.442 0.23-0.887 0.414-1.253 0.184-0.367 0.439-0.762 0.747-1.070l9.468-9.468c0.892-0.891 2.044-1.748 3.472-1.889zM23.51 5.141c-0.53 0.052-1.145 0.397-1.887 1.139l-9.468 9.468c-0.053 0.053-0.158 0.192-0.262 0.399s-0.152 0.374-0.162 0.448l-0.518 3.626c-0.045 0.305 0.049 0.43 0.089 0.47 0.043 0.042 0.176 0.138 0.487 0.096l0.003-0 3.61-0.516c0.067-0.009 0.231-0.057 0.443-0.163 0.203-0.102 0.351-0.209 0.418-0.272l9.459-9.459c0.743-0.743 1.087-1.357 1.139-1.887 0.045-0.462-0.105-1.176-1.139-2.21s-1.748-1.185-2.21-1.139z"></path>
  <path d="M18.994 5.467c0.691-0.194 1.409 0.21 1.603 0.901 0.682 2.433 2.587 4.341 5.038 5.036 0.691 0.196 1.092 0.914 0.896 1.605s-0.914 1.092-1.605 0.896c-3.316-0.94-5.905-3.526-6.833-6.836-0.194-0.691 0.209-1.409 0.901-1.603z"></path>
</svg>
