<?xml version="1.0" encoding="UTF-8"?>
<svg xmlns="http://www.w3.org/2000/svg" class="icon size-6 flex-none text-secondary" viewBox="0 0 32 32">
  <style type="text/css">
    .icon {
      fill: #b3bec1;
    }
  </style>
  <path d="M26.12 22.6c1.215 0 2.2 0.985 2.2 2.2s-0.985 2.2-2.2 2.2h-22c-1.215 0-2.2-0.985-2.2-2.2s0.985-2.2 2.2-2.2h22zM10.28 13.8c1.215 0 2.2 0.985 2.2 2.2s-0.985 2.2-2.2 2.2h-6.16c-1.215 0-2.2-0.985-2.2-2.2s0.985-2.2 2.2-2.2h6.16zM10.28 5c1.215 0 2.2 0.985 2.2 2.2s-0.985 2.2-2.2 2.2h-6.16c-1.215 0-2.2-0.985-2.2-2.2s0.985-2.2 2.2-2.2h6.16z"></path>
  <path d="M22.069 9.099c-1.709 0-3.095 1.357-3.095 3.030s1.386 3.030 3.095 3.030c1.709 0 3.095-1.357 3.095-3.030s-1.386-3.030-3.095-3.030zM25.018 5c0.787 0 1.515 0.413 1.908 1.084l2.859 4.874c0.393 0.67 0.393 1.495 0 2.165l-2.859 4.874c-0.393 0.671-1.121 1.084-1.908 1.084h-5.716c-0.787 0-1.515-0.413-1.908-1.084l-2.859-4.874c-0.393-0.67-0.393-1.495 0-2.165l2.859-4.874c0.393-0.671 1.121-1.084 1.908-1.084h5.716z"></path>
</svg>
