<?xml version="1.0" encoding="UTF-8"?>
<svg xmlns="http://www.w3.org/2000/svg" class="icon size-6 flex-none text-secondary" viewBox="0 0 32 32">
  <style type="text/css">
    .icon {
      fill: #b3bec1;
    }
  </style>
  <path d="M26.1137 20.6693C26.6674 23.8341 24.4618 26.132 21.3885 26.6484C18.4196 27.1469 13.5818 27.1469 10.6138 26.6484C7.5397 26.132 5.3341 23.8349 5.88853 20.6702C6.35798 17.9846 8.63481 16.3107 11.4143 16.4548C13.4451 16.56 14.6923 16.8239 16.1371 16.8239C17.5981 16.8239 18.5718 16.5592 20.588 16.4548C23.3674 16.3091 25.6443 17.9838 26.1137 20.6693ZM16.1007 4.66211C19.021 4.66211 21.3885 7.02959 21.3885 9.9499C21.3885 12.8702 19.021 15.2377 16.1007 15.2377C13.1804 15.2377 10.8121 12.8694 10.8121 9.9499C10.8121 7.0304 13.1796 4.66211 16.1007 4.66211Z"/>
</svg>