<svg xmlns="http://www.w3.org/2000/svg" width="24" height="28" viewBox="0 0 24 28" fill="none" class="size-6"><path d="M11.4349 27.9996C17.7041 27.9996 22.7863 22.9174 22.7863 16.6482C22.7863 10.379 17.7041 5.29688 11.4349 5.29688C5.16573 5.29688 0.0835571 10.379 0.0835571 16.6482C0.0835571 22.9174 5.16573 27.9996 11.4349 27.9996Z" fill="#A3B2C9"></path><path d="M16.7691 3.19814V9.21133H6.05347V3.15803C6.05347 2.73501 6.34406 2.3922 6.70276 2.3922C6.84125 2.3922 6.97595 2.44441 7.08871 2.54128L8.57876 3.83533C8.86785 4.08582 9.27422 4.01317 9.48687 3.67263C9.5073 3.63857 9.52622 3.60452 9.54211 3.56668L10.8498 0.548737C11.0133 0.171872 11.4045 0.0227906 11.7238 0.215764C11.8452 0.29168 11.9411 0.402087 11.9993 0.532845L13.3993 3.5803C13.5696 3.95263 13.9638 4.09036 14.2794 3.88906C14.31 3.86959 14.3388 3.84757 14.3657 3.82322L15.7241 2.59198C16.0086 2.33468 16.4157 2.39749 16.6344 2.73274C16.7215 2.86668 16.7691 3.03014 16.7691 3.1989V3.19814Z" fill="#B1D0E9"></path><path d="M11.4114 26.4855C16.828 26.4855 21.219 22.0809 21.219 16.6477C21.219 11.2144 16.828 6.80981 11.4114 6.80981C5.99485 6.80981 1.60385 11.2144 1.60385 16.6477C1.60385 22.0809 5.99485 26.4855 11.4114 26.4855Z" fill="#C9DDE5"></path><mask id="mask0_538_12474" maskUnits="userSpaceOnUse" x="1" y="6" width="21" height="21" style="mask-type: luminance;"><path d="M11.4113 26.4848C16.8278 26.4848 21.2188 22.0802 21.2188 16.6469C21.2188 11.2136 16.8278 6.80908 11.4113 6.80908C5.9947 6.80908 1.6037 11.2136 1.6037 16.6469C1.6037 22.0802 5.9947 26.4848 11.4113 26.4848Z" fill="white"></path></mask><g mask="url(#mask0_538_12474)"><path fill-rule="evenodd" clip-rule="evenodd" d="M-0.848117 28.9444L24.0121 4.34985H-1.75623L-0.848117 28.9444Z" fill="#D7EDF6"></path></g><path d="M11.3905 20.1158L8.73504 20.731C8.68229 20.7432 8.62757 20.7438 8.57455 20.733C8.52153 20.7221 8.47145 20.7 8.4277 20.6682C8.38395 20.6363 8.34753 20.5955 8.32092 20.5484C8.2943 20.5012 8.2781 20.449 8.27342 20.395L8.03655 17.6806L6.63201 15.3452C6.60411 15.2988 6.58652 15.2469 6.58041 15.193C6.57431 15.1392 6.57984 15.0847 6.59663 15.0331C6.61342 14.9816 6.64107 14.9343 6.67773 14.8944C6.71438 14.8545 6.75918 14.823 6.80909 14.8019L9.31774 13.7386L11.1037 11.681C11.1392 11.64 11.1831 11.6071 11.2325 11.5845C11.2818 11.562 11.3355 11.5503 11.3897 11.5503C11.444 11.5503 11.4976 11.562 11.547 11.5845C11.5963 11.6071 11.6403 11.64 11.6758 11.681L13.4617 13.7394L15.9711 14.8019C16.0211 14.823 16.0659 14.8545 16.1025 14.8944C16.1392 14.9343 16.1668 14.9816 16.1836 15.0331C16.2004 15.0847 16.2059 15.1392 16.1998 15.193C16.1937 15.2469 16.1761 15.2988 16.1482 15.3452L14.7429 17.6806L14.5076 20.395C14.5029 20.449 14.4867 20.5014 14.46 20.5486C14.4334 20.5958 14.3969 20.6367 14.353 20.6685C14.3092 20.7004 14.259 20.7225 14.2059 20.7332C14.1528 20.744 14.098 20.7433 14.0452 20.731L11.3905 20.1158Z" fill="#A8CCE9"></path><mask id="mask1_538_12474" maskUnits="userSpaceOnUse" x="6" y="11" width="11" height="10" style="mask-type: luminance;"><path d="M11.3907 20.1165L8.73525 20.7318C8.68251 20.7439 8.62778 20.7445 8.57476 20.7337C8.52174 20.7229 8.47167 20.7008 8.42791 20.6689C8.38416 20.6371 8.34775 20.5962 8.32113 20.5491C8.29452 20.502 8.27832 20.4497 8.27363 20.3958L8.03676 17.6813L6.63222 15.3459C6.60433 15.2995 6.58673 15.2476 6.58063 15.1938C6.57452 15.1399 6.58005 15.0854 6.59684 15.0339C6.61363 14.9824 6.64129 14.9351 6.67794 14.8952C6.7146 14.8552 6.7594 14.8237 6.80931 14.8026L9.31795 13.7393L11.1039 11.6817C11.1394 11.6407 11.1833 11.6078 11.2327 11.5852C11.2821 11.5627 11.3357 11.551 11.39 11.551C11.4442 11.551 11.4978 11.5627 11.5472 11.5852C11.5966 11.6078 11.6405 11.6407 11.676 11.6817L13.462 13.7401L15.9714 14.8026C16.0213 14.8237 16.0661 14.8552 16.1027 14.8952C16.1394 14.9351 16.167 14.9824 16.1838 15.0339C16.2006 15.0854 16.2061 15.1399 16.2 15.1938C16.1939 15.2476 16.1763 15.2995 16.1484 15.3459L14.7431 17.6813L14.5078 20.3958C14.5031 20.4498 14.4869 20.5021 14.4602 20.5493C14.4336 20.5965 14.3971 20.6374 14.3533 20.6693C14.3094 20.7011 14.2592 20.7232 14.2061 20.734C14.153 20.7448 14.0982 20.744 14.0454 20.7318L11.3907 20.1165Z" fill="white"></path></mask><g mask="url(#mask1_538_12474)"><path fill-rule="evenodd" clip-rule="evenodd" d="M-1.70736 29.6895L24.8525 3.49365H-2.67752L-1.70736 29.6895Z" fill="#C0DFF8"></path></g></svg>