<svg xmlns="http://www.w3.org/2000/svg" width="24" height="28" viewBox="0 0 24 28" fill="none" class="size-6"><path d="M11.4347 27.9986C17.7038 27.9986 22.786 22.9164 22.786 16.6472C22.786 10.3781 17.7038 5.2959 11.4347 5.2959C5.16549 5.2959 0.083313 10.3781 0.083313 16.6472C0.083313 22.9164 5.16549 27.9986 11.4347 27.9986Z" fill="#EA9227"></path><path d="M16.7687 3.19765V9.21084H6.05304V3.15755C6.05304 2.73452 6.34363 2.39171 6.70234 2.39171C6.84082 2.39171 6.97553 2.44392 7.08828 2.54079L8.57834 3.83484C8.86742 4.08533 9.2738 4.01268 9.48644 3.67214C9.50688 3.63809 9.5258 3.60403 9.54169 3.56619L10.8494 0.548248C11.0128 0.171383 11.4041 0.0223023 11.7234 0.215275C11.8448 0.291192 11.9407 0.401599 11.9989 0.532356L13.3989 3.57982C13.5691 3.95214 13.9634 4.08987 14.279 3.88857C14.3096 3.8691 14.3384 3.84708 14.3653 3.82273L15.7236 2.59149C16.0082 2.33419 16.4153 2.39701 16.634 2.73225C16.721 2.86619 16.7687 3.02965 16.7687 3.19841V3.19765Z" fill="#FFD805"></path><path d="M11.411 26.4852C16.8276 26.4852 21.2186 22.0807 21.2186 16.6474C21.2186 11.2141 16.8276 6.80957 11.411 6.80957C5.99445 6.80957 1.60345 11.2141 1.60345 16.6474C1.60345 22.0807 5.99445 26.4852 11.411 26.4852Z" fill="#FFB936"></path><mask id="mask0_538_12402" maskUnits="userSpaceOnUse" x="1" y="6" width="21" height="21" style="mask-type: luminance;"><path d="M11.4111 26.4843C16.8277 26.4843 21.2187 22.0797 21.2187 16.6464C21.2187 11.2131 16.8277 6.80859 11.4111 6.80859C5.99454 6.80859 1.60355 11.2131 1.60355 16.6464C1.60355 22.0797 5.99454 26.4843 11.4111 26.4843Z" fill="white"></path></mask><g mask="url(#mask0_538_12402)"><path opacity="0.477" fill-rule="evenodd" clip-rule="evenodd" d="M-0.8483 28.9442L24.0119 4.34961H-1.75641L-0.8483 28.9442Z" fill="#FFEE94" fill-opacity="0.683"></path></g><path d="M11.3898 20.1153L8.73434 20.7306C8.68159 20.7427 8.62686 20.7433 8.57385 20.7325C8.52083 20.7216 8.47075 20.6995 8.427 20.6677C8.38325 20.6359 8.34683 20.595 8.32022 20.5479C8.2936 20.5008 8.2774 20.4485 8.27271 20.3946L8.03585 17.6801L6.63131 15.3447C6.60341 15.2983 6.58581 15.2464 6.57971 15.1925C6.57361 15.1387 6.57914 15.0842 6.59592 15.0327C6.61271 14.9811 6.64037 14.9338 6.67703 14.8939C6.71368 14.854 6.75848 14.8225 6.80839 14.8014L9.31704 13.7381L11.103 11.6805C11.1385 11.6395 11.1824 11.6066 11.2318 11.584C11.2811 11.5615 11.3348 11.5498 11.389 11.5498C11.4433 11.5498 11.4969 11.5615 11.5463 11.584C11.5956 11.6066 11.6396 11.6395 11.6751 11.6805L13.461 13.7389L15.9704 14.8014C16.0204 14.8225 16.0652 14.854 16.1018 14.8939C16.1385 14.9338 16.1661 14.9811 16.1829 15.0327C16.1997 15.0842 16.2052 15.1387 16.1991 15.1925C16.193 15.2464 16.1754 15.2983 16.1475 15.3447L14.7422 17.6801L14.5069 20.3946C14.5022 20.4486 14.486 20.5009 14.4593 20.5481C14.4327 20.5953 14.3962 20.6362 14.3523 20.668C14.3085 20.6999 14.2583 20.722 14.2052 20.7328C14.1521 20.7435 14.0973 20.7428 14.0445 20.7306L11.3898 20.1153Z" fill="#FFD805"></path><mask id="mask1_538_12402" maskUnits="userSpaceOnUse" x="6" y="11" width="11" height="10" style="mask-type: luminance;"><path d="M11.3892 20.1163L8.73376 20.7315C8.68101 20.7436 8.62628 20.7443 8.57327 20.7335C8.52025 20.7226 8.47017 20.7005 8.42642 20.6687C8.38267 20.6368 8.34625 20.596 8.31964 20.5488C8.29302 20.5017 8.27682 20.4494 8.27213 20.3955L8.03527 17.6811L6.63073 15.3457C6.60283 15.2993 6.58523 15.2474 6.57913 15.1935C6.57303 15.1397 6.57856 15.0852 6.59534 15.0336C6.61213 14.9821 6.63979 14.9348 6.67645 14.8949C6.7131 14.855 6.7579 14.8234 6.80781 14.8023L9.31646 13.7391L11.1024 11.6815C11.1379 11.6405 11.1819 11.6076 11.2312 11.585C11.2806 11.5625 11.3342 11.5508 11.3885 11.5508C11.4427 11.5508 11.4964 11.5625 11.5457 11.585C11.5951 11.6076 11.639 11.6405 11.6745 11.6815L13.4605 13.7399L15.9699 14.8023C16.0198 14.8234 16.0646 14.855 16.1012 14.8949C16.1379 14.9348 16.1655 14.9821 16.1823 15.0336C16.1991 15.0852 16.2046 15.1397 16.1985 15.1935C16.1924 15.2474 16.1748 15.2993 16.1469 15.3457L14.7416 17.6811L14.5063 20.3955C14.5016 20.4495 14.4854 20.5019 14.4587 20.5491C14.4321 20.5963 14.3956 20.6372 14.3518 20.669C14.3079 20.7009 14.2577 20.7229 14.2046 20.7337C14.1515 20.7445 14.0967 20.7438 14.0439 20.7315L11.3892 20.1163Z" fill="white"></path></mask><g mask="url(#mask1_538_12402)"><path fill-rule="evenodd" clip-rule="evenodd" d="M-1.70858 29.6891L24.8513 3.49316H-2.67874L-1.70858 29.6891Z" fill="#FFEB73"></path></g></svg>