<?xml version="1.0" encoding="UTF-8"?>
<svg xmlns="http://www.w3.org/2000/svg" class="icon size-6 flex-none text-secondary" viewBox="0 0 32 32">
  <style type="text/css">
    .icon {
      fill: #b3bec1;
    }
  </style>
  <path d="M14.595 19.143v-6.869c0-3.242-2.152-3.969-3.969-3.969-2.559 0-3.969 1.41-3.969 3.969v8.165l2.085 0.003c0.621 0.001 1.123 0.505 1.122 1.125 0 0.198-0.053 0.392-0.152 0.563l-3.523 6.070c-0.303 0.522-0.972 0.699-1.494 0.397-0.164-0.095-0.3-0.231-0.395-0.394l-3.544-6.073c-0.313-0.536-0.132-1.224 0.404-1.537 0.172-0.1 0.367-0.153 0.566-0.153h2.102v-8.165c0-4.136 2.668-6.804 6.796-6.804s6.804 2.668 6.804 6.804v6.869c0 2.631 1.337 3.969 3.969 3.969s3.947-1.301 3.947-3.969v-7.613l-2.050-0.011c-0.638-0.003-1.152-0.523-1.149-1.161 0.001-0.203 0.055-0.402 0.158-0.577l3.477-5.952c0.322-0.551 1.029-0.737 1.58-0.415 0.173 0.101 0.317 0.246 0.418 0.42l3.466 5.999c0.31 0.537 0.126 1.225-0.411 1.535-0.173 0.1-0.369 0.152-0.568 0.151l-2.085-0.011v7.634c0.022 4.194-2.588 6.796-6.782 6.796s-6.804-2.602-6.804-6.796z"></path>
</svg>
