<?xml version="1.0" encoding="UTF-8"?>
<svg xmlns="http://www.w3.org/2000/svg" class="icon size-6 flex-none text-secondary" viewBox="0 0 32 32">
  <style type="text/css">
    .icon {
      fill: #b3bec1;
    }
  </style>
  <path fill-rule="evenodd" clip-rule="evenodd" d="M22.3666 6.30499H9.28917C8.25563 6.30499 7.41778 7.14283 7.41778 8.17637V19.9686C7.41778 21.0021 8.25563 21.84 9.28917 21.84H22.3666C23.4001 21.84 24.238 21.0022 24.238 19.9686V8.17638C24.238 7.14284 23.4001 6.30499 22.3666 6.30499ZM9.28917 4.43359C7.22209 4.43359 5.54639 6.10929 5.54639 8.17637V19.9686C5.54639 22.0357 7.22209 23.7114 9.28917 23.7114H22.3666C24.4337 23.7114 26.1094 22.0357 26.1094 19.9686V8.17638C26.1094 6.10929 24.4337 4.43359 22.3666 4.43359H9.28917Z"/>
  <path d="M6.83154 26.2824C6.83154 25.5726 7.40693 24.9972 8.11672 24.9972H10.6871C11.3969 24.9972 11.9723 25.5726 11.9723 26.2824C11.9723 26.9921 11.3969 27.5675 10.6871 27.5675H8.11672C7.40693 27.5675 6.83154 26.9921 6.83154 26.2824Z"/>
  <path d="M19.6834 26.2824C19.6834 25.5726 20.2588 24.9972 20.9686 24.9972H23.5389C24.2487 24.9972 24.8241 25.5726 24.8241 26.2824C24.8241 26.9921 24.2487 27.5675 23.5389 27.5675H20.9686C20.2588 27.5675 19.6834 26.9921 19.6834 26.2824Z"/>
  <path d="M15.8279 14.073C15.8279 15.4926 14.6771 16.6434 13.2575 16.6434C11.8379 16.6434 10.6871 15.4926 10.6871 14.073C10.6871 12.6534 11.8379 11.5026 13.2575 11.5026C14.6771 11.5026 15.8279 12.6534 15.8279 14.073Z"/>
</svg>