<?xml version="1.0" encoding="UTF-8"?>
<svg xmlns="http://www.w3.org/2000/svg" class="icon size-6 flex-none text-secondary" viewBox="0 0 32 32">
  <style type="text/css">
    .icon {
      fill: #b3bec1;
    }
  </style>
  <path d="M16 1.5c8.008 0 14.5 6.492 14.5 14.5s-6.492 14.5-14.5 14.5c-8.008 0-14.5-6.492-14.5-14.5v0c0-8.008 6.492-14.5 14.5-14.5v0zM22.157 26.128c-1.744 1.073-3.857 1.709-6.118 1.709-0.014 0-0.028 0-0.042 0h0.002c-0.306 0-0.554 0.248-0.554 0.554s0.248 0.554 0.554 0.554v0c0.007 0 0.015 0 0.023 0 2.476 0 4.788-0.699 6.751-1.91l-0.056 0.032c0.193-0.087 0.325-0.278 0.325-0.499 0-0.302-0.245-0.546-0.546-0.546-0.122 0-0.235 0.040-0.326 0.108l0.001-0.001zM4.848 21.511c-0.175 0.095-0.292 0.278-0.292 0.488 0 0.104 0.029 0.201 0.078 0.284l-0.001-0.003c1.084 1.899 2.57 3.454 4.35 4.587l0.053 0.031c0.074 0.039 0.162 0.062 0.254 0.062 0.306 0 0.554-0.248 0.554-0.554 0-0.178-0.084-0.337-0.215-0.438l-0.001-0.001c-1.673-1.083-3.027-2.523-3.979-4.219l-0.031-0.060c-0.096-0.175-0.278-0.291-0.488-0.291-0.098 0-0.189 0.025-0.269 0.070l0.003-0.001zM16 5.641c-5.721 0-10.359 4.638-10.359 10.359s4.638 10.359 10.359 10.359c5.721 0 10.359-4.638 10.359-10.359v0c0-5.721-4.638-10.359-10.359-10.359v0zM16.123 7.749c0.002 0 0.005 0 0.007 0 0.312 0 0.573 0.219 0.639 0.511l0.001 0.004v1.478c1.84 0.213 3.427 1.152 4.491 2.517l0.011 0.015 1.27-0.731c0.097-0.059 0.215-0.094 0.34-0.094 0.235 0 0.441 0.122 0.559 0.307l0.002 0.003c0.052 0.089 0.083 0.195 0.083 0.309 0 0.183-0.080 0.347-0.206 0.46l-0.001 0.001-0.1 0.069-1.278 0.77c0.379 0.776 0.6 1.688 0.6 2.652 0 0.001 0 0.002 0 0.004v0c-0.002 0.89-0.189 1.737-0.524 2.503l0.016-0.041 1.308 0.693c0.201 0.106 0.336 0.314 0.336 0.553 0 0.114-0.030 0.22-0.084 0.312l0.002-0.003c-0.116 0.196-0.325 0.325-0.565 0.325-0.073 0-0.143-0.012-0.209-0.034l0.005 0.001-0.108-0.046-1.301-0.693c-1.077 1.493-2.734 2.511-4.634 2.722l-0.030 0.003v1.362c0 0.002 0 0.005 0 0.008 0 0.361-0.293 0.654-0.654 0.654-0.326 0-0.596-0.239-0.646-0.551v-1.443c-1.916-0.14-3.589-1.075-4.708-2.473l-0.010-0.013-1.124 0.654c-0.097 0.057-0.213 0.091-0.338 0.091-0.235 0-0.442-0.121-0.561-0.304l-0.002-0.003c-0.052-0.088-0.083-0.194-0.083-0.307 0-0.185 0.083-0.351 0.213-0.462l0.001-0.001 0.092-0.069 1.116-0.647c-0.41-0.803-0.651-1.751-0.651-2.755 0-0.936 0.209-1.822 0.582-2.616l-0.016 0.038-1.131-0.608c-0.201-0.106-0.336-0.314-0.336-0.553 0-0.114 0.030-0.22 0.084-0.312l-0.002 0.003c0.119-0.194 0.331-0.322 0.572-0.322 0.070 0 0.138 0.011 0.202 0.031l-0.005-0.001 0.108 0.046 1.139 0.616c1.121-1.503 2.838-2.508 4.795-2.662l0.023-0.001v-1.339c0.012-0.352 0.3-0.633 0.654-0.633 0.019 0 0.038 0.001 0.057 0.002h-0.002zM28.437 15.407c-0.002 0-0.005 0-0.008 0-0.302 0-0.546 0.245-0.546 0.546 0 0 0 0 0 0v0c0 0.015 0 0.033 0 0.051 0 2.013-0.501 3.909-1.386 5.57l0.031-0.064c-0.046 0.079-0.073 0.174-0.073 0.275 0 0.215 0.122 0.401 0.301 0.493l0.003 0.001c0.079 0.046 0.174 0.073 0.275 0.073 0.215 0 0.401-0.122 0.493-0.301l0.001-0.003c0.941-1.75 1.493-3.829 1.493-6.038 0-0.010 0-0.019 0-0.029v0.001c0.001-0.010 0.001-0.021 0.001-0.032 0-0.302-0.245-0.546-0.546-0.546-0.014 0-0.028 0-0.041 0.002h0.002zM13.63 18.194l-1.755 1.008c0.872 1.031 2.118 1.721 3.526 1.861l0.022 0.002v-1.924c-0.708-0.131-1.322-0.468-1.793-0.946v0zM18.547 18.078c-0.463 0.522-1.084 0.895-1.787 1.043l-0.021 0.004v1.924c1.442-0.203 2.677-0.962 3.5-2.049l0.010-0.013zM11.113 14.107c-0.248 0.564-0.393 1.221-0.393 1.913 0 0.004 0 0.008 0 0.012v-0.001c0 0.763 0.173 1.486 0.482 2.131l-0.013-0.030 1.755-1.024c-0.109-0.305-0.172-0.657-0.172-1.024s0.063-0.719 0.179-1.045l-0.007 0.022zM20.803 14.037l-1.662 0.962c0.112 0.306 0.177 0.66 0.177 1.029 0 0.001 0 0.002 0 0.003v0c0.001 0.027 0.001 0.059 0.001 0.091 0 0.299-0.043 0.588-0.122 0.862l0.005-0.022 1.693 0.908c0.224-0.541 0.354-1.169 0.354-1.828 0-0.004 0-0.008 0-0.012v0.001c-0.004-0.724-0.168-1.409-0.459-2.022l0.012 0.029zM4.64 9.689c-1.008 1.803-1.601 3.956-1.601 6.248 0 0.006 0 0.012 0 0.018v-0.001c0 0.306 0.248 0.554 0.554 0.554s0.554-0.248 0.554-0.554v0c0-0.008 0-0.017 0-0.027 0-2.092 0.545-4.056 1.501-5.759l-0.031 0.059c0.044-0.078 0.070-0.171 0.070-0.269 0-0.306-0.248-0.555-0.555-0.555-0.207 0-0.388 0.114-0.483 0.283l-0.001 0.003zM15.415 10.99c-1.49 0.152-2.781 0.9-3.647 1.998l-0.009 0.011 1.786 0.954c0.481-0.525 1.124-0.895 1.85-1.028l0.020-0.003zM16.731 10.99v1.916c0.687 0.149 1.278 0.492 1.73 0.968l0.001 0.001 1.67-0.962c-0.831-1.012-2.018-1.706-3.367-1.89l-0.027-0.003zM22.311 5.194c-0.055 0.086-0.088 0.19-0.088 0.302 0 0.194 0.098 0.365 0.248 0.466l0.002 0.001c1.594 1.049 2.89 2.424 3.818 4.037l0.031 0.058c0.097 0.166 0.274 0.277 0.477 0.277 0.304 0 0.55-0.246 0.55-0.55 0-0.101-0.027-0.195-0.074-0.276l0.001 0.003c-1.051-1.828-2.471-3.332-4.169-4.449l-0.049-0.030c-0.077-0.042-0.168-0.067-0.266-0.067-0.198 0-0.372 0.102-0.472 0.257l-0.001 0.002zM16.023 2.978c-0.007 0-0.016 0-0.025 0-2.421 0-4.686 0.666-6.622 1.826l0.059-0.033c-0.169 0.097-0.281 0.276-0.281 0.482 0 0.106 0.030 0.206 0.082 0.29l-0.001-0.002c0.099 0.167 0.279 0.278 0.485 0.278 0.105 0 0.203-0.029 0.288-0.079l-0.003 0.001c1.719-1.035 3.793-1.647 6.011-1.647 0.006 0 0.011 0 0.017 0h-0.001c0.020 0.002 0.042 0.004 0.065 0.004 0.306 0 0.554-0.248 0.554-0.554s-0.248-0.554-0.554-0.554c-0.023 0-0.046 0.001-0.068 0.004h0.003z"></path>
</svg>
