<?xml version="1.0" encoding="UTF-8"?>
<svg xmlns="http://www.w3.org/2000/svg" class="icon size-6 flex-none text-secondary" viewBox="0 0 32 32">
  <style type="text/css">
    .icon {
      fill: #b3bec1;
    }
  </style>
  <path d="M17.842 4.595l0.001 2.737c0 2.958 2.369 5.368 5.331 5.471l0.199 0.003 2.765-0.001v9.531c0 2.799-2.27 5.069-5.069 5.069h-10.137c-2.799 0-5.069-2.27-5.069-5.069v-12.673c0-2.8 2.27-5.069 5.069-5.069h6.911zM21.548 19.767l-10.801 0.006c-0.581 0.059-1.035 0.544-1.035 1.135 0 0.63 0.516 1.14 1.152 1.14l10.801-0.006c0.581-0.059 1.035-0.544 1.035-1.135 0-0.63-0.516-1.14-1.152-1.14zM21.548 14.293l-10.801 0.006c-0.581 0.059-1.035 0.544-1.035 1.135 0 0.63 0.516 1.14 1.152 1.14l10.801-0.006c0.581-0.059 1.035-0.544 1.035-1.135 0-0.63-0.516-1.14-1.152-1.14zM21.068 4.595c2.799 0 5.069 2.27 5.069 5.069v0.861l-2.765 0.001-0.177-0.005c-1.642-0.088-2.958-1.392-3.044-3.019l-0.005-0.169v-2.737h0.922z"></path>
</svg>
