<?xml version="1.0" encoding="UTF-8"?>
<svg xmlns="http://www.w3.org/2000/svg" class="icon size-6 flex-none text-secondary" viewBox="0 0 32 32">
  <style type="text/css">
    .icon {
      fill: #b3bec1;
    }
  </style>
  <path d="M15.9995 15.3902C10.4833 15.3902 4.03739 14.0461 4.03739 18.1207V21.6393C4.03739 25.7138 10.4824 27.1632 15.9995 27.1632C21.5165 27.1632 27.9615 25.7138 27.9615 21.6393V18.1215C27.9615 13.9063 21.5303 15.3902 15.9995 15.3902ZM15.9995 17.3394C21.3188 17.3394 25.6325 16.0799 25.6325 17.9307C25.6325 19.7815 21.3257 21.3086 15.9995 21.3086C10.6732 21.3086 6.37334 19.8031 6.37334 17.9523C6.37334 16.1015 10.687 17.361 15.9995 17.361V17.3394Z"></path>
  <path d="M15.9994 4.83594C10.4832 4.83594 4.03735 6.27843 4.03735 10.3521V13.8699C4.03735 17.9444 10.4824 19.386 15.9994 19.386C21.5165 19.386 27.9615 17.9435 27.9615 13.8699V10.3521C27.9615 6.27757 21.5303 4.83594 15.9994 4.83594ZM15.9994 6.56676C21.4241 6.56676 25.8508 8.19916 25.8508 10.2114C25.8508 12.2236 21.4249 13.8491 15.9994 13.8491C10.5739 13.8491 6.1903 12.2236 6.1903 10.2114C6.1903 8.19916 10.5886 6.56676 15.9994 6.56676Z"></path>
  <path d="M14.8807 6.80498V7.75457C12.8124 7.90219 11.5736 8.41582 11.5736 9.16168C11.5736 10.1682 13.6281 10.3927 15.4367 10.5688C16.5131 10.681 17.7372 10.8217 17.7372 11.1109C17.7372 11.2447 17.3928 11.47 16.091 11.47C14.6243 11.439 13.2276 11.1843 11.9198 10.738L12.0164 10.7665H11.981L10.7846 11.7445L10.9184 11.7868C12.0829 12.1624 13.4305 12.4144 14.8255 12.4887L14.8652 12.4904V13.4823H16.9759V12.4904C17.9185 12.4412 20.6274 12.2021 20.6274 11.0833C20.6274 10.056 18.566 9.81689 16.7359 9.60539C15.6801 9.4854 14.4767 9.34469 14.4767 9.06327C14.4767 8.96486 14.772 8.76803 15.8838 8.76803C17.1753 8.80515 18.408 8.97522 19.5932 9.26441L19.4724 9.23937H19.5147L20.5489 8.35281L20.662 8.25439H20.5213C19.4828 7.99369 18.2768 7.81931 17.038 7.77011L17.0035 7.76924V6.80498H14.8807Z"></path>
</svg>
