<?xml version="1.0" encoding="UTF-8"?>
<svg xmlns="http://www.w3.org/2000/svg" class="icon size-6 flex-none text-secondary" viewBox="0 0 32 32">
  <style type="text/css">
    .icon {
      fill: #b3bec1;
    }
  </style>
  <path d="M20.8548 6.00098C23.0526 6.00098 24.852 7.75171 24.9409 9.93698L24.9443 10.1056L24.9426 10.8119L25.3528 10.8128C26.7227 10.8128 27.8451 11.8941 27.9181 13.2505L27.9223 13.3915V19.9515C27.9223 21.349 26.8276 22.4941 25.4543 22.5687L25.3109 22.5729L24.9409 22.5738C24.8654 24.4193 23.389 25.9083 21.5527 25.9939L21.3849 25.9981H8.29263C6.02515 25.9981 4.1704 24.192 4.08148 21.9371L4.07812 21.7668V9.69874C4.07812 7.7148 5.64263 6.09074 7.59804 6.00433L7.76162 6.00098H20.8539H20.8548ZM26.3217 16.3762C26.1028 16.4601 25.8696 16.5129 25.6263 16.5314L25.4417 16.5381H21.3883C20.812 16.5381 20.3372 16.981 20.2835 17.5456L20.2785 17.6529V19.8525C20.2785 20.4313 20.7197 20.9078 21.2818 20.9623L21.3883 20.9673H25.31C25.8327 20.9673 26.2638 20.5672 26.3159 20.0555L26.3209 19.9523V16.3762H26.3217ZM22.9226 17.538C23.5593 17.538 24.0761 18.0548 24.0761 18.6923C24.0761 19.3299 23.5593 19.8458 22.9226 19.8458C22.2859 19.8458 21.7691 19.329 21.7691 18.6923C21.7691 18.0548 22.2859 17.538 22.9226 17.538ZM25.3528 12.4184H24.9384L24.9334 14.8041C24.9367 14.8461 24.9393 14.8889 24.9409 14.9316L25.4426 14.9325C25.8956 14.9325 26.2689 14.5869 26.3167 14.1456L26.3217 14.05V13.3931C26.3217 12.8898 25.9392 12.4746 25.451 12.4251L25.352 12.42L25.3528 12.4184ZM20.8548 7.92787H7.76246C6.83047 7.92787 6.06458 8.65769 6.0025 9.57794L5.99831 9.69874V9.95291C5.99831 10.968 6.83467 11.4553 7.65089 11.4956L7.76162 11.4981H21.3849C21.9009 11.4981 22.3933 11.6097 22.837 11.8093L23.0241 11.8999V10.1056C23.0241 8.90516 22.051 7.92787 20.8548 7.92787Z"/>
</svg>