<?xml version="1.0" encoding="UTF-8"?>
<svg xmlns="http://www.w3.org/2000/svg" class="icon size-6 flex-none text-secondary" viewBox="0 0 32 32">
  <style type="text/css">
    .icon {
      fill: #b3bec1;
    }
  </style>
  <path d="M17.7359 5.33398C18.6405 5.33398 19.545 5.67702 20.2353 6.35968L27.4689 13.5242C28.8496 14.892 28.8496 17.1081 27.4689 18.476L20.2353 25.6413C19.545 26.3248 18.6405 26.667 17.7359 26.667C17.1506 26.667 16.566 26.5236 16.0387 26.2378L7.02847 26.2369C5.07607 26.2369 3.49316 24.6694 3.49316 22.7357V12.6017C3.49316 10.6689 5.07607 9.10054 7.02847 9.10054L12.4692 9.09969L15.2366 6.35968C15.8808 5.72225 16.7111 5.38092 17.555 5.33825L17.7359 5.33398ZM17.7359 7.47155C17.3682 7.47155 17.0226 7.6132 16.7623 7.87091L9.5287 15.0362C8.99196 15.5679 8.99196 16.4331 9.5287 16.9647L16.7623 24.1301C17.0226 24.3869 17.3682 24.5294 17.7359 24.5294C18.1037 24.5294 18.4493 24.3869 18.7087 24.1301L25.9423 16.9647C26.4791 16.4331 26.4791 15.5687 25.9423 15.0362L18.7087 7.87091C18.4485 7.6132 18.1029 7.47155 17.7351 7.47155H17.7359ZM17.7359 17.6687C18.6865 17.6687 19.4571 18.4325 19.4571 19.3745C19.4571 20.3166 18.6865 21.0795 17.7359 21.0795C16.7845 21.0795 16.0139 20.3157 16.0139 19.3745C16.0139 18.4333 16.7845 17.6687 17.7359 17.6687ZM17.7359 11.0862C18.6865 11.0862 19.4571 11.8499 19.4571 12.7912C19.4571 13.7324 18.6865 14.4969 17.7359 14.4969C16.7845 14.4969 16.0139 13.7332 16.0139 12.7912C16.0139 11.8491 16.7845 11.0862 17.7359 11.0862Z"></path>
</svg>
