<svg width="64" height="79" viewBox="0 0 64 79" fill="none" xmlns="http://www.w3.org/2000/svg"><g clip-path="url(#clip0_1012_79713)"><rect x="0.334778" y="0.384766" width="62.8305" height="39.4022" rx="3.01589" fill="white"></rect><rect x="0.0145721" y="0.301392" width="63.4331" height="39.5709" fill="white"></rect><g clip-path="url(#clip1_1012_79713)"><rect x="5.66057" y="6.69092" width="26.6231" height="27.688" rx="2.4195" fill="#1765FF" fill-opacity="0.2"></rect><path d="M15.9792 28.6413C16.3311 28.9905 17.3767 29.5213 19.0395 29.5213C20.5765 29.5213 21.6222 29.0736 22.0911 28.6413C21.8184 27.981 21.6128 26.9729 21.7325 25.6718L16.3311 25.6718C16.4509 26.9737 16.2522 27.981 15.9792 28.6413Z" fill="white" stroke="#20252C" stroke-width="0.580772"></path><path d="M17.9873 28.1057L16.6437 27.2332C16.467 27.1185 16.3603 26.922 16.3603 26.7113C16.3603 26.3675 16.639 26.0889 16.9827 26.0889H21.1783C21.4728 26.0889 21.7115 26.3276 21.7115 26.6221C21.7115 26.7974 21.6253 26.9616 21.4809 27.0611L20.0057 28.0779C19.4005 28.495 18.6036 28.506 17.9873 28.1057Z" fill="#20252C" stroke="#20252C" stroke-width="0.471877" stroke-linecap="round"></path><path d="M9.9697 30.3958L15.2744 28.2251C16.06 28.726 16.8528 29.5169 19.0312 29.5169C21.2096 29.5169 22.0024 28.726 22.788 28.2251L28.0927 30.3958C29.0345 30.7812 29.7719 31.5434 30.1259 32.4974L33.4904 41.5641H4.57205L7.9365 32.4974C8.29053 31.5434 9.0279 30.7812 9.9697 30.3958Z" stroke="#20252C" stroke-width="0.580772"></path><path fill-rule="evenodd" clip-rule="evenodd" d="M16.8977 26.5599L15.0443 25.2492C14.3846 24.7826 13.9522 24.0596 13.8533 23.2576L13.6543 21.6442C13.1044 21.7668 12.4577 21.3194 12.1504 20.5721C11.8151 19.7568 12.011 18.8934 12.5879 18.6436C12.807 18.5487 13.0496 18.5561 13.2846 18.6463L13.1909 17.8863L15.219 12.1952H21.4165L24.6121 17.2629L24.4518 18.6754C24.7079 18.5585 24.9769 18.5394 25.2176 18.6436C25.7945 18.8934 25.9904 19.7568 25.6551 20.5721C25.3413 21.3354 24.6732 21.7859 24.1159 21.6355L23.9213 23.3505C23.8369 24.0945 23.4481 24.7703 22.8474 25.2172L21.111 26.5091C20.4919 26.9697 19.7409 27.2185 18.9693 27.2185C18.2273 27.2185 17.5035 26.9884 16.8977 26.5599Z" fill="white"></path><path d="M15.0443 25.2492L14.8766 25.4863L15.0443 25.2492ZM16.8977 26.5599L17.0653 26.3228L16.8977 26.5599ZM13.8533 23.2576L13.5651 23.2932L13.8533 23.2576ZM13.6543 21.6442L13.9425 21.6086L13.9033 21.2911L13.5911 21.3607L13.6543 21.6442ZM12.1504 20.5721L12.419 20.4617H12.419L12.1504 20.5721ZM12.5879 18.6436L12.7033 18.9101H12.7033L12.5879 18.6436ZM13.2846 18.6463L13.1805 18.9174L13.632 19.0908L13.5728 18.6108L13.2846 18.6463ZM13.1909 17.8863L12.9173 17.7888L12.8943 17.8536L12.9027 17.9218L13.1909 17.8863ZM15.219 12.1952V11.9048H15.0142L14.9455 12.0978L15.219 12.1952ZM21.4165 12.1952L21.6621 12.0403L21.5767 11.9048H21.4165V12.1952ZM24.6121 17.2629L24.9006 17.2957L24.9121 17.1943L24.8577 17.108L24.6121 17.2629ZM24.4518 18.6754L24.1633 18.6426L24.1054 19.1526L24.5723 18.9395L24.4518 18.6754ZM25.2176 18.6436L25.333 18.3771H25.333L25.2176 18.6436ZM25.6551 20.5721L25.3866 20.4617L25.6551 20.5721ZM24.1159 21.6355L24.1916 21.3551L23.8655 21.267L23.8274 21.6027L24.1159 21.6355ZM23.9213 23.3505L24.2098 23.3833L23.9213 23.3505ZM22.8474 25.2172L22.674 24.9843L22.8474 25.2172ZM21.111 26.5091L21.2843 26.7421L21.111 26.5091ZM14.8766 25.4863L16.73 26.797L17.0653 26.3228L15.212 25.0121L14.8766 25.4863ZM13.5651 23.2932C13.674 24.1763 14.1502 24.9725 14.8766 25.4863L15.212 25.0121C14.619 24.5928 14.2304 23.9429 14.1415 23.2221L13.5651 23.2932ZM13.3661 21.6797L13.5651 23.2932L14.1415 23.2221L13.9425 21.6086L13.3661 21.6797ZM11.8818 20.6826C12.0543 21.1019 12.3255 21.4467 12.6438 21.6715C12.9606 21.8954 13.3424 22.0113 13.7175 21.9276L13.5911 21.3607C13.4162 21.3997 13.1997 21.3532 12.9789 21.1972C12.7595 21.0422 12.5538 20.7896 12.419 20.4617L11.8818 20.6826ZM12.4725 18.3771C12.0763 18.5487 11.8374 18.9196 11.7439 19.3316C11.6502 19.7448 11.6939 20.2255 11.8818 20.6826L12.419 20.4617C12.2717 20.1035 12.2457 19.7448 12.3103 19.46C12.3752 19.174 12.5226 18.9883 12.7033 18.9101L12.4725 18.3771ZM13.3887 18.3752C13.0956 18.2627 12.7731 18.247 12.4725 18.3771L12.7033 18.9101C12.841 18.8505 13.0036 18.8495 13.1805 18.9174L13.3887 18.3752ZM12.9027 17.9218L12.9964 18.6819L13.5728 18.6108L13.4791 17.8507L12.9027 17.9218ZM14.9455 12.0978L12.9173 17.7888L13.4644 17.9838L15.4925 12.2927L14.9455 12.0978ZM21.4165 11.9048H15.219V12.4856H21.4165V11.9048ZM24.8577 17.108L21.6621 12.0403L21.1709 12.3501L24.3664 17.4178L24.8577 17.108ZM24.7403 18.7081L24.9006 17.2957L24.3235 17.2302L24.1633 18.6426L24.7403 18.7081ZM25.333 18.3771C25.0023 18.2339 24.6463 18.2674 24.3313 18.4112L24.5723 18.9395C24.7695 18.8496 24.9516 18.8449 25.1023 18.9101L25.333 18.3771ZM25.9237 20.6826C26.1117 20.2255 26.1554 19.7448 26.0616 19.3316C25.9682 18.9196 25.7293 18.5487 25.333 18.3771L25.1023 18.9101C25.2829 18.9883 25.4304 19.174 25.4952 19.46C25.5598 19.7448 25.5338 20.1035 25.3866 20.4617L25.9237 20.6826ZM24.0402 21.9158C24.4218 22.0188 24.815 21.9096 25.1411 21.6859C25.4683 21.4615 25.7476 21.1108 25.9237 20.6826L25.3866 20.4617C25.2488 20.7967 25.0371 21.053 24.8126 21.207C24.5868 21.3618 24.3673 21.4026 24.1916 21.3551L24.0402 21.9158ZM24.2098 23.3833L24.4044 21.6682L23.8274 21.6027L23.6328 23.3178L24.2098 23.3833ZM23.0207 25.4502C23.6859 24.9553 24.1163 24.2071 24.2098 23.3833L23.6328 23.3178C23.5574 23.982 23.2103 24.5853 22.674 24.9843L23.0207 25.4502ZM21.2843 26.7421L23.0207 25.4502L22.674 24.9843L20.9376 26.2762L21.2843 26.7421ZM18.9693 27.5088C19.8034 27.5088 20.6152 27.24 21.2843 26.7421L20.9376 26.2762C20.3687 26.6995 19.6785 26.9281 18.9693 26.9281V27.5088ZM16.73 26.797C17.3849 27.2601 18.1672 27.5088 18.9693 27.5088V26.9281C18.2873 26.9281 17.6221 26.7166 17.0653 26.3228L16.73 26.797Z" fill="#20252C"></path><path d="M25.0076 18.2533C25.5389 8.88356 19.8902 8.42248 17.0386 10.2284C11.9701 10.5346 12.0612 16.0176 12.6468 18.4836L13.9016 19.068C13.7186 17.6788 14.2003 15.1149 15.0295 14.026C15.1326 15.461 17.1219 15.6034 17.8267 15.5444C17.7407 15.3507 17.5173 14.6197 17.311 13.2453C18.2135 15.216 20.3441 15.2121 20.9756 15.2617C20.6228 14.7141 20.6202 13.9696 20.6889 13.599C21.0242 14.0201 21.9628 15.0593 23.0355 15.8476C24.1082 16.6359 24.0606 18.4205 23.9575 18.9848C24.0875 18.8878 24.7816 18.4615 25.0076 18.2533Z" fill="#20252C" stroke="#20252C" stroke-width="0.580772"></path><path d="M15.4372 18.0491C15.6528 17.8976 16.2475 17.6856 16.9011 18.0491" stroke="#20252C" stroke-width="0.435579" stroke-linecap="round"></path><path d="M20.0345 23.8724C19.7013 24.1064 18.7824 24.434 17.7724 23.8724" stroke="#20252C" stroke-width="0.435579" stroke-linecap="round"></path><path d="M20.7421 18.0491C20.9577 17.8976 21.5524 17.6856 22.2061 18.0491" stroke="#20252C" stroke-width="0.435579" stroke-linecap="round"></path><path d="M18.3427 21.7784L18.5138 21.8838C18.7397 22.0229 19.0235 22.0277 19.254 21.8963L19.4607 21.7784" stroke="#20252C" stroke-width="0.435579" stroke-linecap="round"></path><path d="M16.5345 19.9827C16.5345 20.1078 16.501 20.2126 16.4564 20.2808C16.4108 20.3506 16.3688 20.3632 16.3486 20.3632C16.3285 20.3632 16.2864 20.3506 16.2408 20.2808C16.1963 20.2126 16.1628 20.1078 16.1628 19.9827C16.1628 19.8576 16.1963 19.7527 16.2408 19.6846C16.2864 19.6148 16.3285 19.6021 16.3486 19.6021C16.3688 19.6021 16.4108 19.6148 16.4564 19.6846C16.501 19.7527 16.5345 19.8576 16.5345 19.9827Z" fill="#20252C" stroke="#20252C" stroke-width="0.362982"></path><path d="M21.5088 19.9827C21.5088 20.1078 21.4753 20.2126 21.4308 20.2808C21.3852 20.3506 21.3431 20.3632 21.3229 20.3632C21.3028 20.3632 21.2607 20.3506 21.2151 20.2808C21.1706 20.2126 21.1371 20.1078 21.1371 19.9827C21.1371 19.8576 21.1706 19.7527 21.2151 19.6846C21.2607 19.6148 21.3028 19.6021 21.3229 19.6021C21.3431 19.6021 21.3852 19.6148 21.4308 19.6846C21.4753 19.7527 21.5088 19.8576 21.5088 19.9827Z" fill="#20252C" stroke="#20252C" stroke-width="0.362982"></path></g><rect x="6.16057" y="7.19092" width="25.6231" height="26.688" rx="1.9195" stroke="#1765FF"></rect><rect x="36.8097" y="17.8669" width="13.092" height="0.532462" rx="0.266231" fill="#1765FF" stroke="#1765FF" stroke-width="0.532462"></rect><rect x="36.8095" y="9.53613" width="20.4316" height="0.532462" rx="0.266231" fill="#1765FF" stroke="#1765FF" stroke-width="0.532462"></rect><rect x="36.8097" y="13.7849" width="20.4316" height="0.532462" rx="0.266231" fill="#1765FF" stroke="#1765FF" stroke-width="0.532462"></rect><rect x="36.5433" y="29.3567" width="6.23291" height="2.12985" rx="1.06492" fill="#1765FF" fill-opacity="0.2"></rect><rect x="43.95" y="29.3567" width="6.23291" height="2.12985" rx="1.06492" fill="#1765FF" fill-opacity="0.2"></rect><rect x="51.2747" y="29.3567" width="6.23291" height="2.12985" rx="1.06492" fill="#1765FF" fill-opacity="0.2"></rect></g><rect x="0.834778" y="0.884766" width="61.8305" height="38.4022" rx="2.51589" stroke="#20252C"></rect><g clip-path="url(#clip2_1012_79713)"><rect x="0.334564" y="38.9788" width="62.8305" height="39.4022" rx="3.01589" fill="white"></rect><rect x="0.0143127" y="38.8953" width="63.4331" height="39.5709" fill="white"></rect><rect x="6.5868" y="48.1302" width="50.6541" height="0.532462" rx="0.266231" fill="#1765FF" stroke="#1765FF" stroke-width="0.532462"></rect><rect x="6.58697" y="52.3789" width="50.6541" height="0.532462" rx="0.266231" fill="#1765FF" stroke="#1765FF" stroke-width="0.532462"></rect><rect x="6.32057" y="67.9507" width="51.1866" height="2.12985" rx="1.06492" fill="#1765FF" fill-opacity="0.2"></rect></g><rect x="0.834564" y="39.4788" width="61.8305" height="38.4022" rx="2.51589" stroke="#20252C"></rect><defs><clipPath id="clip0_1012_79713"><rect x="0.334778" y="0.384766" width="62.8305" height="39.4022" rx="3.01589" fill="white"></rect></clipPath><clipPath id="clip1_1012_79713"><rect x="5.66057" y="6.69092" width="26.6231" height="27.688" rx="2.4195" fill="white"></rect></clipPath><clipPath id="clip2_1012_79713"><rect x="0.334564" y="38.9788" width="62.8305" height="39.4022" rx="3.01589" fill="white"></rect></clipPath></defs></svg>