<svg xmlns="http://www.w3.org/2000/svg" xmlns:xlink="http://www.w3.org/1999/xlink" viewBox="0 0 432 184" width="432" height="184" preserveAspectRatio="xMidYMid meet" style="width: 100%; height: 100%; transform: translate3d(0px, 0px, 0px); content-visibility: visible;"><defs><clipPath id="__lottie_element_60"><rect width="432" height="184" x="0" y="0"></rect></clipPath></defs><g clip-path="url(#__lottie_element_60)"><g style="display: block;" transform="matrix(1,0,0,1,216,92)" opacity="1"><g opacity="1" transform="matrix(1,0,0,1,0,0)"><path fill="rgb(243,245,253)" fill-opacity="1" d=" M-216,-84 C-216,-88.41799926757812 -212.41799926757812,-92 -208,-92 C-208,-92 208,-92 208,-92 C212.41799926757812,-92 216,-88.41799926757812 216,-84 C216,-84 216,84 216,84 C216,88.41899871826172 212.41799926757812,92 208,92 C208,92 -208,92 -208,92 C-212.41799926757812,92 -216,88.41899871826172 -216,84 C-216,84 -216,-84 -216,-84z"></path></g></g><g style="display: block;" transform="matrix(0.999992311000824,-0.000004674885985878063,0.000004674885985878063,0.999992311000824,0.0003956975124310702,0.0027469454798847437)" opacity="1"><g opacity="1" transform="matrix(1,0,0,1,215.45700073242188,83.78500366210938)"></g><g opacity="1" transform="matrix(1,0,0,1,215.4600067138672,83.78500366210938)"><path fill="rgb(255,255,255)" fill-opacity="1" d=" M38.5,-19.079999923706055 C38.5,-19.079999923706055 38.5,19.079999923706055 38.5,19.079999923706055 C38.5,19.43000030517578 38.459999084472656,19.760000228881836 38.400001525878906,20.09000015258789 C38.33000183105469,20.40999984741211 38.22999954223633,20.729999542236328 38.11000061035156,21.030000686645508 C38.040000915527344,21.170000076293945 37.970001220703125,21.31999969482422 37.900001525878906,21.459999084472656 C37.65999984741211,21.889999389648438 37.369998931884766,22.280000686645508 37.029998779296875,22.610000610351562 C36.119998931884766,23.520000457763672 34.880001068115234,24.079999923706055 33.5,24.079999923706055 C33.5,24.079999923706055 -33.5,24.079999923706055 -33.5,24.079999923706055 C-36.2599983215332,24.079999923706055 -38.5,21.84000015258789 -38.5,19.079999923706055 C-38.5,19.079999923706055 -38.5,-19.079999923706055 -38.5,-19.079999923706055 C-38.5,-21.84000015258789 -36.2599983215332,-24.079999923706055 -33.5,-24.079999923706055 C-33.5,-24.079999923706055 33.5,-24.079999923706055 33.5,-24.079999923706055 C34.880001068115234,-24.079999923706055 36.119998931884766,-23.520000457763672 37.029998779296875,-22.610000610351562 C37.369998931884766,-22.280000686645508 37.65999984741211,-21.889999389648438 37.900001525878906,-21.459999084472656 C37.970001220703125,-21.31999969482422 38.040000915527344,-21.170000076293945 38.11000061035156,-21.030000686645508 C38.22999954223633,-20.729999542236328 38.33000183105469,-20.40999984741211 38.400001525878906,-20.09000015258789 C38.459999084472656,-19.760000228881836 38.5,-19.43000030517578 38.5,-19.079999923706055z"></path></g><g opacity="1" transform="matrix(1,0,0,1,215.4600067138672,83.78500366210938)"><path fill="rgb(255,255,255)" fill-opacity="1" d=" M38.5,-19.079999923706055 C38.5,-19.079999923706055 38.5,19.079999923706055 38.5,19.079999923706055 C38.5,19.43000030517578 38.459999084472656,19.760000228881836 38.400001525878906,20.09000015258789 C38.33000183105469,20.40999984741211 38.22999954223633,20.729999542236328 38.11000061035156,21.030000686645508 C38.040000915527344,21.170000076293945 37.970001220703125,21.31999969482422 37.900001525878906,21.459999084472656 C37.65999984741211,21.889999389648438 37.369998931884766,22.280000686645508 37.029998779296875,22.610000610351562 C36.119998931884766,23.520000457763672 34.880001068115234,24.079999923706055 33.5,24.079999923706055 C33.5,24.079999923706055 -33.5,24.079999923706055 -33.5,24.079999923706055 C-36.2599983215332,24.079999923706055 -38.5,21.84000015258789 -38.5,19.079999923706055 C-38.5,19.079999923706055 -38.5,-19.079999923706055 -38.5,-19.079999923706055 C-38.5,-21.84000015258789 -36.2599983215332,-24.079999923706055 -33.5,-24.079999923706055 C-33.5,-24.079999923706055 33.5,-24.079999923706055 33.5,-24.079999923706055 C34.880001068115234,-24.079999923706055 36.119998931884766,-23.520000457763672 37.029998779296875,-22.610000610351562 C37.369998931884766,-22.280000686645508 37.65999984741211,-21.889999389648438 37.900001525878906,-21.459999084472656 C37.970001220703125,-21.31999969482422 38.040000915527344,-21.170000076293945 38.11000061035156,-21.030000686645508 C38.22999954223633,-20.729999542236328 38.33000183105469,-20.40999984741211 38.400001525878906,-20.09000015258789 C38.459999084472656,-19.760000228881836 38.5,-19.43000030517578 38.5,-19.079999923706055z"></path></g><g opacity="1" transform="matrix(1,0,0,1,199.74000549316406,84.33399963378906)"></g><g opacity="1" transform="matrix(1,0,0,1,199.74000549316406,84.33399963378906)"><path fill="rgb(23,101,255)" fill-opacity="0.2" d=" M-13.314000129699707,-16.922000885009766 C-13.314000129699707,-16.922000885009766 13.314000129699707,-16.922000885009766 13.314000129699707,-16.922000885009766 C14.946999549865723,-16.922000885009766 16.270999908447266,-15.597000122070312 16.270999908447266,-13.96399974822998 C16.270999908447266,-13.96399974822998 16.270999908447266,13.96399974822998 16.270999908447266,13.96399974822998 C16.270999908447266,15.597000122070312 14.946999549865723,16.922000885009766 13.314000129699707,16.922000885009766 C13.314000129699707,16.922000885009766 -13.314000129699707,16.922000885009766 -13.314000129699707,16.922000885009766 C-14.946999549865723,16.922000885009766 -16.270999908447266,15.597000122070312 -16.270999908447266,13.96399974822998 C-16.270999908447266,13.96399974822998 -16.270999908447266,-13.96399974822998 -16.270999908447266,-13.96399974822998 C-16.270999908447266,-15.597000122070312 -14.946999549865723,-16.922000885009766 -13.314000129699707,-16.922000885009766z"></path></g><g opacity="1" transform="matrix(1,0,0,1,0,0)"><g opacity="1" transform="matrix(1,0,0,1,199.81399536132812,92.96499633789062)"><path fill="rgb(255,255,255)" fill-opacity="1" d=" M-3.7360000610351562,1.2769999504089355 C-3.305999994277954,1.7039999961853027 -2.0280001163482666,2.3529999256134033 0.004999999888241291,2.3529999256134033 C1.8839999437332153,2.3529999256134033 3.1630001068115234,1.8049999475479126 3.7360000610351562,1.2769999504089355 C3.4030001163482666,0.4699999988079071 3.1500000953674316,-0.7630000114440918 3.296999931335449,-2.3529999256134033 C3.296999931335449,-2.3529999256134033 -3.305000066757202,-2.3529999256134033 -3.305000066757202,-2.3529999256134033 C-3.1579999923706055,-0.7620000243186951 -3.4019999504089355,0.4699999988079071 -3.7360000610351562,1.2769999504089355z"></path></g><g opacity="1" transform="matrix(1,0,0,1,199.81500244140625,92.96499633789062)"><path fill="rgb(32,37,44)" fill-opacity="1" d=" M0.004000000189989805,2.7070000171661377 C-2.2090001106262207,2.7070000171661377 -3.5460000038146973,1.9670000076293945 -3.986999988555908,1.5290000438690186 C-3.986999988555908,1.5290000438690186 -4.156000137329102,1.3609999418258667 -4.156000137329102,1.3609999418258667 C-4.156000137329102,1.3609999418258667 -4.065000057220459,1.1419999599456787 -4.065000057220459,1.1419999599456787 C-3.8440001010894775,0.6069999933242798 -3.497999906539917,-0.5529999732971191 -3.6610000133514404,-2.319999933242798 C-3.6610000133514404,-2.319999933242798 -3.696000099182129,-2.7070000171661377 -3.696000099182129,-2.7070000171661377 C-3.696000099182129,-2.7070000171661377 3.684999942779541,-2.7070000171661377 3.684999942779541,-2.7070000171661377 C3.684999942779541,-2.7070000171661377 3.6489999294281006,-2.319999933242798 3.6489999294281006,-2.319999933242798 C3.486999988555908,-0.5699999928474426 3.8380000591278076,0.6000000238418579 4.061999797821045,1.1419999599456787 C4.061999797821045,1.1419999599456787 4.156000137329102,1.371000051498413 4.156000137329102,1.371000051498413 C4.156000137329102,1.371000051498413 3.9749999046325684,1.5379999876022339 3.9749999046325684,1.5379999876022339 C3.677000045776367,1.812000036239624 2.510999917984009,2.7070000171661377 0.004000000189989805,2.7070000171661377z M-3.315000057220459,1.1679999828338623 C-2.8350000381469727,1.5149999856948853 -1.7269999980926514,1.9980000257492065 0.004000000189989805,1.9980000257492065 C1.6059999465942383,1.9980000257492065 2.7249999046325684,1.590999960899353 3.311000108718872,1.1649999618530273 C3.0899999141693115,0.5429999828338623 2.8329999446868896,-0.5260000228881836 2.9140000343322754,-1.9980000257492065 C2.9140000343322754,-1.9980000257492065 -2.924999952316284,-1.9980000257492065 -2.924999952316284,-1.9980000257492065 C-2.8420000076293945,-0.5139999985694885 -3.0959999561309814,0.5519999861717224 -3.315000057220459,1.1679999828338623z"></path></g></g><g opacity="1" transform="matrix(1,0,0,1,199.8179931640625,92.53399658203125)"><path fill="rgb(32,37,44)" fill-opacity="1" d=" M-1.2829999923706055,1.0540000200271606 C-1.2829999923706055,1.0540000200271606 -2.9240000247955322,-0.013000000268220901 -2.9240000247955322,-0.013000000268220901 C-3.140000104904175,-0.15299999713897705 -3.2709999084472656,-0.3930000066757202 -3.2709999084472656,-0.6510000228881836 C-3.2709999084472656,-1.0709999799728394 -2.930000066757202,-1.4119999408721924 -2.509999990463257,-1.4119999408721924 C-2.509999990463257,-1.4119999408721924 2.618000030517578,-1.4119999408721924 2.618000030517578,-1.4119999408721924 C2.9779999256134033,-1.4119999408721924 3.2699999809265137,-1.1200000047683716 3.2699999809265137,-0.7599999904632568 C3.2699999809265137,-0.5460000038146973 3.1640000343322754,-0.3449999988079071 2.98799991607666,-0.22300000488758087 C2.98799991607666,-0.22300000488758087 1.184000015258789,1.0199999809265137 1.184000015258789,1.0199999809265137 C0.4449999928474426,1.5299999713897705 -0.5289999842643738,1.5429999828338623 -1.2829999923706055,1.0540000200271606z"></path><path stroke-linecap="round" stroke-linejoin="miter" fill-opacity="0" stroke-miterlimit="4" stroke="rgb(32,37,44)" stroke-opacity="1" stroke-width="0.577" d=" M-1.2829999923706055,1.0540000200271606 C-1.2829999923706055,1.0540000200271606 -2.9240000247955322,-0.013000000268220901 -2.9240000247955322,-0.013000000268220901 C-3.140000104904175,-0.15299999713897705 -3.2709999084472656,-0.3930000066757202 -3.2709999084472656,-0.6510000228881836 C-3.2709999084472656,-1.0709999799728394 -2.930000066757202,-1.4119999408721924 -2.509999990463257,-1.4119999408721924 C-2.509999990463257,-1.4119999408721924 2.618000030517578,-1.4119999408721924 2.618000030517578,-1.4119999408721924 C2.9779999256134033,-1.4119999408721924 3.2699999809265137,-1.1200000047683716 3.2699999809265137,-0.7599999904632568 C3.2699999809265137,-0.5460000038146973 3.1640000343322754,-0.3449999988079071 2.98799991607666,-0.22300000488758087 C2.98799991607666,-0.22300000488758087 1.184000015258789,1.0199999809265137 1.184000015258789,1.0199999809265137 C0.4449999928474426,1.5299999713897705 -0.5289999842643738,1.5429999828338623 -1.2829999923706055,1.0540000200271606z"></path></g><g opacity="1" transform="matrix(1,0,0,1,199.8000030517578,97.26000213623047)"><g opacity="1" transform="matrix(1,0,0,1,0,0)"><path fill="rgb(32,37,44)" fill-opacity="1" d=" M14.130000114440918,2.194999933242798 C14.130000114440918,2.194999933242798 13.899999618530273,1.5750000476837158 13.899999618530273,1.5750000476837158 C13.4399995803833,0.3149999976158142 12.460000038146973,-0.6949999928474426 11.220000267028809,-1.2050000429153442 C11.220000267028809,-1.2050000429153442 4.570000171661377,-3.924999952316284 4.570000171661377,-3.924999952316284 C4.570000171661377,-3.924999952316284 4.409999847412109,-3.825000047683716 4.409999847412109,-3.825000047683716 C4.269999980926514,-3.734999895095825 4.130000114440918,-3.6449999809265137 3.990000009536743,-3.5450000762939453 C3.1500000953674316,-2.9649999141693115 2.190000057220459,-2.305000066757202 0.009999999776482582,-2.305000066757202 C-2.1700000762939453,-2.305000066757202 -3.130000114440918,-2.9649999141693115 -3.9700000286102295,-3.5450000762939453 C-4.110000133514404,-3.6449999809265137 -4.25,-3.734999895095825 -4.389999866485596,-3.825000047683716 C-4.389999866485596,-3.825000047683716 -4.550000190734863,-3.924999952316284 -4.550000190734863,-3.924999952316284 C-4.550000190734863,-3.924999952316284 -11.199999809265137,-1.2050000429153442 -11.199999809265137,-1.2050000429153442 C-12.4399995803833,-0.6949999928474426 -13.420000076293945,0.3149999976158142 -13.880000114440918,1.5750000476837158 C-13.880000114440918,1.5750000476837158 -14.140000343322754,2.2750000953674316 -14.140000343322754,2.2750000953674316 C-14.140000343322754,2.2750000953674316 -14.65999984741211,3.684999942779541 -14.65999984741211,3.684999942779541 C-14.449999809265137,3.7950000762939453 -14.229999542236328,3.875 -14,3.924999952316284 C-14,3.924999952316284 -13.470000267028809,2.484999895095825 -13.470000267028809,2.484999895095825 C-13.470000267028809,2.484999895095825 -13.220000267028809,1.815000057220459 -13.220000267028809,1.815000057220459 C-12.819999694824219,0.7450000047683716 -11.989999771118164,-0.11500000208616257 -10.930000305175781,-0.5450000166893005 C-10.930000305175781,-0.5450000166893005 -4.619999885559082,-3.125 -4.619999885559082,-3.125 C-4.539999961853027,-3.075000047683716 -4.460000038146973,-3.015000104904175 -4.369999885559082,-2.9549999237060547 C-3.490000009536743,-2.3550000190734863 -2.390000104904175,-1.5950000286102295 0.009999999776482582,-1.5950000286102295 C2.4100000858306885,-1.5950000286102295 3.509999990463257,-2.3550000190734863 4.389999866485596,-2.9549999237060547 C4.480000019073486,-3.015000104904175 4.559999942779541,-3.075000047683716 4.639999866485596,-3.125 C4.639999866485596,-3.125 10.949999809265137,-0.5450000166893005 10.949999809265137,-0.5450000166893005 C12.010000228881836,-0.11500000208616257 12.84000015258789,0.7450000047683716 13.239999771118164,1.815000057220459 C13.239999771118164,1.815000057220459 13.479999542236328,2.4749999046325684 13.479999542236328,2.4749999046325684 C13.479999542236328,2.4749999046325684 14.010000228881836,3.8949999809265137 14.010000228881836,3.8949999809265137 C14.239999771118164,3.8350000381469727 14.460000038146973,3.744999885559082 14.65999984741211,3.625 C14.65999984741211,3.625 14.130000114440918,2.194999933242798 14.130000114440918,2.194999933242798z"></path></g></g><g opacity="1" transform="matrix(1,0,0,1,199.656005859375,83.32099914550781)"><path fill="rgb(255,255,255)" fill-opacity="1" d=" M-2.4539999961853027,8.376999855041504 C-2.4539999961853027,8.376999855041504 -4.718999862670898,6.775000095367432 -4.718999862670898,6.775000095367432 C-5.525000095367432,6.204999923706055 -6.053999900817871,5.320000171661377 -6.175000190734863,4.340000152587891 C-6.175000190734863,4.340000152587891 -6.418000221252441,2.368000030517578 -6.418000221252441,2.368000030517578 C-7.090000152587891,2.5160000324249268 -7.879000186920166,1.9700000286102295 -8.253999710083008,1.0579999685287476 C-8.663999557495117,0.061000000685453415 -8.425000190734863,-0.9940000176429749 -7.718999862670898,-1.2990000247955322 C-7.452000141143799,-1.4149999618530273 -7.1570000648498535,-1.406000018119812 -6.869999885559082,-1.2970000505447388 C-6.869999885559082,-1.2970000505447388 -6.984000205993652,-2.2249999046325684 -6.984000205993652,-2.2249999046325684 C-6.984000205993652,-2.2249999046325684 -4.505000114440918,-9.182000160217285 -4.505000114440918,-9.182000160217285 C-4.505000114440918,-9.182000160217285 3.069999933242798,-9.182000160217285 3.069999933242798,-9.182000160217285 C3.069999933242798,-9.182000160217285 6.97599983215332,-2.986999988555908 6.97599983215332,-2.986999988555908 C6.97599983215332,-2.986999988555908 6.78000020980835,-1.2589999437332153 6.78000020980835,-1.2589999437332153 C7.093999862670898,-1.402999997138977 7.423999786376953,-1.4270000457763672 7.718999862670898,-1.2990000247955322 C8.423999786376953,-0.9940000176429749 8.663999557495117,0.061000000685453415 8.253999710083008,1.0579999685287476 C7.869999885559082,1.9919999837875366 7.051000118255615,2.5439999103546143 6.369999885559082,2.3570001125335693 C6.369999885559082,2.3570001125335693 6.131999969482422,4.453999996185303 6.131999969482422,4.453999996185303 C6.0279998779296875,5.36299991607666 5.552999973297119,6.190000057220459 4.818999767303467,6.736000061035156 C4.818999767303467,6.736000061035156 2.696000099182129,8.3149995803833 2.696000099182129,8.3149995803833 C1.940000057220459,8.878000259399414 1.0219999551773071,9.182000160217285 0.07900000363588333,9.182000160217285 C-0.828000009059906,9.182000160217285 -1.7130000591278076,8.901000022888184 -2.4539999961853027,8.376999855041504z"></path></g><g opacity="1" transform="matrix(1,0,0,1,199.656005859375,83.32099914550781)"><path fill="rgb(32,37,44)" fill-opacity="1" d=" M-4.718999862670898,6.775000095367432 C-4.718999862670898,6.775000095367432 -4.923999786376953,7.064000129699707 -4.923999786376953,7.064000129699707 C-4.923999786376953,7.064000129699707 -4.718999862670898,6.775000095367432 -4.718999862670898,6.775000095367432z M-2.4539999961853027,8.376999855041504 C-2.4539999961853027,8.376999855041504 -2.249000072479248,8.086999893188477 -2.249000072479248,8.086999893188477 C-2.249000072479248,8.086999893188477 -2.249000072479248,8.086999893188477 -2.249000072479248,8.086999893188477 C-2.249000072479248,8.086999893188477 -2.4539999961853027,8.376999855041504 -2.4539999961853027,8.376999855041504z M-6.175000190734863,4.340000152587891 C-6.175000190734863,4.340000152587891 -6.5269999504089355,4.383999824523926 -6.5269999504089355,4.383999824523926 C-6.5269999504089355,4.383999824523926 -6.175000190734863,4.340000152587891 -6.175000190734863,4.340000152587891z M-6.418000221252441,2.368000030517578 C-6.418000221252441,2.368000030517578 -6.065999984741211,2.325000047683716 -6.065999984741211,2.325000047683716 C-6.065999984741211,2.325000047683716 -6.11299991607666,1.937999963760376 -6.11299991607666,1.937999963760376 C-6.11299991607666,1.937999963760376 -6.49399995803833,2.0220000743865967 -6.49399995803833,2.0220000743865967 C-6.49399995803833,2.0220000743865967 -6.418000221252441,2.368000030517578 -6.418000221252441,2.368000030517578z M-8.253999710083008,1.0579999685287476 C-8.253999710083008,1.0579999685287476 -8.581999778747559,1.1929999589920044 -8.581999778747559,1.1929999589920044 C-8.581999778747559,1.1929999589920044 -8.581999778747559,1.1929999589920044 -8.581999778747559,1.1929999589920044 C-8.581999778747559,1.1929999589920044 -8.253999710083008,1.0579999685287476 -8.253999710083008,1.0579999685287476z M-7.718999862670898,-1.2999999523162842 C-7.718999862670898,-1.2999999523162842 -7.578000068664551,-0.9739999771118164 -7.578000068664551,-0.9739999771118164 C-7.578000068664551,-0.9739999771118164 -7.578000068664551,-0.9739999771118164 -7.578000068664551,-0.9739999771118164 C-7.578000068664551,-0.9739999771118164 -7.718999862670898,-1.2999999523162842 -7.718999862670898,-1.2999999523162842z M-6.869999885559082,-1.2970000505447388 C-6.869999885559082,-1.2970000505447388 -6.997000217437744,-0.9660000205039978 -6.997000217437744,-0.9660000205039978 C-6.997000217437744,-0.9660000205039978 -6.445000171661377,-0.7549999952316284 -6.445000171661377,-0.7549999952316284 C-6.445000171661377,-0.7549999952316284 -6.51800012588501,-1.340999960899353 -6.51800012588501,-1.340999960899353 C-6.51800012588501,-1.340999960899353 -6.869999885559082,-1.2970000505447388 -6.869999885559082,-1.2970000505447388z M-6.984000205993652,-2.2249999046325684 C-6.984000205993652,-2.2249999046325684 -7.318999767303467,-2.3440001010894775 -7.318999767303467,-2.3440001010894775 C-7.318999767303467,-2.3440001010894775 -7.3470001220703125,-2.265000104904175 -7.3470001220703125,-2.265000104904175 C-7.3470001220703125,-2.265000104904175 -7.336999893188477,-2.181999921798706 -7.336999893188477,-2.181999921798706 C-7.336999893188477,-2.181999921798706 -6.984000205993652,-2.2249999046325684 -6.984000205993652,-2.2249999046325684z M-4.505000114440918,-9.182000160217285 C-4.505000114440918,-9.182000160217285 -4.505000114440918,-9.536999702453613 -4.505000114440918,-9.536999702453613 C-4.505000114440918,-9.536999702453613 -4.75600004196167,-9.536999702453613 -4.75600004196167,-9.536999702453613 C-4.75600004196167,-9.536999702453613 -4.840000152587891,-9.300999641418457 -4.840000152587891,-9.300999641418457 C-4.840000152587891,-9.300999641418457 -4.505000114440918,-9.182000160217285 -4.505000114440918,-9.182000160217285z M3.069999933242798,-9.182000160217285 C3.069999933242798,-9.182000160217285 3.369999885559082,-9.371000289916992 3.369999885559082,-9.371000289916992 C3.369999885559082,-9.371000289916992 3.2660000324249268,-9.536999702453613 3.2660000324249268,-9.536999702453613 C3.2660000324249268,-9.536999702453613 3.069999933242798,-9.536999702453613 3.069999933242798,-9.536999702453613 C3.069999933242798,-9.536999702453613 3.069999933242798,-9.182000160217285 3.069999933242798,-9.182000160217285z M6.97599983215332,-2.986999988555908 C6.97599983215332,-2.986999988555908 7.328999996185303,-2.947000026702881 7.328999996185303,-2.947000026702881 C7.328999996185303,-2.947000026702881 7.3429999351501465,-3.071000099182129 7.3429999351501465,-3.071000099182129 C7.3429999351501465,-3.071000099182129 7.276000022888184,-3.177000045776367 7.276000022888184,-3.177000045776367 C7.276000022888184,-3.177000045776367 6.97599983215332,-2.986999988555908 6.97599983215332,-2.986999988555908z M6.78000020980835,-1.2589999437332153 C6.78000020980835,-1.2589999437332153 6.427000045776367,-1.2990000247955322 6.427000045776367,-1.2990000247955322 C6.427000045776367,-1.2990000247955322 6.355999946594238,-0.6740000247955322 6.355999946594238,-0.6740000247955322 C6.355999946594238,-0.6740000247955322 6.927999973297119,-0.9369999766349792 6.927999973297119,-0.9369999766349792 C6.927999973297119,-0.9369999766349792 6.78000020980835,-1.2589999437332153 6.78000020980835,-1.2589999437332153z M7.718999862670898,-1.2999999523162842 C7.718999862670898,-1.2999999523162842 7.860000133514404,-1.625 7.860000133514404,-1.625 C7.860000133514404,-1.625 7.718999862670898,-1.2999999523162842 7.718999862670898,-1.2999999523162842z M8.253999710083008,1.0579999685287476 C8.253999710083008,1.0579999685287476 7.926000118255615,0.9229999780654907 7.926000118255615,0.9229999780654907 C7.926000118255615,0.9229999780654907 8.253999710083008,1.0579999685287476 8.253999710083008,1.0579999685287476z M6.369999885559082,2.3570001125335693 C6.369999885559082,2.3570001125335693 6.4629998207092285,2.0139999389648438 6.4629998207092285,2.0139999389648438 C6.4629998207092285,2.0139999389648438 6.064000129699707,1.9049999713897705 6.064000129699707,1.9049999713897705 C6.064000129699707,1.9049999713897705 6.017000198364258,2.316999912261963 6.017000198364258,2.316999912261963 C6.017000198364258,2.316999912261963 6.369999885559082,2.3570001125335693 6.369999885559082,2.3570001125335693z M6.131999969482422,4.453999996185303 C6.131999969482422,4.453999996185303 6.484000205993652,4.49399995803833 6.484000205993652,4.49399995803833 C6.484000205993652,4.49399995803833 6.131999969482422,4.453999996185303 6.131999969482422,4.453999996185303z M4.818999767303467,6.735000133514404 C4.818999767303467,6.735000133514404 4.60699987411499,6.451000213623047 4.60699987411499,6.451000213623047 C4.60699987411499,6.451000213623047 4.818999767303467,6.735000133514404 4.818999767303467,6.735000133514404z M2.696000099182129,8.3149995803833 C2.696000099182129,8.3149995803833 2.9079999923706055,8.598999977111816 2.9079999923706055,8.598999977111816 C2.9079999923706055,8.598999977111816 2.696000099182129,8.3149995803833 2.696000099182129,8.3149995803833z M-4.923999786376953,7.064000129699707 C-4.923999786376953,7.064000129699707 -2.6579999923706055,8.666000366210938 -2.6579999923706055,8.666000366210938 C-2.6579999923706055,8.666000366210938 -2.249000072479248,8.086999893188477 -2.249000072479248,8.086999893188477 C-2.249000072479248,8.086999893188477 -4.513999938964844,6.485000133514404 -4.513999938964844,6.485000133514404 C-4.513999938964844,6.485000133514404 -4.923999786376953,7.064000129699707 -4.923999786376953,7.064000129699707z M-6.5269999504089355,4.383999824523926 C-6.394000053405762,5.4629998207092285 -5.811999797821045,6.435999870300293 -4.923999786376953,7.064000129699707 C-4.923999786376953,7.064000129699707 -4.513999938964844,6.485000133514404 -4.513999938964844,6.485000133514404 C-5.238999843597412,5.9720001220703125 -5.714000225067139,5.177999973297119 -5.822000026702881,4.296999931335449 C-5.822000026702881,4.296999931335449 -6.5269999504089355,4.383999824523926 -6.5269999504089355,4.383999824523926z M-6.769999980926514,2.4119999408721924 C-6.769999980926514,2.4119999408721924 -6.5269999504089355,4.383999824523926 -6.5269999504089355,4.383999824523926 C-6.5269999504089355,4.383999824523926 -5.822000026702881,4.296999931335449 -5.822000026702881,4.296999931335449 C-5.822000026702881,4.296999931335449 -6.065999984741211,2.325000047683716 -6.065999984741211,2.325000047683716 C-6.065999984741211,2.325000047683716 -6.769999980926514,2.4119999408721924 -6.769999980926514,2.4119999408721924z M-8.581999778747559,1.1929999589920044 C-8.371999740600586,1.7050000429153442 -8.041000366210938,2.125999927520752 -7.6519999504089355,2.4010000228881836 C-7.264999866485596,2.674999952316284 -6.798999786376953,2.815999984741211 -6.341000080108643,2.7149999141693115 C-6.341000080108643,2.7149999141693115 -6.49399995803833,2.0220000743865967 -6.49399995803833,2.0220000743865967 C-6.708000183105469,2.069000005722046 -6.9730000495910645,2.01200008392334 -7.242000102996826,1.8209999799728394 C-7.510000228881836,1.6319999694824219 -7.761000156402588,1.3229999542236328 -7.926000118255615,0.9229999780654907 C-7.926000118255615,0.9229999780654907 -8.581999778747559,1.1929999589920044 -8.581999778747559,1.1929999589920044z M-7.860000133514404,-1.625 C-8.345000267028809,-1.4149999618530273 -8.63700008392334,-0.9629999995231628 -8.75100040435791,-0.45899999141693115 C-8.866000175476074,0.04600000008940697 -8.812000274658203,0.6340000033378601 -8.581999778747559,1.1929999589920044 C-8.581999778747559,1.1929999589920044 -7.926000118255615,0.9229999780654907 -7.926000118255615,0.9229999780654907 C-8.105999946594238,0.48500001430511475 -8.137999534606934,0.04600000008940697 -8.059000015258789,-0.3019999861717224 C-7.979000091552734,-0.6520000100135803 -7.798999786376953,-0.878000020980835 -7.578000068664551,-0.9739999771118164 C-7.578000068664551,-0.9739999771118164 -7.860000133514404,-1.625 -7.860000133514404,-1.625z M-6.743000030517578,-1.628999948501587 C-7.10099983215332,-1.7660000324249268 -7.49399995803833,-1.784000039100647 -7.860000133514404,-1.625 C-7.860000133514404,-1.625 -7.578000068664551,-0.9739999771118164 -7.578000068664551,-0.9739999771118164 C-7.409999847412109,-1.0470000505447388 -7.211999893188477,-1.0479999780654907 -6.997000217437744,-0.9660000205039978 C-6.997000217437744,-0.9660000205039978 -6.743000030517578,-1.628999948501587 -6.743000030517578,-1.628999948501587z M-7.336999893188477,-2.181999921798706 C-7.336999893188477,-2.181999921798706 -7.2220001220703125,-1.253999948501587 -7.2220001220703125,-1.253999948501587 C-7.2220001220703125,-1.253999948501587 -6.51800012588501,-1.340999960899353 -6.51800012588501,-1.340999960899353 C-6.51800012588501,-1.340999960899353 -6.631999969482422,-2.2690000534057617 -6.631999969482422,-2.2690000534057617 C-6.631999969482422,-2.2690000534057617 -7.336999893188477,-2.181999921798706 -7.336999893188477,-2.181999921798706z M-4.840000152587891,-9.300999641418457 C-4.840000152587891,-9.300999641418457 -7.318999767303467,-2.3440001010894775 -7.318999767303467,-2.3440001010894775 C-7.318999767303467,-2.3440001010894775 -6.650000095367432,-2.1059999465942383 -6.650000095367432,-2.1059999465942383 C-6.650000095367432,-2.1059999465942383 -4.171000003814697,-9.062000274658203 -4.171000003814697,-9.062000274658203 C-4.171000003814697,-9.062000274658203 -4.840000152587891,-9.300999641418457 -4.840000152587891,-9.300999641418457z M3.069999933242798,-9.536999702453613 C3.069999933242798,-9.536999702453613 -4.505000114440918,-9.536999702453613 -4.505000114440918,-9.536999702453613 C-4.505000114440918,-9.536999702453613 -4.505000114440918,-8.82699966430664 -4.505000114440918,-8.82699966430664 C-4.505000114440918,-8.82699966430664 3.069999933242798,-8.82699966430664 3.069999933242798,-8.82699966430664 C3.069999933242798,-8.82699966430664 3.069999933242798,-9.536999702453613 3.069999933242798,-9.536999702453613z M7.276000022888184,-3.177000045776367 C7.276000022888184,-3.177000045776367 3.369999885559082,-9.371000289916992 3.369999885559082,-9.371000289916992 C3.369999885559082,-9.371000289916992 2.7699999809265137,-8.991999626159668 2.7699999809265137,-8.991999626159668 C2.7699999809265137,-8.991999626159668 6.676000118255615,-2.7980000972747803 6.676000118255615,-2.7980000972747803 C6.676000118255615,-2.7980000972747803 7.276000022888184,-3.177000045776367 7.276000022888184,-3.177000045776367z M7.132999897003174,-1.218999981880188 C7.132999897003174,-1.218999981880188 7.328999996185303,-2.947000026702881 7.328999996185303,-2.947000026702881 C7.328999996185303,-2.947000026702881 6.623000144958496,-3.0269999504089355 6.623000144958496,-3.0269999504089355 C6.623000144958496,-3.0269999504089355 6.427000045776367,-1.2990000247955322 6.427000045776367,-1.2990000247955322 C6.427000045776367,-1.2990000247955322 7.132999897003174,-1.218999981880188 7.132999897003174,-1.218999981880188z M7.860000133514404,-1.625 C7.454999923706055,-1.8009999990463257 7.01800012588501,-1.7589999437332153 6.631999969482422,-1.5820000171661377 C6.631999969482422,-1.5820000171661377 6.927999973297119,-0.9369999766349792 6.927999973297119,-0.9369999766349792 C7.170000076293945,-1.0479999780654907 7.39300012588501,-1.0540000200271606 7.578000068664551,-0.9739999771118164 C7.578000068664551,-0.9739999771118164 7.860000133514404,-1.625 7.860000133514404,-1.625z M8.581999778747559,1.1929999589920044 C8.812000274658203,0.6340000033378601 8.864999771118164,0.04600000008940697 8.75100040435791,-0.45899999141693115 C8.63700008392334,-0.9629999995231628 8.345000267028809,-1.4149999618530273 7.860000133514404,-1.625 C7.860000133514404,-1.625 7.578000068664551,-0.9739999771118164 7.578000068664551,-0.9739999771118164 C7.798999786376953,-0.878000020980835 7.979000091552734,-0.6520000100135803 8.059000015258789,-0.3019999861717224 C8.137999534606934,0.04600000008940697 8.105999946594238,0.48500001430511475 7.926000118255615,0.9229999780654907 C7.926000118255615,0.9229999780654907 8.581999778747559,1.1929999589920044 8.581999778747559,1.1929999589920044z M6.276000022888184,2.6989998817443848 C6.743000030517578,2.8269999027252197 7.224999904632568,2.693000078201294 7.624000072479248,2.4200000762939453 C8.024999618530273,2.1459999084472656 8.366999626159668,1.7170000076293945 8.581999778747559,1.1929999589920044 C8.581999778747559,1.1929999589920044 7.926000118255615,0.9229999780654907 7.926000118255615,0.9229999780654907 C7.756999969482422,1.3329999446868896 7.498000144958496,1.6469999551773071 7.2230000495910645,1.8350000381469727 C6.947000026702881,2.0239999294281006 6.677999973297119,2.072999954223633 6.4629998207092285,2.0139999389648438 C6.4629998207092285,2.0139999389648438 6.276000022888184,2.6989998817443848 6.276000022888184,2.6989998817443848z M6.484000205993652,4.49399995803833 C6.484000205993652,4.49399995803833 6.7220001220703125,2.3970000743865967 6.7220001220703125,2.3970000743865967 C6.7220001220703125,2.3970000743865967 6.017000198364258,2.316999912261963 6.017000198364258,2.316999912261963 C6.017000198364258,2.316999912261963 5.7789998054504395,4.414000034332275 5.7789998054504395,4.414000034332275 C5.7789998054504395,4.414000034332275 6.484000205993652,4.49399995803833 6.484000205993652,4.49399995803833z M5.031000137329102,7.019999980926514 C5.843999862670898,6.414999961853027 6.369999885559082,5.500999927520752 6.484000205993652,4.49399995803833 C6.484000205993652,4.49399995803833 5.7789998054504395,4.414000034332275 5.7789998054504395,4.414000034332275 C5.686999797821045,5.22599983215332 5.263000011444092,5.9629998207092285 4.60699987411499,6.451000213623047 C4.60699987411499,6.451000213623047 5.031000137329102,7.019999980926514 5.031000137329102,7.019999980926514z M2.9079999923706055,8.598999977111816 C2.9079999923706055,8.598999977111816 5.031000137329102,7.019999980926514 5.031000137329102,7.019999980926514 C5.031000137329102,7.019999980926514 4.60699987411499,6.451000213623047 4.60699987411499,6.451000213623047 C4.60699987411499,6.451000213623047 2.484999895095825,8.029999732971191 2.484999895095825,8.029999732971191 C2.484999895095825,8.029999732971191 2.9079999923706055,8.598999977111816 2.9079999923706055,8.598999977111816z M0.07900000363588333,9.536999702453613 C1.0980000495910645,9.536999702453613 2.0899999141693115,9.208000183105469 2.9079999923706055,8.598999977111816 C2.9079999923706055,8.598999977111816 2.484999895095825,8.029999732971191 2.484999895095825,8.029999732971191 C1.7890000343322754,8.54699993133545 0.9449999928474426,8.82699966430664 0.07900000363588333,8.82699966430664 C0.07900000363588333,8.82699966430664 0.07900000363588333,9.536999702453613 0.07900000363588333,9.536999702453613z M-2.6579999923706055,8.666000366210938 C-1.8580000400543213,9.232000350952148 -0.9020000100135803,9.536999702453613 0.07900000363588333,9.536999702453613 C0.07900000363588333,9.536999702453613 0.07900000363588333,8.82699966430664 0.07900000363588333,8.82699966430664 C-0.7549999952316284,8.82699966430664 -1.5679999589920044,8.567999839782715 -2.249000072479248,8.086999893188477 C-2.249000072479248,8.086999893188477 -2.6579999923706055,8.666000366210938 -2.6579999923706055,8.666000366210938z"></path></g><g opacity="1" transform="matrix(1,0,0,1,199.41600036621094,76.81300354003906)"><g opacity="1" transform="matrix(1,0,0,1,0,0)"><path fill="rgb(32,37,44)" fill-opacity="1" d=" M8.057999610900879,4.751999855041504 C8.057999610900879,4.751999855041504 8.04800033569336,4.892000198364258 8.04800033569336,4.892000198364258 C8.04800033569336,4.892000198364258 7.938000202178955,4.992000102996826 7.938000202178955,4.992000102996826 C7.728000164031982,5.182000160217285 7.26800012588501,5.492000102996826 6.927999973297119,5.711999893188477 C6.788000106811523,5.802000045776367 6.677999973297119,5.872000217437744 6.627999782562256,5.9120001792907715 C6.627999782562256,5.9120001792907715 5.9079999923706055,6.461999893188477 5.9079999923706055,6.461999893188477 C5.9079999923706055,6.461999893188477 6.067999839782715,5.561999797821045 6.067999839782715,5.561999797821045 C6.1579999923706055,5.052000045776367 6.26800012588501,2.9519999027252197 5.078000068664551,2.072000026702881 C4.168000221252441,1.4119999408721924 3.3380000591278076,0.5920000076293945 2.757999897003174,-0.02800000086426735 C2.7980000972747803,0.2720000147819519 2.888000011444092,0.6019999980926514 3.068000078201294,0.8820000290870667 C3.068000078201294,0.8820000290870667 3.4579999446868896,1.4819999933242798 3.4579999446868896,1.4819999933242798 C3.4579999446868896,1.4819999933242798 2.568000078201294,1.4119999408721924 2.568000078201294,1.4119999408721924 C1.8380000591278076,1.371999979019165 0.15800000727176666,1.2619999647140503 -1.0820000171661377,0.10199999809265137 C-0.9319999814033508,0.7820000052452087 -0.8019999861717224,1.1619999408721924 -0.7519999742507935,1.2719999551773071 C-0.7519999742507935,1.2719999551773071 -0.5519999861717224,1.7319999933242798 -0.5519999861717224,1.7319999933242798 C-0.5519999861717224,1.7319999933242798 -1.0520000457763672,1.7719999551773071 -1.0520000457763672,1.7719999551773071 C-1.781999945640564,1.8320000171661377 -3.26200008392334,1.7319999933242798 -4.1519999504089355,0.9819999933242798 C-4.3420000076293945,0.8119999766349792 -4.492000102996826,0.6320000290870667 -4.6020002365112305,0.4320000112056732 C-5.322000026702881,1.8919999599456787 -5.702000141143799,4.311999797821045 -5.521999835968018,5.682000160217285 C-5.521999835968018,5.682000160217285 -5.441999912261963,6.322000026702881 -5.441999912261963,6.322000026702881 C-5.441999912261963,6.322000026702881 -7.711999893188477,5.26200008392334 -7.711999893188477,5.26200008392334 C-7.711999893188477,5.26200008392334 -7.751999855041504,5.0920000076293945 -7.751999855041504,5.0920000076293945 C-8.312000274658203,2.7320001125335693 -8.362000465393066,-0.8379999995231628 -6.6519999504089355,-3.1480000019073486 C-5.631999969482422,-4.51800012588501 -4.122000217437744,-5.288000106811523 -2.1519999504089355,-5.427999973297119 C-0.5519999861717224,-6.4079999923706055 2.1080000400543213,-7.047999858856201 4.447999954223633,-5.668000221252441 C6.297999858856201,-4.578000068664551 8.428000450134277,-1.8880000114440918 8.057999610900879,4.751999855041504z"></path></g></g><g opacity="1" transform="matrix(1,0,0,1,196.31700134277344,81.17400360107422)"><g opacity="1" transform="matrix(1,0,0,1,0,0)"><path fill="rgb(32,37,44)" fill-opacity="1" d=" M0.8939999938011169,0.3880000114440918 C0.8500000238418579,0.3880000114440918 0.8059999942779541,0.37700000405311584 0.7649999856948853,0.3540000021457672 C0.06199999898672104,-0.035999998450279236 -0.5609999895095825,0.20900000631809235 -0.7409999966621399,0.33899998664855957 C-0.8629999756813049,0.421999990940094 -1.027999997138977,0.39399999380111694 -1.1119999885559082,0.2750000059604645 C-1.1970000267028809,0.1550000011920929 -1.1679999828338623,-0.010999999940395355 -1.0479999780654907,-0.09600000083446503 C-0.7279999852180481,-0.32199999690055847 0.11699999868869781,-0.6150000095367432 1.0240000486373901,-0.11100000143051147 C1.1519999504089355,-0.03999999910593033 1.1979999542236328,0.12300000339746475 1.1269999742507935,0.25099998712539673 C1.0779999494552612,0.33899998664855957 0.9869999885559082,0.3880000114440918 0.8939999938011169,0.3880000114440918z"></path></g></g><g opacity="1" transform="matrix(1,0,0,1,199.656005859375,88.60099792480469)"><g opacity="1" transform="matrix(1,0,0,1,0,0)"><path fill="rgb(32,37,44)" fill-opacity="1" d=" M0.026000000536441803,0.4560000002384186 C-0.4410000145435333,0.4560000002384186 -0.968999981880188,0.34700000286102295 -1.5119999647140503,0.04399999976158142 C-1.6399999856948853,-0.027000000700354576 -1.687000036239624,-0.1889999955892563 -1.6150000095367432,-0.3179999887943268 C-1.5429999828338623,-0.4449999928474426 -1.3799999952316284,-0.4909999966621399 -1.253000020980835,-0.41999998688697815 C-0.14900000393390656,0.1940000057220459 0.8539999723434448,-0.1420000046491623 1.2300000190734863,-0.4059999883174896 C1.3489999771118164,-0.49300000071525574 1.5149999856948853,-0.4620000123977661 1.600000023841858,-0.3400000035762787 C1.684000015258789,-0.2199999988079071 1.656000018119812,-0.05400000140070915 1.534999966621399,0.029999999329447746 C1.25600004196167,0.22499999403953552 0.7059999704360962,0.4560000002384186 0.026000000536441803,0.4560000002384186z"></path></g></g><g opacity="1" transform="matrix(1,0,0,1,202.80099487304688,81.17400360107422)"><g opacity="1" transform="matrix(1,0,0,1,0,0)"><path fill="rgb(32,37,44)" fill-opacity="1" d=" M0.8939999938011169,0.3880000114440918 C0.8510000109672546,0.3880000114440918 0.8059999942779541,0.37700000405311584 0.7649999856948853,0.3540000021457672 C-0.07900000363588333,-0.11500000208616257 -0.7360000014305115,0.33399999141693115 -0.7419999837875366,0.33899998664855957 C-0.8619999885559082,0.42399999499320984 -1.027999997138977,0.39399999380111694 -1.1119999885559082,0.2750000059604645 C-1.1959999799728394,0.15399999916553497 -1.1679999828338623,-0.012000000104308128 -1.0470000505447388,-0.09600000083446503 C-0.7269999980926514,-0.32100000977516174 0.11900000274181366,-0.6150000095367432 1.0240000486373901,-0.11100000143051147 C1.1519999504089355,-0.03999999910593033 1.1990000009536743,0.12200000137090683 1.1269999742507935,0.25099998712539673 C1.0789999961853027,0.33799999952316284 0.9879999756813049,0.3880000114440918 0.8939999938011169,0.3880000114440918z"></path></g></g><g opacity="1" transform="matrix(1,0,0,1,199.65499877929688,85.98200225830078)"><g opacity="1" transform="matrix(1,0,0,1,0,0)"><path fill="rgb(32,37,44)" fill-opacity="1" d=" M-0.00800000037997961,0.3970000147819519 C-0.21799999475479126,0.3970000147819519 -0.4269999861717224,0.3400000035762787 -0.6129999756813049,0.22599999606609344 C-0.6129999756813049,0.22599999606609344 -0.8230000138282776,0.09700000286102295 -0.8230000138282776,0.09700000286102295 C-0.9480000138282776,0.020999999716877937 -0.9879999756813049,-0.14300000667572021 -0.9110000133514404,-0.26899999380111694 C-0.8339999914169312,-0.3930000066757202 -0.6700000166893005,-0.4359999895095825 -0.5440000295639038,-0.35600000619888306 C-0.5440000295639038,-0.35600000619888306 -0.33399999141693115,-0.22699999809265137 -0.33399999141693115,-0.22699999809265137 C-0.14100000262260437,-0.1080000028014183 0.10100000351667404,-0.10199999809265137 0.29899999499320984,-0.2160000056028366 C0.29899999499320984,-0.2160000056028366 0.5519999861717224,-0.3610000014305115 0.5519999861717224,-0.3610000014305115 C0.6800000071525574,-0.4339999854564667 0.8420000076293945,-0.3889999985694885 0.9150000214576721,-0.26100000739097595 C0.9879999756813049,-0.1340000033378601 0.9430000185966492,0.028999999165534973 0.8149999976158142,0.10199999809265137 C0.8149999976158142,0.10199999809265137 0.5630000233650208,0.2460000067949295 0.5630000233650208,0.2460000067949295 C0.38600000739097595,0.34700000286102295 0.1889999955892563,0.3970000147819519 -0.00800000037997961,0.3970000147819519z"></path></g></g><g opacity="1" transform="matrix(1,0,0,1,196.53500366210938,83.65899658203125)"><path fill="rgb(32,37,44)" fill-opacity="1" d=" M0.22699999809265137,0 C0.22699999809265137,0.15299999713897705 0.1860000044107437,0.2809999883174896 0.13099999725818634,0.36399999260902405 C0.07599999755620956,0.4490000009536743 0.024000000208616257,0.4650000035762787 0,0.4650000035762787 C-0.02500000037252903,0.4650000035762787 -0.07599999755620956,0.4490000009536743 -0.13199999928474426,0.36399999260902405 C-0.18700000643730164,0.2809999883174896 -0.22699999809265137,0.15299999713897705 -0.22699999809265137,0 C-0.22699999809265137,-0.15299999713897705 -0.18700000643730164,-0.2809999883174896 -0.13199999928474426,-0.36399999260902405 C-0.07599999755620956,-0.4490000009536743 -0.02500000037252903,-0.4650000035762787 0,-0.4650000035762787 C0.024000000208616257,-0.4650000035762787 0.07599999755620956,-0.4490000009536743 0.13099999725818634,-0.36399999260902405 C0.1860000044107437,-0.2809999883174896 0.22699999809265137,-0.15299999713897705 0.22699999809265137,0z"></path><path stroke-linecap="butt" stroke-linejoin="miter" fill-opacity="0" stroke-miterlimit="4" stroke="rgb(32,37,44)" stroke-opacity="1" stroke-width="0.444" d=" M0.22699999809265137,0 C0.22699999809265137,0.15299999713897705 0.1860000044107437,0.2809999883174896 0.13099999725818634,0.36399999260902405 C0.07599999755620956,0.4490000009536743 0.024000000208616257,0.4650000035762787 0,0.4650000035762787 C-0.02500000037252903,0.4650000035762787 -0.07599999755620956,0.4490000009536743 -0.13199999928474426,0.36399999260902405 C-0.18700000643730164,0.2809999883174896 -0.22699999809265137,0.15299999713897705 -0.22699999809265137,0 C-0.22699999809265137,-0.15299999713897705 -0.18700000643730164,-0.2809999883174896 -0.13199999928474426,-0.36399999260902405 C-0.07599999755620956,-0.4490000009536743 -0.02500000037252903,-0.4650000035762787 0,-0.4650000035762787 C0.024000000208616257,-0.4650000035762787 0.07599999755620956,-0.4490000009536743 0.13099999725818634,-0.36399999260902405 C0.1860000044107437,-0.2809999883174896 0.22699999809265137,-0.15299999713897705 0.22699999809265137,0z"></path></g><g opacity="1" transform="matrix(1,0,0,1,202.61700439453125,83.65899658203125)"><path fill="rgb(32,37,44)" fill-opacity="1" d=" M0.22699999809265137,0 C0.22699999809265137,0.15299999713897705 0.1860000044107437,0.2809999883174896 0.13099999725818634,0.36399999260902405 C0.07599999755620956,0.4490000009536743 0.024000000208616257,0.4650000035762787 0,0.4650000035762787 C-0.02500000037252903,0.4650000035762787 -0.07599999755620956,0.4490000009536743 -0.13199999928474426,0.36399999260902405 C-0.18700000643730164,0.2809999883174896 -0.22699999809265137,0.15299999713897705 -0.22699999809265137,0 C-0.22699999809265137,-0.15299999713897705 -0.18700000643730164,-0.2809999883174896 -0.13199999928474426,-0.36399999260902405 C-0.07599999755620956,-0.4490000009536743 -0.02500000037252903,-0.4650000035762787 0,-0.4650000035762787 C0.024000000208616257,-0.4650000035762787 0.07599999755620956,-0.4490000009536743 0.13099999725818634,-0.36399999260902405 C0.1860000044107437,-0.2809999883174896 0.22699999809265137,-0.15299999713897705 0.22699999809265137,0z"></path><path stroke-linecap="butt" stroke-linejoin="miter" fill-opacity="0" stroke-miterlimit="4" stroke="rgb(32,37,44)" stroke-opacity="1" stroke-width="0.444" d=" M0.22699999809265137,0 C0.22699999809265137,0.15299999713897705 0.1860000044107437,0.2809999883174896 0.13099999725818634,0.36399999260902405 C0.07599999755620956,0.4490000009536743 0.024000000208616257,0.4650000035762787 0,0.4650000035762787 C-0.02500000037252903,0.4650000035762787 -0.07599999755620956,0.4490000009536743 -0.13199999928474426,0.36399999260902405 C-0.18700000643730164,0.2809999883174896 -0.22699999809265137,0.15299999713897705 -0.22699999809265137,0 C-0.22699999809265137,-0.15299999713897705 -0.18700000643730164,-0.2809999883174896 -0.13199999928474426,-0.36399999260902405 C-0.07599999755620956,-0.4490000009536743 -0.02500000037252903,-0.4650000035762787 0,-0.4650000035762787 C0.024000000208616257,-0.4650000035762787 0.07599999755620956,-0.4490000009536743 0.13099999725818634,-0.36399999260902405 C0.1860000044107437,-0.2809999883174896 0.22699999809265137,-0.15299999713897705 0.22699999809265137,0z"></path></g><g opacity="1" transform="matrix(1,0,0,1,0,0)"><g opacity="1" transform="matrix(1,0,0,1,229.5489959716797,81.49700164794922)"><path fill="rgb(23,101,255)" fill-opacity="1" d=" M-7.577000141143799,-0.375 C-7.577000141143799,-0.375 7.577000141143799,-0.375 7.577000141143799,-0.375 C7.783999919891357,-0.375 7.952000141143799,-0.2070000022649765 7.952000141143799,0 C7.952000141143799,0 7.952000141143799,0 7.952000141143799,0 C7.952000141143799,0.2070000022649765 7.783999919891357,0.375 7.577000141143799,0.375 C7.577000141143799,0.375 -7.577000141143799,0.375 -7.577000141143799,0.375 C-7.783999919891357,0.375 -7.952000141143799,0.2070000022649765 -7.952000141143799,0 C-7.952000141143799,0 -7.952000141143799,0 -7.952000141143799,0 C-7.952000141143799,-0.2070000022649765 -7.783999919891357,-0.375 -7.577000141143799,-0.375z"></path></g><g opacity="1" transform="matrix(1,0,0,1,229.5489959716797,81.49700164794922)"><path fill="rgb(23,101,255)" fill-opacity="1" d=" M7.577000141143799,0.75 C7.577000141143799,0.75 -7.577000141143799,0.75 -7.577000141143799,0.75 C-7.989999771118164,0.75 -8.32699966430664,0.4129999876022339 -8.32699966430664,0 C-8.32699966430664,-0.4129999876022339 -7.989999771118164,-0.75 -7.577000141143799,-0.75 C-7.577000141143799,-0.75 7.577000141143799,-0.75 7.577000141143799,-0.75 C7.989999771118164,-0.75 8.32699966430664,-0.4129999876022339 8.32699966430664,0 C8.32699966430664,0.4129999876022339 7.989999771118164,0.75 7.577000141143799,0.75z M-7.577000141143799,0 C-7.577000141143799,0 7.577000141143799,0 7.577000141143799,0 C7.577000141143799,0 -7.577000141143799,0 -7.577000141143799,0z"></path></g></g><g opacity="1" transform="matrix(1,0,0,1,0,0)"><g opacity="1" transform="matrix(1,0,0,1,234.03399658203125,71.31400299072266)"><path fill="rgb(23,101,255)" fill-opacity="1" d=" M-12.062000274658203,-0.375 C-12.062000274658203,-0.375 12.062000274658203,-0.375 12.062000274658203,-0.375 C12.269000053405762,-0.375 12.437000274658203,-0.2070000022649765 12.437000274658203,0 C12.437000274658203,0 12.437000274658203,0 12.437000274658203,0 C12.437000274658203,0.2070000022649765 12.269000053405762,0.375 12.062000274658203,0.375 C12.062000274658203,0.375 -12.062000274658203,0.375 -12.062000274658203,0.375 C-12.269000053405762,0.375 -12.437000274658203,0.2070000022649765 -12.437000274658203,0 C-12.437000274658203,0 -12.437000274658203,0 -12.437000274658203,0 C-12.437000274658203,-0.2070000022649765 -12.269000053405762,-0.375 -12.062000274658203,-0.375z"></path></g><g opacity="1" transform="matrix(1,0,0,1,234.03399658203125,71.31400299072266)"><path fill="rgb(23,101,255)" fill-opacity="1" d=" M12.062000274658203,0.75 C12.062000274658203,0.75 -12.062000274658203,0.75 -12.062000274658203,0.75 C-12.475000381469727,0.75 -12.812000274658203,0.4129999876022339 -12.812000274658203,0 C-12.812000274658203,-0.4129999876022339 -12.475000381469727,-0.75 -12.062000274658203,-0.75 C-12.062000274658203,-0.75 12.062000274658203,-0.75 12.062000274658203,-0.75 C12.475000381469727,-0.75 12.812000274658203,-0.4129999876022339 12.812000274658203,0 C12.812000274658203,0.4129999876022339 12.475000381469727,0.75 12.062000274658203,0.75z M-12.062000274658203,0 C-12.062000274658203,0 12.062000274658203,0 12.062000274658203,0 C12.062000274658203,0 -12.062000274658203,0 -12.062000274658203,0z"></path></g></g><g opacity="1" transform="matrix(1,0,0,1,0,0)"><g opacity="1" transform="matrix(1,0,0,1,234.03399658203125,76.50800323486328)"><path fill="rgb(23,101,255)" fill-opacity="1" d=" M-12.062000274658203,-0.375 C-12.062000274658203,-0.375 12.062000274658203,-0.375 12.062000274658203,-0.375 C12.269000053405762,-0.375 12.437000274658203,-0.2070000022649765 12.437000274658203,0 C12.437000274658203,0 12.437000274658203,0 12.437000274658203,0 C12.437000274658203,0.2070000022649765 12.269000053405762,0.375 12.062000274658203,0.375 C12.062000274658203,0.375 -12.062000274658203,0.375 -12.062000274658203,0.375 C-12.269000053405762,0.375 -12.437000274658203,0.2070000022649765 -12.437000274658203,0 C-12.437000274658203,0 -12.437000274658203,0 -12.437000274658203,0 C-12.437000274658203,-0.2070000022649765 -12.269000053405762,-0.375 -12.062000274658203,-0.375z"></path></g><g opacity="1" transform="matrix(1,0,0,1,234.03399658203125,76.50700378417969)"><path fill="rgb(23,101,255)" fill-opacity="1" d=" M12.062000274658203,0.75 C12.062000274658203,0.75 -12.062000274658203,0.75 -12.062000274658203,0.75 C-12.475000381469727,0.75 -12.812000274658203,0.4129999876022339 -12.812000274658203,0 C-12.812000274658203,-0.4129999876022339 -12.475000381469727,-0.75 -12.062000274658203,-0.75 C-12.062000274658203,-0.75 12.062000274658203,-0.75 12.062000274658203,-0.75 C12.475000381469727,-0.75 12.812000274658203,-0.4129999876022339 12.812000274658203,0 C12.812000274658203,0.4129999876022339 12.475000381469727,0.75 12.062000274658203,0.75z M-12.062000274658203,0 C-12.062000274658203,0 12.062000274658203,0 12.062000274658203,0 C12.062000274658203,0 -12.062000274658203,0 -12.062000274658203,0z"></path></g></g><g opacity="1" transform="matrix(1,0,0,1,225.031005859375,96.41799926757812)"><path fill="rgb(23,101,255)" fill-opacity="0.2" d=" M-2.507999897003174,-1.3020000457763672 C-2.507999897003174,-1.3020000457763672 2.507999897003174,-1.3020000457763672 2.507999897003174,-1.3020000457763672 C3.2269999980926514,-1.3020000457763672 3.809000015258789,-0.718999981880188 3.809000015258789,0 C3.809000015258789,0 3.809000015258789,0 3.809000015258789,0 C3.809000015258789,0.718999981880188 3.2269999980926514,1.3020000457763672 2.507999897003174,1.3020000457763672 C2.507999897003174,1.3020000457763672 -2.507999897003174,1.3020000457763672 -2.507999897003174,1.3020000457763672 C-3.2269999980926514,1.3020000457763672 -3.809000015258789,0.718999981880188 -3.809000015258789,0 C-3.809000015258789,0 -3.809000015258789,0 -3.809000015258789,0 C-3.809000015258789,-0.718999981880188 -3.2269999980926514,-1.3020000457763672 -2.507999897003174,-1.3020000457763672z"></path></g><g opacity="1" transform="matrix(1,0,0,1,234.08200073242188,96.41799926757812)"><path fill="rgb(23,101,255)" fill-opacity="0.2" d=" M-2.507999897003174,-1.3020000457763672 C-2.507999897003174,-1.3020000457763672 2.507999897003174,-1.3020000457763672 2.507999897003174,-1.3020000457763672 C3.2269999980926514,-1.3020000457763672 3.809000015258789,-0.718999981880188 3.809000015258789,0 C3.809000015258789,0 3.809000015258789,0 3.809000015258789,0 C3.809000015258789,0.718999981880188 3.2269999980926514,1.3020000457763672 2.507999897003174,1.3020000457763672 C2.507999897003174,1.3020000457763672 -2.507999897003174,1.3020000457763672 -2.507999897003174,1.3020000457763672 C-3.2269999980926514,1.3020000457763672 -3.809000015258789,0.718999981880188 -3.809000015258789,0 C-3.809000015258789,0 -3.809000015258789,0 -3.809000015258789,0 C-3.809000015258789,-0.718999981880188 -3.2269999980926514,-1.3020000457763672 -2.507999897003174,-1.3020000457763672z"></path></g><g opacity="1" transform="matrix(1,0,0,1,243.031005859375,96.41799926757812)"><path fill="rgb(23,101,255)" fill-opacity="0.2" d=" M-2.507999897003174,-1.3020000457763672 C-2.507999897003174,-1.3020000457763672 2.507999897003174,-1.3020000457763672 2.507999897003174,-1.3020000457763672 C3.2269999980926514,-1.3020000457763672 3.809000015258789,-0.718999981880188 3.809000015258789,0 C3.809000015258789,0 3.809000015258789,0 3.809000015258789,0 C3.809000015258789,0.718999981880188 3.2269999980926514,1.3020000457763672 2.507999897003174,1.3020000457763672 C2.507999897003174,1.3020000457763672 -2.507999897003174,1.3020000457763672 -2.507999897003174,1.3020000457763672 C-3.2269999980926514,1.3020000457763672 -3.809000015258789,0.718999981880188 -3.809000015258789,0 C-3.809000015258789,0 -3.809000015258789,0 -3.809000015258789,0 C-3.809000015258789,-0.718999981880188 -3.2269999980926514,-1.3020000457763672 -2.507999897003174,-1.3020000457763672z"></path></g><g opacity="1" transform="matrix(1,0,0,1,215.45700073242188,130.94700622558594)"></g><g opacity="1" transform="matrix(1,0,0,1,215.4600067138672,130.94500732421875)"><path fill="rgb(255,255,255)" fill-opacity="1" d=" M38.5,-19.079999923706055 C38.5,-19.079999923706055 38.5,19.079999923706055 38.5,19.079999923706055 C38.5,19.43000030517578 38.459999084472656,19.760000228881836 38.400001525878906,20.09000015258789 C38.33000183105469,20.40999984741211 38.22999954223633,20.729999542236328 38.11000061035156,21.030000686645508 C38.040000915527344,21.170000076293945 37.970001220703125,21.31999969482422 37.900001525878906,21.459999084472656 C37.65999984741211,21.889999389648438 37.369998931884766,22.280000686645508 37.029998779296875,22.610000610351562 C36.119998931884766,23.520000457763672 34.880001068115234,24.079999923706055 33.5,24.079999923706055 C33.5,24.079999923706055 -33.5,24.079999923706055 -33.5,24.079999923706055 C-36.2599983215332,24.079999923706055 -38.5,21.84000015258789 -38.5,19.079999923706055 C-38.5,19.079999923706055 -38.5,-19.079999923706055 -38.5,-19.079999923706055 C-38.5,-21.84000015258789 -36.2599983215332,-24.079999923706055 -33.5,-24.079999923706055 C-33.5,-24.079999923706055 33.5,-24.079999923706055 33.5,-24.079999923706055 C34.880001068115234,-24.079999923706055 36.119998931884766,-23.520000457763672 37.029998779296875,-22.610000610351562 C37.369998931884766,-22.280000686645508 37.65999984741211,-21.889999389648438 37.900001525878906,-21.459999084472656 C37.970001220703125,-21.31999969482422 38.040000915527344,-21.170000076293945 38.11000061035156,-21.030000686645508 C38.22999954223633,-20.729999542236328 38.33000183105469,-20.40999984741211 38.400001525878906,-20.09000015258789 C38.459999084472656,-19.760000228881836 38.5,-19.43000030517578 38.5,-19.079999923706055z"></path></g><g opacity="1" transform="matrix(1,0,0,1,215.4600067138672,130.94500732421875)"><path fill="rgb(255,255,255)" fill-opacity="1" d=" M38.5,-19.079999923706055 C38.5,-19.079999923706055 38.5,19.079999923706055 38.5,19.079999923706055 C38.5,19.43000030517578 38.459999084472656,19.760000228881836 38.400001525878906,20.09000015258789 C38.33000183105469,20.40999984741211 38.22999954223633,20.729999542236328 38.11000061035156,21.030000686645508 C38.040000915527344,21.170000076293945 37.970001220703125,21.31999969482422 37.900001525878906,21.459999084472656 C37.65999984741211,21.889999389648438 37.369998931884766,22.280000686645508 37.029998779296875,22.610000610351562 C36.119998931884766,23.520000457763672 34.880001068115234,24.079999923706055 33.5,24.079999923706055 C33.5,24.079999923706055 -33.5,24.079999923706055 -33.5,24.079999923706055 C-36.2599983215332,24.079999923706055 -38.5,21.84000015258789 -38.5,19.079999923706055 C-38.5,19.079999923706055 -38.5,-19.079999923706055 -38.5,-19.079999923706055 C-38.5,-21.84000015258789 -36.2599983215332,-24.079999923706055 -33.5,-24.079999923706055 C-33.5,-24.079999923706055 33.5,-24.079999923706055 33.5,-24.079999923706055 C34.880001068115234,-24.079999923706055 36.119998931884766,-23.520000457763672 37.029998779296875,-22.610000610351562 C37.369998931884766,-22.280000686645508 37.65999984741211,-21.889999389648438 37.900001525878906,-21.459999084472656 C37.970001220703125,-21.31999969482422 38.040000915527344,-21.170000076293945 38.11000061035156,-21.030000686645508 C38.22999954223633,-20.729999542236328 38.33000183105469,-20.40999984741211 38.400001525878906,-20.09000015258789 C38.459999084472656,-19.760000228881836 38.5,-19.43000030517578 38.5,-19.079999923706055z"></path></g><g opacity="1" transform="matrix(1,0,0,1,0,0)"><g opacity="1" transform="matrix(1,0,0,1,215.54100036621094,118.47899627685547)"><path fill="rgb(23,101,255)" fill-opacity="1" d=" M-30.533000946044922,-0.375 C-30.533000946044922,-0.375 30.533000946044922,-0.375 30.533000946044922,-0.375 C30.739999771118164,-0.375 30.908000946044922,-0.2070000022649765 30.908000946044922,0 C30.908000946044922,0 30.908000946044922,0 30.908000946044922,0 C30.908000946044922,0.2070000022649765 30.739999771118164,0.375 30.533000946044922,0.375 C30.533000946044922,0.375 -30.533000946044922,0.375 -30.533000946044922,0.375 C-30.739999771118164,0.375 -30.908000946044922,0.2070000022649765 -30.908000946044922,0 C-30.908000946044922,0 -30.908000946044922,0 -30.908000946044922,0 C-30.908000946044922,-0.2070000022649765 -30.739999771118164,-0.375 -30.533000946044922,-0.375z"></path></g><g opacity="1" transform="matrix(1,0,0,1,215.54100036621094,118.47899627685547)"><path fill="rgb(23,101,255)" fill-opacity="1" d=" M30.533000946044922,0.75 C30.533000946044922,0.75 -30.533000946044922,0.75 -30.533000946044922,0.75 C-30.94700050354004,0.75 -31.283000946044922,0.4129999876022339 -31.283000946044922,0 C-31.283000946044922,-0.4129999876022339 -30.94700050354004,-0.75 -30.533000946044922,-0.75 C-30.533000946044922,-0.75 30.533000946044922,-0.75 30.533000946044922,-0.75 C30.945999145507812,-0.75 31.283000946044922,-0.4129999876022339 31.283000946044922,0 C31.283000946044922,0.4129999876022339 30.945999145507812,0.75 30.533000946044922,0.75z M-30.533000946044922,0 C-30.533000946044922,0 30.533000946044922,0 30.533000946044922,0 C30.533000946044922,0 -30.533000946044922,0 -30.533000946044922,0z"></path></g></g><g opacity="1" transform="matrix(1,0,0,1,0,0)"><g opacity="1" transform="matrix(1,0,0,1,215.54100036621094,123.6729965209961)"><path fill="rgb(23,101,255)" fill-opacity="1" d=" M-30.533000946044922,-0.375 C-30.533000946044922,-0.375 30.533000946044922,-0.375 30.533000946044922,-0.375 C30.739999771118164,-0.375 30.908000946044922,-0.2070000022649765 30.908000946044922,0 C30.908000946044922,0 30.908000946044922,0 30.908000946044922,0 C30.908000946044922,0.2070000022649765 30.739999771118164,0.375 30.533000946044922,0.375 C30.533000946044922,0.375 -30.533000946044922,0.375 -30.533000946044922,0.375 C-30.739999771118164,0.375 -30.908000946044922,0.2070000022649765 -30.908000946044922,0 C-30.908000946044922,0 -30.908000946044922,0 -30.908000946044922,0 C-30.908000946044922,-0.2070000022649765 -30.739999771118164,-0.375 -30.533000946044922,-0.375z"></path></g><g opacity="1" transform="matrix(1,0,0,1,215.54100036621094,123.6729965209961)"><path fill="rgb(23,101,255)" fill-opacity="1" d=" M30.533000946044922,0.75 C30.533000946044922,0.75 -30.533000946044922,0.75 -30.533000946044922,0.75 C-30.94700050354004,0.75 -31.283000946044922,0.4129999876022339 -31.283000946044922,0 C-31.283000946044922,-0.4129999876022339 -30.94700050354004,-0.75 -30.533000946044922,-0.75 C-30.533000946044922,-0.75 30.533000946044922,-0.75 30.533000946044922,-0.75 C30.945999145507812,-0.75 31.283000946044922,-0.4129999876022339 31.283000946044922,0 C31.283000946044922,0.4129999876022339 30.945999145507812,0.75 30.533000946044922,0.75z M-30.533000946044922,0 C-30.533000946044922,0 30.533000946044922,0 30.533000946044922,0 C30.533000946044922,0 -30.533000946044922,0 -30.533000946044922,0z"></path></g></g><g opacity="1" transform="matrix(1,0,0,1,215.55599975585938,143.58200073242188)"><g opacity="1" transform="matrix(1,0,0,1,0,0)"><path fill="rgb(23,101,255)" fill-opacity="0.2" d=" M-29.98200035095215,-1.3020000457763672 C-29.98200035095215,-1.3020000457763672 29.98200035095215,-1.3020000457763672 29.98200035095215,-1.3020000457763672 C30.701000213623047,-1.3020000457763672 31.283000946044922,-0.718999981880188 31.283000946044922,0 C31.283000946044922,0 31.283000946044922,0 31.283000946044922,0 C31.283000946044922,0.718999981880188 30.701000213623047,1.3020000457763672 29.98200035095215,1.3020000457763672 C29.98200035095215,1.3020000457763672 -29.98200035095215,1.3020000457763672 -29.98200035095215,1.3020000457763672 C-30.701000213623047,1.3020000457763672 -31.283000946044922,0.718999981880188 -31.283000946044922,0 C-31.283000946044922,0 -31.283000946044922,0 -31.283000946044922,0 C-31.283000946044922,-0.718999981880188 -30.701000213623047,-1.3020000457763672 -29.98200035095215,-1.3020000457763672z"></path></g></g><g opacity="1" transform="matrix(1,0,0,1,215.4600067138672,130.94500732421875)"><path fill="rgb(32,37,44)" fill-opacity="1" d=" M38.400001525878906,-20.09000015258789 C38.33000183105469,-20.40999984741211 38.22999954223633,-20.729999542236328 38.11000061035156,-21.030000686645508 C38.040000915527344,-21.170000076293945 37.970001220703125,-21.31999969482422 37.900001525878906,-21.459999084472656 C37.65999984741211,-21.889999389648438 37.369998931884766,-22.270000457763672 37.029998779296875,-22.610000610351562 C36.119998931884766,-23.520000457763672 34.880001068115234,-24.079999923706055 33.5,-24.079999923706055 C33.5,-24.079999923706055 -33.5,-24.079999923706055 -33.5,-24.079999923706055 C-36.2599983215332,-24.079999923706055 -38.5,-21.84000015258789 -38.5,-19.079999923706055 C-38.5,-19.079999923706055 -38.5,19.079999923706055 -38.5,19.079999923706055 C-38.5,21.84000015258789 -36.2599983215332,24.079999923706055 -33.5,24.079999923706055 C-33.5,24.079999923706055 33.5,24.079999923706055 33.5,24.079999923706055 C34.880001068115234,24.079999923706055 36.119998931884766,23.520000457763672 37.029998779296875,22.610000610351562 C37.369998931884766,22.270000457763672 37.65999984741211,21.889999389648438 37.900001525878906,21.459999084472656 C37.970001220703125,21.31999969482422 38.040000915527344,21.170000076293945 38.11000061035156,21.030000686645508 C38.22999954223633,20.729999542236328 38.33000183105469,20.40999984741211 38.400001525878906,20.09000015258789 C38.459999084472656,19.760000228881836 38.5,19.43000030517578 38.5,19.079999923706055 C38.5,19.079999923706055 38.5,-19.079999923706055 38.5,-19.079999923706055 C38.5,-19.43000030517578 38.459999084472656,-19.760000228881836 38.400001525878906,-20.09000015258789z M37,19.079999923706055 C37,21.010000228881836 35.43000030517578,22.579999923706055 33.5,22.579999923706055 C33.5,22.579999923706055 -33.5,22.579999923706055 -33.5,22.579999923706055 C-35.43000030517578,22.579999923706055 -37,21.010000228881836 -37,19.079999923706055 C-37,19.079999923706055 -37,-19.079999923706055 -37,-19.079999923706055 C-37,-21.010000228881836 -35.43000030517578,-22.579999923706055 -33.5,-22.579999923706055 C-33.5,-22.579999923706055 33.5,-22.579999923706055 33.5,-22.579999923706055 C35.43000030517578,-22.579999923706055 37,-21.010000228881836 37,-19.079999923706055 C37,-19.079999923706055 37,19.079999923706055 37,19.079999923706055z"></path></g><g opacity="1" transform="matrix(1,0,0,1,215.4600067138672,83.78500366210938)"><path fill="rgb(32,37,44)" fill-opacity="1" d=" M38.400001525878906,-20.09000015258789 C38.33000183105469,-20.40999984741211 38.22999954223633,-20.729999542236328 38.11000061035156,-21.030000686645508 C38.040000915527344,-21.170000076293945 37.970001220703125,-21.31999969482422 37.900001525878906,-21.459999084472656 C37.65999984741211,-21.889999389648438 37.369998931884766,-22.270000457763672 37.029998779296875,-22.610000610351562 C36.119998931884766,-23.520000457763672 34.880001068115234,-24.079999923706055 33.5,-24.079999923706055 C33.5,-24.079999923706055 -33.5,-24.079999923706055 -33.5,-24.079999923706055 C-36.2599983215332,-24.079999923706055 -38.5,-21.84000015258789 -38.5,-19.079999923706055 C-38.5,-19.079999923706055 -38.5,19.079999923706055 -38.5,19.079999923706055 C-38.5,21.84000015258789 -36.2599983215332,24.079999923706055 -33.5,24.079999923706055 C-33.5,24.079999923706055 33.5,24.079999923706055 33.5,24.079999923706055 C34.880001068115234,24.079999923706055 36.119998931884766,23.520000457763672 37.029998779296875,22.610000610351562 C37.369998931884766,22.270000457763672 37.65999984741211,21.889999389648438 37.900001525878906,21.459999084472656 C37.970001220703125,21.31999969482422 38.040000915527344,21.170000076293945 38.11000061035156,21.030000686645508 C38.22999954223633,20.729999542236328 38.33000183105469,20.40999984741211 38.400001525878906,20.09000015258789 C38.459999084472656,19.760000228881836 38.5,19.43000030517578 38.5,19.079999923706055 C38.5,19.079999923706055 38.5,-19.079999923706055 38.5,-19.079999923706055 C38.5,-19.43000030517578 38.459999084472656,-19.760000228881836 38.400001525878906,-20.09000015258789z M37,19.079999923706055 C37,21.010000228881836 35.43000030517578,22.579999923706055 33.5,22.579999923706055 C33.5,22.579999923706055 -33.5,22.579999923706055 -33.5,22.579999923706055 C-35.43000030517578,22.579999923706055 -37,21.010000228881836 -37,19.079999923706055 C-37,19.079999923706055 -37,-19.079999923706055 -37,-19.079999923706055 C-37,-21.010000228881836 -35.43000030517578,-22.579999923706055 -33.5,-22.579999923706055 C-33.5,-22.579999923706055 33.5,-22.579999923706055 33.5,-22.579999923706055 C35.43000030517578,-22.579999923706055 37,-21.010000228881836 37,-19.079999923706055 C37,-19.079999923706055 37,19.079999923706055 37,19.079999923706055z"></path></g></g><g style="display: block;" transform="matrix(0.999992311000824,-0.000004674885985878063,0.000004674885985878063,0.999992311000824,199.73924255371094,84.3411636352539)" opacity="1"><g opacity="1" transform="matrix(1,0,0,1,0,0)"><path fill="rgb(23,101,255)" fill-opacity="1" d=" M13.3100004196167,-16.920000076293945 C13.3100004196167,-16.920000076293945 -13.3100004196167,-16.920000076293945 -13.3100004196167,-16.920000076293945 C-14.9399995803833,-16.920000076293945 -16.270000457763672,-15.600000381469727 -16.270000457763672,-13.970000267028809 C-16.270000457763672,-13.970000267028809 -16.270000457763672,13.960000038146973 -16.270000457763672,13.960000038146973 C-16.270000457763672,15.130000114440918 -15.59000015258789,16.139999389648438 -14.600000381469727,16.610000610351562 C-14.390000343322754,16.719999313354492 -14.170000076293945,16.799999237060547 -13.9399995803833,16.850000381469727 C-13.739999771118164,16.899999618530273 -13.529999732971191,16.920000076293945 -13.3100004196167,16.920000076293945 C-13.3100004196167,16.920000076293945 13.3100004196167,16.920000076293945 13.3100004196167,16.920000076293945 C13.569999694824219,16.920000076293945 13.829999923706055,16.889999389648438 14.069999694824219,16.81999969482422 C14.300000190734863,16.760000228881836 14.520000457763672,16.670000076293945 14.720000267028809,16.549999237060547 C15.640000343322754,16.059999465942383 16.270000457763672,15.079999923706055 16.270000457763672,13.960000038146973 C16.270000457763672,13.960000038146973 16.270000457763672,-13.970000267028809 16.270000457763672,-13.970000267028809 C16.270000457763672,-15.600000381469727 14.9399995803833,-16.920000076293945 13.3100004196167,-16.920000076293945z M14.770000457763672,13.960000038146973 C14.770000457763672,14.4399995803833 14.539999961853027,14.859999656677246 14.1899995803833,15.119999885559082 C14.010000228881836,15.270000457763672 13.779999732971191,15.359999656677246 13.539999961853027,15.399999618530273 C13.460000038146973,15.40999984741211 13.390000343322754,15.420000076293945 13.3100004196167,15.420000076293945 C13.3100004196167,15.420000076293945 -13.3100004196167,15.420000076293945 -13.3100004196167,15.420000076293945 C-13.34000015258789,15.420000076293945 -13.380000114440918,15.420000076293945 -13.40999984741211,15.40999984741211 C-13.65999984741211,15.399999618530273 -13.880000114440918,15.319999694824219 -14.079999923706055,15.199999809265137 C-14.5,14.949999809265137 -14.770000457763672,14.489999771118164 -14.770000457763672,13.960000038146973 C-14.770000457763672,13.960000038146973 -14.770000457763672,-13.970000267028809 -14.770000457763672,-13.970000267028809 C-14.770000457763672,-14.770000457763672 -14.119999885559082,-15.420000076293945 -13.3100004196167,-15.420000076293945 C-13.3100004196167,-15.420000076293945 13.3100004196167,-15.420000076293945 13.3100004196167,-15.420000076293945 C14.119999885559082,-15.420000076293945 14.770000457763672,-14.770000457763672 14.770000457763672,-13.970000267028809 C14.770000457763672,-13.970000267028809 14.770000457763672,13.960000038146973 14.770000457763672,13.960000038146973z"></path></g></g><g style="display: block;" transform="matrix(0.999992311000824,-0.000004674885985878063,0.000004674885985878063,0.999992311000824,-503.9175109863281,-175.7965545654297)" opacity="1"><g opacity="1" transform="matrix(1,0,0,1,805.093017578125,348.3739929199219)"><path fill="rgb(255,255,255)" fill-opacity="1" d=" M-30.641000747680664,-94.0199966430664 C-30.641000747680664,-94.0199966430664 -24.44300079345703,-85.1500015258789 -24.44300079345703,-85.1500015258789 C-23.518999099731445,-83.8270034790039 -21.854000091552734,-83.20700073242188 -20.274999618530273,-82.8759994506836 C-17.452999114990234,-82.28600311279297 -14,-80.38999938964844 -11.788000106811523,-78.40699768066406 C-10.331999778747559,-77.10199737548828 -9.895000457763672,-75.11900329589844 -9.902000427246094,-73.16300201416016 C-9.930999755859375,-64.6760025024414 -9.88700008392334,-50.8380012512207 -9.88700008392334,-45.926998138427734 C-7.7210001945495605,-30.863000869750977 30.402000427246094,11.838000297546387 44.388999938964844,42.99399948120117 C50.77000045776367,57.207000732421875 54.36800003051758,56.06999969482422 60.21699905395508,72.24199676513672 C66.06700134277344,88.41500091552734 35.59299850463867,99.4260025024414 18.38800048828125,95.98500061035156 C6.421999931335449,86.16600036621094 -32.79800033569336,-28.402999877929688 -32.79800033569336,-28.402999877929688 C-32.79800033569336,-28.402999877929688 -47.65599822998047,-42.1879997253418 -47.65599822998047,-42.1879997253418 C-47.65599822998047,-42.1879997253418 -47.65599822998047,-51.39699935913086 -47.65599822998047,-51.39699935913086 C-49.349998474121094,-50.582000732421875 -51.3849983215332,-51.236000061035156 -52.28799819946289,-52.88399887084961 C-52.28799819946289,-52.88399887084961 -52.520999908447266,-53.310001373291016 -52.520999908447266,-53.310001373291016 C-53.090999603271484,-54.349998474121094 -53.17499923706055,-55.5880012512207 -52.75299835205078,-56.69599914550781 C-52.75299835205078,-56.69599914550781 -51.68199920654297,-59.50299835205078 -51.68199920654297,-59.50299835205078 C-51.68199920654297,-59.50299835205078 -53.349998474121094,-58.665000915527344 -53.349998474121094,-58.665000915527344 C-55.611000061035156,-57.529998779296875 -58.3380012512207,-58.80500030517578 -58.917999267578125,-61.26599884033203 C-59.17499923706055,-62.358001708984375 -58.95199966430664,-63.50699996948242 -58.30500030517578,-64.4219970703125 C-58.30500030517578,-64.4219970703125 -47.32400131225586,-79.97100067138672 -47.32400131225586,-79.97100067138672 C-45.63800048828125,-82.35900115966797 -42.895999908447266,-83.77999877929688 -39.972999572753906,-83.77999877929688 C-39.972999572753906,-83.77999877929688 -37.979000091552734,-83.77999877929688 -37.979000091552734,-83.77999877929688 C-37.979000091552734,-83.77999877929688 -39.02000045776367,-85.98699951171875 -39.02000045776367,-85.98699951171875 C-39.2130012512207,-86.39600372314453 -39.65700149536133,-86.625 -40.10200119018555,-86.54499816894531 C-40.10200119018555,-86.54499816894531 -45.53900146484375,-85.56700134277344 -45.53900146484375,-85.56700134277344 C-45.53900146484375,-85.56700134277344 -52.56999969482422,-81.11799621582031 -52.56999969482422,-81.11799621582031 C-54.084999084472656,-80.16000366210938 -55.84000015258789,-79.6510009765625 -57.63199996948242,-79.6510009765625 C-60.75199890136719,-79.6510009765625 -62.143001556396484,-83.56999969482422 -59.72200012207031,-85.53700256347656 C-59.72200012207031,-85.53700256347656 -51.18299865722656,-92.4729995727539 -51.18299865722656,-92.4729995727539 C-50.2239990234375,-93.2509994506836 -49.0989990234375,-93.7969970703125 -47.89500045776367,-94.06800079345703 C-47.89500045776367,-94.06800079345703 -37.4900016784668,-96.40899658203125 -37.4900016784668,-96.40899658203125 C-36.87699890136719,-96.5469970703125 -36.250999450683594,-96.61599731445312 -35.62300109863281,-96.61599731445312 C-33.63800048828125,-96.61599731445312 -31.777999877929688,-95.64700317382812 -30.641000747680664,-94.0199966430664z"></path></g><g opacity="1" transform="matrix(1,0,0,1,805.093017578125,348.3739929199219)"><path stroke-linecap="round" stroke-linejoin="miter" fill-opacity="0" stroke-miterlimit="4" stroke="rgb(32,37,44)" stroke-opacity="1" stroke-width="1.5" d=" M-37.979000091552734,-83.77999877929688 C-37.979000091552734,-83.77999877929688 -39.02000045776367,-85.98699951171875 -39.02000045776367,-85.98699951171875 C-39.2130012512207,-86.39600372314453 -39.65700149536133,-86.625 -40.10200119018555,-86.54499816894531 C-40.10200119018555,-86.54499816894531 -45.53900146484375,-85.56700134277344 -45.53900146484375,-85.56700134277344 C-45.53900146484375,-85.56700134277344 -52.56999969482422,-81.11799621582031 -52.56999969482422,-81.11799621582031 C-54.084999084472656,-80.16000366210938 -55.84000015258789,-79.6510009765625 -57.63199996948242,-79.6510009765625 C-57.63199996948242,-79.6510009765625 -57.63199996948242,-79.6510009765625 -57.63199996948242,-79.6510009765625 C-60.75199890136719,-79.6510009765625 -62.143001556396484,-83.56999969482422 -59.72200012207031,-85.53700256347656 C-59.72200012207031,-85.53700256347656 -51.18299865722656,-92.4729995727539 -51.18299865722656,-92.4729995727539 C-50.2239990234375,-93.2509994506836 -49.0989990234375,-93.7969970703125 -47.89500045776367,-94.06800079345703 C-47.89500045776367,-94.06800079345703 -37.4900016784668,-96.40899658203125 -37.4900016784668,-96.40899658203125 C-36.87699890136719,-96.5469970703125 -36.250999450683594,-96.61599731445312 -35.62300109863281,-96.61599731445312 C-35.62300109863281,-96.61599731445312 -35.62300109863281,-96.61599731445312 -35.62300109863281,-96.61599731445312 C-33.63800048828125,-96.61599731445312 -31.777999877929688,-95.64700317382812 -30.641000747680664,-94.0199966430664 C-30.641000747680664,-94.0199966430664 -24.44300079345703,-85.1500015258789 -24.44300079345703,-85.1500015258789 C-23.518999099731445,-83.8270034790039 -21.854000091552734,-83.20700073242188 -20.274999618530273,-82.8759994506836 C-17.452999114990234,-82.28600311279297 -14,-80.38999938964844 -11.788000106811523,-78.40699768066406 C-10.331999778747559,-77.10199737548828 -9.895000457763672,-75.11900329589844 -9.902000427246094,-73.16300201416016 C-9.930999755859375,-64.6760025024414 -9.88700008392334,-50.8380012512207 -9.88700008392334,-45.926998138427734 C-7.7210001945495605,-30.863000869750977 30.402000427246094,11.838000297546387 44.388999938964844,42.99399948120117 C50.77000045776367,57.207000732421875 54.36800003051758,56.06999969482422 60.21699905395508,72.24199676513672 C66.06700134277344,88.41500091552734 35.59299850463867,99.4260025024414 18.38800048828125,95.98500061035156 C6.421999931335449,86.16600036621094 -32.79800033569336,-28.402999877929688 -32.79800033569336,-28.402999877929688 C-32.79800033569336,-28.402999877929688 -47.65599822998047,-42.1879997253418 -47.65599822998047,-42.1879997253418 C-47.65599822998047,-42.1879997253418 -47.65599822998047,-51.39699935913086 -47.65599822998047,-51.39699935913086 M-37.979000091552734,-83.77999877929688 C-37.979000091552734,-83.77999877929688 -39.972999572753906,-83.77999877929688 -39.972999572753906,-83.77999877929688 C-42.895999908447266,-83.77999877929688 -45.63800048828125,-82.35900115966797 -47.32400131225586,-79.97100067138672 C-47.32400131225586,-79.97100067138672 -58.30500030517578,-64.4219970703125 -58.30500030517578,-64.4219970703125 C-58.95199966430664,-63.50699996948242 -59.17499923706055,-62.358001708984375 -58.917999267578125,-61.26599884033203 C-58.917999267578125,-61.26599884033203 -58.917999267578125,-61.26599884033203 -58.917999267578125,-61.26599884033203 C-58.3380012512207,-58.80500030517578 -55.611000061035156,-57.529998779296875 -53.349998474121094,-58.665000915527344 C-53.349998474121094,-58.665000915527344 -51.68199920654297,-59.50299835205078 -51.68199920654297,-59.50299835205078 M-37.979000091552734,-83.77999877929688 C-37.979000091552734,-83.77999877929688 -28.136999130249023,-83.77999877929688 -28.136999130249023,-83.77999877929688 M-51.68199920654297,-59.50299835205078 C-51.68199920654297,-59.50299835205078 -52.75299835205078,-56.69599914550781 -52.75299835205078,-56.69599914550781 C-53.17499923706055,-55.5880012512207 -53.090999603271484,-54.349998474121094 -52.520999908447266,-53.310001373291016 C-52.520999908447266,-53.310001373291016 -52.28799819946289,-52.88399887084961 -52.28799819946289,-52.88399887084961 C-51.3849983215332,-51.236000061035156 -49.349998474121094,-50.582000732421875 -47.65599822998047,-51.39699935913086 C-47.65599822998047,-51.39699935913086 -47.65599822998047,-51.39699935913086 -47.65599822998047,-51.39699935913086 M-51.68199920654297,-59.50299835205078 C-51.68199920654297,-59.50299835205078 -46.297000885009766,-72.56199645996094 -46.297000885009766,-72.56199645996094 C-45.279998779296875,-75.02999877929688 -42.948001861572266,-76.7040023803711 -40.284000396728516,-76.87899780273438 C-40.284000396728516,-76.87899780273438 -24.086999893188477,-77.94200134277344 -24.086999893188477,-77.94200134277344 M-30.68600082397461,-40.75199890136719 C-31.344999313354492,-42.957000732421875 -32.64899826049805,-48.016998291015625 -31.749000549316406,-52.85100173950195 C-31.225000381469727,-55.665000915527344 -29.95400047302246,-58.40299987792969 -27.374000549316406,-60.45600128173828 C-27.409000396728516,-60.61399841308594 -27.43000030517578,-60.77799987792969 -27.441999435424805,-60.941001892089844 C-27.486000061035156,-61.56999969482422 -27.961999893188477,-62.15599822998047 -28.593000411987305,-62.15599822998047 C-28.593000411987305,-62.15599822998047 -33.06100082397461,-62.15599822998047 -33.06100082397461,-62.15599822998047 C-33.415000915527344,-62.15599822998047 -33.742000579833984,-61.96799850463867 -33.922000885009766,-61.66299819946289 C-33.922000885009766,-61.66299819946289 -35.612998962402344,-58.792999267578125 -35.612998962402344,-58.792999267578125 C-35.7599983215332,-58.542999267578125 -35.79199981689453,-58.24100112915039 -35.70000076293945,-57.96699905395508 C-35.70000076293945,-57.96699905395508 -34.5890007019043,-54.6609992980957 -34.5890007019043,-54.6609992980957 C-34.54899978637695,-54.54100036621094 -34.51900100708008,-54.41400146484375 -34.50400161743164,-54.28799819946289 C-34.16699981689453,-51.52299880981445 -34.7140007019043,-49.790000915527344 -35.79100036621094,-48.83700180053711 C-37.20100021362305,-47.5880012512207 -39.207000732421875,-48.941001892089844 -40.194000244140625,-50.54600143432617 C-41.13800048828125,-52.08000183105469 -42.25199890136719,-53.86600112915039 -43.060001373291016,-55.40999984741211 M-21.812999725341797,-70.59600067138672 C-21.812999725341797,-70.59600067138672 -36.349998474121094,-69.84500122070312 -36.349998474121094,-69.84500122070312 C-38.19499969482422,-69.75 -39.83700180053711,-68.6449966430664 -40.619998931884766,-66.97200012207031 C-40.619998931884766,-66.97200012207031 -43.79199981689453,-60.20000076293945 -43.79199981689453,-60.20000076293945 C-44.323001861572266,-59.066001892089844 -44.290000915527344,-57.75 -43.70600128173828,-56.64099884033203 C-43.542999267578125,-56.33100128173828 -43.34000015258789,-55.944000244140625 -43.060001373291016,-55.40999984741211 M-43.060001373291016,-55.40999984741211 C-43.060001373291016,-55.40999984741211 -43.7130012512207,-54.349998474121094 -43.7130012512207,-54.349998474121094 C-44.314998626708984,-53.37099838256836 -45.185001373291016,-52.58599853515625 -46.22100067138672,-52.0880012512207 C-46.22100067138672,-52.0880012512207 -47.65599822998047,-51.39699935913086 -47.65599822998047,-51.39699935913086"></path></g></g><g style="display: block;" transform="matrix(1,0,0,1,215.25,107.23500061035156)" opacity="1"><g opacity="1" transform="matrix(1,0,0,1,0,0)"><path stroke-linecap="butt" stroke-linejoin="miter" fill-opacity="0" stroke-miterlimit="4" stroke="rgb(37,183,147)" stroke-opacity="1" stroke-width="2" d=" M-36.5,-54.5 C-36.5,-54.5 36.5,-54.5 36.5,-54.5 C41.47100067138672,-54.5 45.5,-50.47100067138672 45.5,-45.5 C45.5,-45.5 45.5,45.5 45.5,45.5 C45.5,50.47100067138672 41.47100067138672,54.5 36.5,54.5 C36.5,54.5 -36.5,54.5 -36.5,54.5 C-41.47100067138672,54.5 -45.5,50.47100067138672 -45.5,45.5 C-45.5,45.5 -45.5,-45.5 -45.5,-45.5 C-45.5,-50.47100067138672 -41.47100067138672,-54.5 -36.5,-54.5z"></path></g></g><g style="display: none;" transform="matrix(1,0,0,1,-504,-175.96701049804688)" opacity="0.16399999999381037"><g opacity="1" transform="matrix(1,0,0,1,719.5,294.2019958496094)"><path stroke-linecap="butt" stroke-linejoin="miter" fill-opacity="0" stroke-miterlimit="4" stroke="rgb(32,37,44)" stroke-opacity="1" stroke-width="0" d=" M-111.5,-87 C-111.5,-87 111.5,-87 111.5,-87 C116.74700164794922,-87 121,-82.74700164794922 121,-77.5 C121,-77.5 121,77.5 121,77.5 C121,82.74700164794922 116.74700164794922,87 111.5,87 C111.5,87 -111.5,87 -111.5,87 C-116.74700164794922,87 -121,82.74700164794922 -121,77.5 C-121,77.5 -121,-77.5 -121,-77.5 C-121,-82.74700164794922 -116.74700164794922,-87 -111.5,-87z"></path><path fill="rgb(255,255,255)" fill-opacity="1" d=" M-111.5,-87 C-111.5,-87 111.5,-87 111.5,-87 C116.74700164794922,-87 121,-82.74700164794922 121,-77.5 C121,-77.5 121,77.5 121,77.5 C121,82.74700164794922 116.74700164794922,87 111.5,87 C111.5,87 -111.5,87 -111.5,87 C-116.74700164794922,87 -121,82.74700164794922 -121,77.5 C-121,77.5 -121,-77.5 -121,-77.5 C-121,-82.74700164794922 -116.74700164794922,-87 -111.5,-87z"></path></g><g opacity="1" transform="matrix(1,0,0,1,719.5,199.83599853515625)"><path fill="rgb(32,37,44)" fill-opacity="1" d=" M-24.297000885009766,-2 C-24.297000885009766,-4.209000110626221 -22.506000518798828,-6 -20.297000885009766,-6 C-20.297000885009766,-6 20.297000885009766,-6 20.297000885009766,-6 C22.506000518798828,-6 24.297000885009766,-4.209000110626221 24.297000885009766,-2 C24.297000885009766,-2 24.297000885009766,6 24.297000885009766,6 C24.297000885009766,6 -24.297000885009766,6 -24.297000885009766,6 C-24.297000885009766,6 -24.297000885009766,-2 -24.297000885009766,-2z"></path></g><g opacity="1" transform="matrix(1,0,0,1,719.4979858398438,199.83599853515625)"><path fill="rgb(255,255,255)" fill-opacity="1" d=" M0,-3.7709999084472656 C2.0829999446868896,-3.7709999084472656 3.7709999084472656,-2.0829999446868896 3.7709999084472656,0 C3.7709999084472656,2.0829999446868896 2.0829999446868896,3.7709999084472656 0,3.7709999084472656 C-2.0829999446868896,3.7709999084472656 -3.7709999084472656,2.0829999446868896 -3.7709999084472656,0 C-3.7709999084472656,-2.0829999446868896 -2.0829999446868896,-3.7709999084472656 0,-3.7709999084472656z"></path></g><g opacity="1" transform="matrix(1,0,0,1,719.4979858398438,199.83599853515625)"><path fill="rgb(32,37,44)" fill-opacity="1" d=" M0,-2.2990000247955322 C1.2699999809265137,-2.2990000247955322 2.2990000247955322,-1.2699999809265137 2.2990000247955322,0 C2.2990000247955322,1.2699999809265137 1.2699999809265137,2.2990000247955322 0,2.2990000247955322 C-1.2699999809265137,2.2990000247955322 -2.2990000247955322,1.2699999809265137 -2.2990000247955322,0 C-2.2990000247955322,-1.2699999809265137 -1.2699999809265137,-2.2990000247955322 0,-2.2990000247955322z"></path></g><g opacity="1" transform="matrix(1,0,0,1,699.2230224609375,197.6320037841797)"><path fill="rgb(255,255,255)" fill-opacity="1" d=" M0,-1.128999948501587 C0.6230000257492065,-1.128999948501587 1.128999948501587,-0.6240000128746033 1.128999948501587,0 C1.128999948501587,0.6240000128746033 0.6230000257492065,1.128999948501587 0,1.128999948501587 C-0.6230000257492065,1.128999948501587 -1.128999948501587,0.6240000128746033 -1.128999948501587,0 C-1.128999948501587,-0.6240000128746033 -0.6230000257492065,-1.128999948501587 0,-1.128999948501587z"></path></g><g opacity="1" transform="matrix(1,0,0,1,699.2230224609375,201.2100067138672)"><path fill="rgb(255,255,255)" fill-opacity="1" d=" M0,-1.128999948501587 C0.6230000257492065,-1.128999948501587 1.128999948501587,-0.6240000128746033 1.128999948501587,0 C1.128999948501587,0.6240000128746033 0.6230000257492065,1.128999948501587 0,1.128999948501587 C-0.6230000257492065,1.128999948501587 -1.128999948501587,0.6240000128746033 -1.128999948501587,0 C-1.128999948501587,-0.6240000128746033 -0.6230000257492065,-1.128999948501587 0,-1.128999948501587z"></path></g></g><g style="display: block;" transform="matrix(1,0,0,1,0,0)" opacity="1"><g opacity="1" transform="matrix(1,0,0,1,215.5,112.19999694824219)"><path fill="rgb(32,37,44)" fill-opacity="1" d=" M111.5,-82.5 C111.5,-82.5 24.299999237060547,-82.5 24.299999237060547,-82.5 C24.299999237060547,-82.5 24.299999237060547,-90.5 24.299999237060547,-90.5 C24.299999237060547,-92.70999908447266 22.510000228881836,-94.5 20.299999237060547,-94.5 C20.299999237060547,-94.5 -20.299999237060547,-94.5 -20.299999237060547,-94.5 C-22.510000228881836,-94.5 -24.299999237060547,-92.70999908447266 -24.299999237060547,-90.5 C-24.299999237060547,-90.5 -24.299999237060547,-82.5 -24.299999237060547,-82.5 C-24.299999237060547,-82.5 -111.5,-82.5 -111.5,-82.5 C-117.56999969482422,-82.5 -122.5,-77.55999755859375 -122.5,-71.5 C-122.5,-71.5 -122.5,83.5 -122.5,83.5 C-122.5,89.56999969482422 -117.56999969482422,94.5 -111.5,94.5 C-111.5,94.5 111.5,94.5 111.5,94.5 C117.56999969482422,94.5 122.5,89.56999969482422 122.5,83.5 C122.5,83.5 122.5,-71.5 122.5,-71.5 C122.5,-77.55999755859375 117.56999969482422,-82.5 111.5,-82.5z M119.5,83.5 C119.5,87.91000366210938 115.91000366210938,91.5 111.5,91.5 C111.5,91.5 -111.5,91.5 -111.5,91.5 C-115.91000366210938,91.5 -119.5,87.91000366210938 -119.5,83.5 C-119.5,83.5 -119.5,-71.5 -119.5,-71.5 C-119.5,-75.91000366210938 -115.91000366210938,-79.5 -111.5,-79.5 C-111.5,-79.5 111.5,-79.5 111.5,-79.5 C115.91000366210938,-79.5 119.5,-75.91000366210938 119.5,-71.5 C119.5,-71.5 119.5,83.5 119.5,83.5z"></path></g><g opacity="1" transform="matrix(1,0,0,1,215.4980010986328,23.70199966430664)"><path fill="rgb(255,255,255)" fill-opacity="1" d=" M0,-3.7709999084472656 C2.0829999446868896,-3.7709999084472656 3.7709999084472656,-2.0829999446868896 3.7709999084472656,0 C3.7709999084472656,2.0829999446868896 2.0829999446868896,3.7709999084472656 0,3.7709999084472656 C-2.0829999446868896,3.7709999084472656 -3.7709999084472656,2.0829999446868896 -3.7709999084472656,0 C-3.7709999084472656,-2.0829999446868896 -2.0829999446868896,-3.7709999084472656 0,-3.7709999084472656z"></path></g><g opacity="1" transform="matrix(1,0,0,1,215.4980010986328,23.70199966430664)"><path fill="rgb(32,37,44)" fill-opacity="1" d=" M0,-2.2990000247955322 C1.2699999809265137,-2.2990000247955322 2.2990000247955322,-1.2699999809265137 2.2990000247955322,0 C2.2990000247955322,1.2699999809265137 1.2699999809265137,2.2990000247955322 0,2.2990000247955322 C-1.2699999809265137,2.2990000247955322 -2.2990000247955322,1.2699999809265137 -2.2990000247955322,0 C-2.2990000247955322,-1.2699999809265137 -1.2699999809265137,-2.2990000247955322 0,-2.2990000247955322z"></path></g><g opacity="1" transform="matrix(1,0,0,1,195.22300720214844,21.49799919128418)"><path fill="rgb(255,255,255)" fill-opacity="1" d=" M0,-1.128999948501587 C0.6230000257492065,-1.128999948501587 1.128999948501587,-0.6240000128746033 1.128999948501587,0 C1.128999948501587,0.6240000128746033 0.6230000257492065,1.128999948501587 0,1.128999948501587 C-0.6230000257492065,1.128999948501587 -1.128999948501587,0.6240000128746033 -1.128999948501587,0 C-1.128999948501587,-0.6240000128746033 -0.6230000257492065,-1.128999948501587 0,-1.128999948501587z"></path></g><g opacity="1" transform="matrix(1,0,0,1,195.22300720214844,25.076000213623047)"><path fill="rgb(255,255,255)" fill-opacity="1" d=" M0,-1.128999948501587 C0.6230000257492065,-1.128999948501587 1.128999948501587,-0.6240000128746033 1.128999948501587,0 C1.128999948501587,0.6240000128746033 0.6230000257492065,1.128999948501587 0,1.128999948501587 C-0.6230000257492065,1.128999948501587 -1.128999948501587,0.6240000128746033 -1.128999948501587,0 C-1.128999948501587,-0.6240000128746033 -0.6230000257492065,-1.128999948501587 0,-1.128999948501587z"></path></g></g><g style="display: none;" transform="matrix(0.1538989543914795,-0.1538989543914795,0.1538989543914795,0.1538989543914795,216,109)" opacity="0.001636597138096363"><g opacity="1" transform="matrix(1,0,0,1,0,0)"><path stroke-linecap="round" stroke-linejoin="miter" fill-opacity="0" stroke-miterlimit="4" stroke="rgb(23,101,255)" stroke-opacity="1" stroke-width="20.055" d=" M0,-144.39849853515625 C79.69353485107422,-144.39849853515625 144.39849853515625,-79.69353485107422 144.39849853515625,0 C144.39849853515625,79.69353485107422 79.69353485107422,144.39849853515625 0,144.39849853515625 C-79.69353485107422,144.39849853515625 -144.39849853515625,79.69353485107422 -144.39849853515625,0 C-144.39849853515625,-79.69353485107422 -79.69353485107422,-144.39849853515625 0,-144.39849853515625z"></path></g></g><g style="display: none;" transform="matrix(0.21764598786830902,0,0,0.21764598786830902,203.7783966064453,95.9054183959961)" opacity="0.0016393409234069622"><g opacity="1" transform="matrix(1,0,0,1,0,0)"><path stroke-linecap="round" stroke-linejoin="round" fill-opacity="0" stroke="rgb(23,101,255)" stroke-opacity="1" stroke-width="20.055" d=" M112.30999755859375,0 C112.30999755859375,0 39.85200119018555,120.33200073242188 39.85200119018555,120.33200073242188 C39.85200119018555,120.33200073242188 0,73.3270034790039 0,73.3270034790039"></path></g></g></g></svg>